<?xml version="1.0" encoding="utf-8"?>
<!-- Generator: Adobe Illustrator 27.9.2, SVG Export Plug-In . SVG Version: 6.00 Build 0)  -->
<svg version="1.1" id="Calque_1" xmlns="http://www.w3.org/2000/svg" xmlns:xlink="http://www.w3.org/1999/xlink" x="0px" y="0px"
	 viewBox="0 0 122.8 103.2" style="enable-background:new 0 0 122.8 103.2;" xml:space="preserve">
<style type="text/css">
	.st0{fill:#27FFAC;}
</style>
<g>
	<path class="st0" d="M108.3,18.5C107.9,18.8,107.6,19.1,108.3,18.5L108.3,18.5z"/>
	<path class="st0" d="M11,62.3C11,62.3,10.9,62.3,11,62.3c1,0.9,0.7,0.6,0.3,0.3C11.2,62.5,11.1,62.4,11,62.3
		C11,62.4,11,62.3,11,62.3z"/>
	<path class="st0" d="M120.6,12.8c1.3-1.3,2.3-3.4,2.2-5.3c-0.2-3.8-3.3-7.9-7.5-7.5c-4.7,0.4-9,1.8-13,4.4c-3.4,2.2-6.5,5-9.4,7.9
		C87.3,17.8,82.1,23.6,77,29.6C66.4,42,56.7,55.1,48,68.9c-1.9,2.9-3.7,5.9-5.4,8.9c-4.7-9.5-11.4-18.2-19.5-24.9
		c-3.7-3.1-7.6-5.9-11.9-8.3c-3.4-1.9-8.4-0.9-10.3,2.7c-1.9,3.5-1,8.2,2.7,10.3c1.7,0.9,3.3,1.9,4.9,3c0.8,0.6,1.6,1.1,2.4,1.7
		c-0.1-0.1-0.1-0.1-0.2-0.2c0.1,0.1,0.2,0.2,0.4,0.3c0.1,0.1,0.2,0.1,0.3,0.2c0.2,0.1,0.4,0.3,0.5,0.4c2.9,2.4,5.6,5,8.1,7.8
		c0.6,0.7,1.3,1.4,1.9,2.2c0.2,0.3,0.4,0.6,0.7,0.8c0,0,0,0,0,0.1c1.1,1.5,2.2,3.1,3.2,4.7c1.9,3,3.5,6,4.9,9.2
		c1.3,3.2,2.4,6.6,3.2,10c1.5,6.2,10.7,7.5,13.7,1.8C54.4,86.6,62.1,74,70.6,62c2.1-3,4.3-6,6.5-8.9c0.4-0.6,0.9-1.2,1.3-1.8
		c-1.5,2,0.4-0.5,0.7-0.9c1.2-1.5,2.4-3,3.6-4.5c4.6-5.7,9.5-11.3,14.5-16.6c2.7-2.9,5.4-5.8,8.4-8.6c0.7-0.7,1.4-1.3,2.1-1.9
		c0.3-0.3,0.7-0.5,0.9-0.8c-0.2,0.2-0.3,0.3-0.4,0.4c0.2-0.2,0.4-0.3,0.5-0.4c1.2-0.8,2.5-1.6,3.8-2.2c1-0.4,2-0.6,3-0.8
		C117.5,14.8,119.2,14.2,120.6,12.8z"/>
</g>
</svg>
