<?xml version="1.0" encoding="utf-8"?>
<!-- Generator: Adobe Illustrator 27.9.2, SVG Export Plug-In . SVG Version: 6.00 Build 0)  -->
<svg version="1.1" id="Calque_1" xmlns="http://www.w3.org/2000/svg" xmlns:xlink="http://www.w3.org/1999/xlink" x="0px" y="0px"
	 viewBox="0 0 596 1129.5" style="enable-background:new 0 0 596 1129.5;" xml:space="preserve">
<style type="text/css">
	.st0{fill:#11171C;}
	.st1{fill:#232323;}
	.st2{fill:#E2BE83;}
	.st3{fill:#444341;}
	.st4{fill:#4C4C4C;}
	.st5{fill:#747C7B;}
	.st6{fill:#605442;}
	.st7{fill:#0B3D91;}
	.st8{fill:#FFFFFF;}
	.st9{fill:#FC3D21;}
	.st10{opacity:0.15;}
	.st11{opacity:0.16;}
</style>
<ellipse class="st0" cx="298" cy="1094.6" rx="298" ry="34.9"/>
<path class="st1" d="M483.2,484.4c-7.8-26.9-9.4-55-14.7-82.4c-3.9-19.8-5.5-42.2-17.8-59c-6.2-8.4-15.3-14.1-23.9-19.7
	c-9.1-6-18.5-11.7-28.1-16.8c-0.9-0.5-1.9-1-2.8-1.5c-0.1-0.1-0.3-0.1-0.4-0.2c-10.7-5.5-21.8-10.3-33.6-13
	c-13.1-3-26.5-3.8-39.9-3.3c-7.1,0.3-14.2,1-21.3,1.3c-7.1,0.3-14.2,0.4-21.3,0.6c-14.2,0.3-28.5,0.6-42.6,2.9
	c-13.2,2.2-26,6.4-38.7,10.6c-6.1,2-12.1,4.1-18.2,5.9c-5.6,1.7-11.2,3.1-16.7,5.1c-0.3,0.1-0.5,0.2-0.7,0.3c-1,0.4-2,0.7-3,1.2
	c-9.2,3.6-18,8.2-26,13.9c-8.7,6.1-17,13.5-22.2,22.8c-5.7,10.1-7.8,21.6-9.7,32.8c-1,5.6-1.9,11.3-3.2,16.9
	c-1.5,6.3-3.6,12.4-5.8,18.5c-4.6,13-9.7,25.7-14.1,38.8c-4,12.1-6.8,24.6-10.7,36.8c-3.8,11.9-8,23.9-10.1,36.2
	c-2,11.7-1.5,23,2.4,34.3c4.1,11.9,10.7,22.8,17,33.7c5.9,10.2,10.8,20.6,15.1,31.7c3.6,9.2,7.4,18.4,13.8,26
	c3.4,4.1,7.5,7.3,11.9,10.4c4.2,2.9,8.1,6.3,11.6,10c0,0,0,0,0,0c0.2,0.2,0.5,0.5,0.7,0.7c0.4,0.4,0.7,0.8,1.1,1.2
	c7.1,8,12.5,17.2,18.4,26.1c-0.4,0.5-0.8,1-1,1.6c-0.2,0.5-0.1,0.9,0.1,1.2c0.6,0.9,2.1,1,2.8,0c0.1-0.1,0.1-0.2,0.2-0.4
	c-0.2,0.5,0.2-0.1,0.4-0.3c0.2-0.2,0.4-0.3,0.6-0.5c0,0,0.1-0.1,0.1-0.1c0.1-0.1,0.2-0.2,0.3-0.2c0.1-0.1,0.2-0.2,0.4-0.3
	c1.5-1.2,3-2.3,4.5-3.4c3.6-2.6,7.2-5.2,10.8-7.8c2.9-2.1,5.9-4.3,8.5-6.8c2.9-2.9,5.3-6.4,7.4-9.9c4.6-7.8,8.1-16.2,12-24.3
	c3.5-7.1,7.4-15.1,14-20c8.4-6.2,20.9-5.1,30.6-4.1c11.9,1.2,23.8,3.9,35.8,3c14-1,27.8-4,41.8-5.4c12.7-1.3,26.3-1.8,38.6,2.1
	c7.1,2.2,9.6,8.9,13.5,14.6c2,3,4.3,6.3,7,8.6c0.9,0.7,1.8,1.4,2.8,1.8c2.1,1,4.5,1.5,7.3,0.8c4.6-1,9.1-3.8,13-6.3
	c4.8-3.1,9.3-6.6,13.5-10.4c9-8.1,16.8-17.3,24.4-26.7c7.4-9.2,14.8-18.4,22.2-27.6c7.7-9.5,15.2-19.4,21-30.2
	c5.8-10.7,9.6-22.3,9.3-34.6C490.8,509.1,486.8,496.7,483.2,484.4z M472.6,565.6c-6.8,10.2-14.6,19.6-22.3,29.1
	c-12.7,15.7-24.7,32.8-40.2,45.9c-0.9,0.7-1.7,1.4-2.6,2.1c-1.5,1.2-3,2.4-4.5,3.4c-4.3,3.1-9.2,6.3-14.2,8c-3.1,1.1-5.8,1-8.3-0.8
	c-0.3-0.2-0.6-0.5-0.9-0.7c-0.7-0.7-1.5-1.4-2.1-2.2c-4.6-5.2-7.1-12-11.8-17.1c-0.6-0.7-1.3-1.2-2-1.8c-0.1-0.1-0.3-0.2-0.5-0.4
	c-0.3-0.2-0.7-0.4-1-0.6c-1.2-0.7-2.5-1.3-3.9-1.7c-5.1-1.7-10.7-2.4-16-2.9c-13.3-1.1-26.7,0.7-39.9,2.6c-12.9,1.9-25.7,4.2-38.7,3
	c-11.9-1.1-23.8-3.7-35.9-3.3c-7.7,0.3-15,1.7-20.8,6.5c-0.7,0.6-1.5,1.2-2.1,2c-0.1,0.1-0.1,0.1-0.2,0.2c-5.6,6-9.3,13.7-12.8,21.1
	c-3.7,7.9-7.1,16-11.9,23.3c-4.6,6.9-10.9,11.4-17.5,16.2c-3.1,2.2-6.3,4.5-9.4,6.8c-0.3,0.3-0.7,0.5-1.1,0.8
	c-5.8-8.8-11.2-17.8-18.1-25.7c-0.4-0.4-0.8-0.9-1.2-1.3c-0.7-0.9-1.5-1.7-2.3-2.5c-2.5-2.6-5.3-5-8.2-7.2
	c-4.6-3.5-9.2-6.5-13.1-10.8c-7-7.8-10.8-17.5-14.5-27.1c-4-10.4-8.6-20.2-14.2-29.8C73.9,589.8,67.2,579,63,567
	c-4.2-11.8-4.4-23.5-2-35.6c2.4-12,6.5-23.6,10.2-35.3c3.9-12.3,6.6-24.8,10.8-37c4.3-12.7,9.3-25.2,13.8-37.9
	c2.1-5.9,4.2-11.8,5.6-18c1.3-5.6,2.2-11.3,3.1-16.9c1.9-11.1,3.9-22.5,9.7-32.4c5.6-9.6,14.6-17.1,23.8-23
	c9.4-6.1,19.7-11,30.3-14.4c5.6-1.8,11.2-3.2,16.8-5c6.1-2,12.2-4.1,18.3-6.1c13-4.3,26.2-8.2,39.8-9.9c13.9-1.8,27.9-1.8,41.8-2.1
	c14-0.3,27.9-1.8,41.9-1.9c13.4-0.2,26.9,1.1,39.9,4.8c9.5,2.7,18.6,6.8,27.4,11.4c1,0.5,1.9,1,2.9,1.5c0.9,0.5,1.8,0.9,2.6,1.4
	c10.5,5.7,20.6,12,30.5,18.7c4.3,3,8.9,5.9,12.7,9.6c3.7,3.5,6.7,7.7,9.1,12.2c4.9,9.1,7.3,19.2,9.3,29.3c2.1,10.9,4.2,21.8,6,32.7
	c2.3,14,3.9,28.1,6.2,42.2c2.1,13.1,5.4,25.6,9.1,38.3c3.6,12.7,6.9,26.1,4.6,39.3C485.2,544.7,479.2,555.7,472.6,565.6z"/>
<path class="st2" d="M407.5,642.6c-1.5,1.2-3,2.4-4.5,3.4c-4.3,3.1-9.2,6.3-14.2,8c-3.5,1.2-6.4,1-9.2-1.6
	c-5.9-5.4-8.6-13.4-13.9-19.3c1.6-1.8,2.2-5.1,2.9-7.3c1.3-4,3.3-7.8,5-11.7c0.9-2,1.7-4.1,2.4-6.2c0.6,0.5,1.2,0.9,1.6,1.3
	c2.6,2.1,5.2,4.1,7.7,6.2c6.4,5.2,13,10.7,18,17.2c1.6,2.2,4.1,5.5,3.6,8.2C406.7,641.7,407,642.3,407.5,642.6z"/>
<path class="st2" d="M204.5,637c-5.6,6-9.3,13.7-12.8,21.1c-3.7,7.9-7.1,16-11.9,23.3c-4.6,6.9-10.9,11.4-17.5,16.2
	c-3.1,2.2-6.3,4.5-9.4,6.8c-0.3,0.3-0.7,0.5-1.1,0.8c-5.8-8.8-11.2-17.8-18.1-25.7c-0.4-0.4-0.8-0.9-1.2-1.3
	c3.3-6.3,8.5-11.3,13.7-16.1c5.4-5,11-9.8,15.8-15.3c4.3-5,8.6-9.9,13.2-14.6c3.8-3.8,8.5-8.9,14-10.2c0.6-0.1,0.9-0.5,1.1-1
	C194.6,626.6,199.4,632,204.5,637z"/>
<path class="st1" d="M205.3,637.7c-0.3-0.3-0.5-0.5-0.8-0.7c-5.1-5-9.9-10.4-14.4-16c0,0,0,0,0,0c-0.6-0.7-1.1-1.4-1.7-2.1
	c-4.9-6.3-9.3-13-13.2-20c-7.1-12.7-12.6-26.3-15.9-40.5c-2.8-12-3.5-24.3-3.3-36.6c0-0.8,0-1.5,0-2.3c0-2.3,0.1-4.6,0.2-6.9
	c1.2-32,5.5-64.8-7.9-95c-0.8-1.9,1.9-3.5,2.8-1.6c7.1,16.1,9.8,33.3,10.1,50.8c0.4,31.1-5.8,62.6,1.8,93.3
	c7.1,28.3,22.9,54.3,43.7,74.7c0.2,0.2,0.4,0.4,0.7,0.7C209,636.9,206.8,639.2,205.3,637.7z"/>
<path class="st1" d="M434.1,433c-0.1,0.6-0.3,1.3-0.4,1.9c-0.3,1.2-0.6,2.5-0.9,3.7c-2,8.7-4.2,17.4-6.1,26.1
	c-1.4,6.4-3.1,12.7-5.1,18.9c-0.2,0.6-0.4,1.2-0.6,1.8c-0.8,2.3-1.6,4.6-2.5,6.9c-2.3,5.9-4.8,11.8-7.5,17.6c-0.2,0.5-0.4,1-0.7,1.5
	c-5,10.9-10.4,21.7-15.3,32.6c-3.9,8.8-7.6,17.7-10.3,27c-2.9,9.7-4.2,19.8-6.5,29.6c-0.3,1.3-0.7,2.7-1.1,4
	c-0.3,1.2-0.7,2.3-1.1,3.4c-0.7,2.1-1.5,4.1-2.4,6.2c-1.7,3.9-3.7,7.7-5,11.7c-0.7,2.2-1.3,5.5-2.9,7.3c0,0.1-0.1,0.2-0.2,0.3
	c-1.6,1.6-3.2,0.5-3.8-1.3c-0.3-0.7,0-1.3,0.5-1.7c0.4-0.3,1-0.4,1.5-0.2c0.2-0.7,0.6-1.5,0.8-2.1c0.6-1.6,1.1-3.2,1.6-4.8
	c1.6-4.4,3.9-8.6,5.7-13c4-10.1,5.1-20.9,7.6-31.4c8.1-35.1,29.7-65.1,40.3-99.4c2.8-9,4.5-18.3,6.7-27.5c2.3-9.8,4.7-19.6,6.8-29.4
	c4.3-20,7.4-40.3,6-60.7c-0.1-2.1,3.1-2.1,3.2,0C444,385.9,439.5,409.7,434.1,433z"/>
<path class="st1" d="M464.7,954c-0.6,1.6-1.3,2.9-2.3,4c-1.2,1.3-2.7,2.3-4.3,3c-1.7,0.7-3.6,1.2-5.5,1.5c-6.9,0.9-14,0.2-21,0.6
	c-2.4,0.1-4.8,0.4-7.2,0.8c-0.1,0-0.1,0-0.3,0c-1.5,0.3-3,0.6-4.4,1c-4,1.2-7.4,3.4-11,5.4c0,0,0,0-0.1,0c-0.5,0.3-1,0.6-1.6,0.9
	c-1.4,0.7-2.9,1.4-4.4,1.8c0,0,0,0,0,0c-0.5,0.1-1.1,0.2-1.6,0.3c-1,0.1-2.1,0-3.2-0.2v0c0,0,0,0-0.1,0c-0.4-0.1-0.9-0.2-1.4-0.4
	c-4.1-1.7-7.4-5.6-9.1-9.6c-3.9-9.1-2-20.4-7.8-28.8c-6.6-9.5-17.7-14.7-25.4-23.1c-8.5-9.3-14.6-21-20.6-31.9
	c-6.4-11.6-11-24-14.8-36.6c-8.2-27.3-13.7-55.4-21.2-83c-1.8-6.6-3.3-13.3-5-20c-1.6-6.5-3.3-13.5-6.5-19.5c-0.7-1.4-2-3.9-3.7-4.3
	c-1.8-0.4-3.3,2-4.1,3.2c-2.7,4.3-4.1,9.4-5.7,14.2c-2,6.3-3.7,12.7-5.2,19.2c-6.1,26.4-8.4,53.5-10.9,80.3
	c-0.6,6.7-1.3,13.3-2.1,19.9c-0.9,7.1-1.8,14.5-0.1,21.6c2.4,10.2,12.2,14.7,16.8,23.5c3.2,6.2,1.6,13.3-0.2,19.7
	c-2.5,8.5-6.2,16.8-10.5,24.5c-3.5,6.2-7.6,13-13.4,17.4c-3.3,2.4-7.1,4.2-11.2,5.4c-3,0.9-6.1,1.5-9.2,2c-2.6,0.4-5.2,0.7-7.6,0.9
	c-4,0.4-8,0.5-12,0.5c-7.1-0.1-14.1-0.9-21-2.3c-3.9-0.8-8.2-1.8-12-3.5c-0.9-0.4-1.8-0.8-2.6-1.3c-0.3-0.1-0.5-0.3-0.8-0.5
	c-1.6-1-3.1-2.2-4.3-3.6c-4.1-4.6-5-10.7-5.6-16.6c-1.1-10.1-1-20.4-4.6-30.1c-2.2-5.8-5.4-11.1-8.4-16.5c-1.6-2.8-3.4-5.9-3.3-9.3
	c0.1-3.6,2.2-7.1,3.4-10.4c2.3-6.1,4.2-12.3,5.3-18.7c2.2-12.9,1.3-26,0.1-39c-1-11.4-0.7-22.9-0.4-34.4c0.6-23.3,2.8-48.1-4.3-70.7
	c-0.1-0.5-0.1-0.9,0.1-1.2c0.6-0.9,2.2-1.1,2.8,0c0.1,0.1,0.1,0.2,0.2,0.4c3.1,10,4.3,20.5,4.8,30.9c1,23.6-1.7,47.3-0.3,70.8
	c0.7,12.5,2.3,24.8,1,37.4c-0.6,6-1.8,12-3.6,17.8c-1.5,5-3.8,9.7-5.4,14.6c-1,3.1-0.1,5.5,1.4,8.3c0.2,0.4,0.4,0.9,0.7,1.3v0
	c0.4,0.8,0.8,1.5,1.2,2.3v0c2.1,3.7,4.3,7.4,6,11.3c4.5,9.8,5.2,20,6,30.6c0.5,5.9,0.7,12.9,4.4,17.9c4.4,5.8,12.7,7.6,19.4,9
	c6.1,1.3,12.3,1.9,18.6,2.1h0c4.9,0.1,9.9-0.1,14.7-0.6c1.6-0.2,3.3-0.4,5-0.6c0,0,0,0,0.1,0c7.6-1.2,15.9-3.3,21.2-8.4
	c5.8-5.5,9.9-13,13.4-20c3.8-7.6,7.1-15.6,8.8-23.9c0.6-2.9,1-6.1,0.3-8.9c-1.1-4.5-4.7-8-7.9-11.2c-3.1-3.2-6.4-6.5-8.4-10.5
	c-2.8-5.5-3.2-11.9-2.9-17.9c0.3-6.9,1.4-13.8,2.1-20.6c0.6-6.2,1.2-12.5,1.8-18.8c1.3-13.2,2.6-26.5,4.4-39.6
	c1.8-13,4.1-25.9,7.3-38.6c1.6-6.4,3.5-12.7,5.7-18.9c1.3-3.6,2.7-7.4,5.1-10.5c8.7-11.2,15.3,10,17,15.7c1.9,6.6,3.4,13.4,5.1,20.1
	c2.7,11.3,5.9,22.5,8.8,33.7c6.6,26.6,11.7,54.2,22.5,79.5c5.1,11.8,11.7,23.2,18.7,33.8c3.4,5,6.9,9.9,11.4,14
	c4.3,3.8,9,7.1,13.4,10.8c2,1.7,4.1,3.6,6,5.6c0.5,0.5,0.9,1,1.3,1.6c1.2,1.4,2.2,3,3,4.6c2,4.2,2.8,8.9,3.5,13.4
	c0.8,4.8,1.2,10,3.5,14.3c2,3.9,6.2,7.9,10.8,7.1c0.2,0,0.4-0.1,0.7-0.1c1.9-0.5,3.6-1.4,5.3-2.4c0,0,0,0,0,0
	c2.2-1.3,4.2-2.7,6.4-3.7c3.7-1.7,7.7-2.7,11.7-3.3c7.3-1,14.6-0.6,21.9-0.9c5-0.1,11.5-0.6,13.9-5.8c1.5-3.3,1.2-7.3,0.8-10.8
	c-0.6-5-2-9.9-2.7-15c-1.2-8.5-1.8-17.1-2.9-25.6v0c-0.1-0.7-0.2-1.4-0.3-2.1c-0.3-2.1-0.6-4.1-1-6.1c-0.9-4.9-2.1-9.8-4.4-14.3
	c-2.4-4.8-6-8.7-9.5-12.7c-3.6-4.1-7.3-8.3-9.9-13.2c-3.3-6-5.5-12.7-8.1-19c-5-12.6-10.5-24.9-15.3-37.6
	c-9.5-25.2-17.2-51.2-23.8-77.3c-1.6-6.4-3.1-12.7-4.5-19.1c-1.3-5.7-2.9-11.5-3.6-17.3c-0.6-5-0.1-10.1,0-15.1
	c0.1-2.8,1.9-9.5,1.5-13.7c-0.1-1.1-0.4-1.9-0.8-2.6c-0.7-0.9-0.2-1.8,0.6-2.1c0.7-0.3,1.6-0.3,2.2,0.5c0.4,0.6,0.7,1.4,0.9,2.4
	c0.1,1.1,0.1,2.3,0,3.6c-0.3,3.3-1,7-1,8.9c0,4.9-0.5,9.8-0.3,14.7c0.2,5.9,2,11.8,3.3,17.5c1.5,6.5,3,13,4.6,19.5
	c3.3,13.3,6.9,26.4,10.8,39.5c4,13.1,8.3,26,13.1,38.8c4.9,13,10.5,25.6,15.7,38.5c2.6,6.6,4.9,13.6,8.6,19.7
	c3,4.9,6.9,9.1,10.7,13.4c3.3,3.8,6.5,7.8,8.6,12.5c2,4.6,3.3,9.4,4.2,14.3c2.1,11.2,2.6,22.6,4.2,33.8
	C463.9,936.3,467.6,945.7,464.7,954z"/>
<path class="st2" d="M400.4,293.5c-0.8,4.1-2.4,8-4.6,11.5c-0.1-0.1-0.3-0.1-0.4-0.2c-10.7-5.5-21.8-10.3-33.6-13
	c-13.1-3-26.5-3.8-39.9-3.3c-7.1,0.3-14.2,1-21.3,1.3c-7.1,0.3-14.2,0.4-21.3,0.6c-14.2,0.3-28.5,0.6-42.6,2.9
	c-13.2,2.2-26,6.4-38.7,10.6c-6.1,2-12.1,4.1-18.2,5.9c-5.6,1.7-11.2,3.1-16.7,5.1c-0.3,0.1-0.5,0.2-0.7,0.3
	c-4.8-8.5-8.2-17.9-8-27.8c0.2-8.4,3.2-16.4,8.2-23.2c11.9-16.3,32.4-25.4,51-31.4c23.4-7.6,48.1-11.2,72.6-11.9
	c21.9-0.7,44.7,0.6,65.7,7.4c9.2,3,17.3,7.3,24.6,13.7C390.5,254.4,404.4,273.6,400.4,293.5z"/>
<path class="st1" d="M398.7,306.5c-0.5,0.9-1.1,1.8-1.7,2.7c0,0-0.1,0.1-0.1,0.1c-1.2,1.7-4,0.1-2.8-1.6c0,0,0,0,0,0
	c0.6-0.9,1.2-1.8,1.7-2.7c2.2-3.6,3.7-7.4,4.6-11.5c4-19.9-9.9-39.1-24.1-51.4c-7.3-6.4-15.4-10.7-24.6-13.7
	c-21-6.8-43.8-8.1-65.7-7.4c-24.5,0.7-49.2,4.3-72.6,11.9c-18.6,6-39.1,15.1-51,31.4c-5,6.8-8,14.7-8.2,23.2
	c-0.2,9.8,3.3,19.3,8,27.8c0.1,0.2,0.2,0.4,0.4,0.6c1,1.8-1.7,3.4-2.8,1.6c-0.2-0.4-0.4-0.7-0.6-1.1c-1.2-2.2-2.3-4.4-3.3-6.6
	c-3.9-9-5.9-18.7-4.3-28.5c1.5-8.8,5.9-16.7,11.8-23.2c9.8-10.9,22.9-18.4,36.7-23.8c0,0,0,0,0.1,0c0.3-0.1,0.6-0.2,0.9-0.4
	c0,0,0,0,0,0c6.4-2.5,12.8-4.6,19.2-6.3c24.7-7,50.7-10,76.4-9.8c21.2,0.2,43.6,2.2,63.3,10.4c0.5,0.2,0.9,0.4,1.4,0.6
	c0.3,0.1,0.6,0.3,0.9,0.4c11.8,5.3,21.6,14.4,29.4,24.7c6,8,10.8,17.3,12.2,27.3C405.1,290,403.2,298.8,398.7,306.5z"/>
<path class="st3" d="M360.1,214.6c-0.1,0.5,0,1.2,0.4,1.6c0.4,0.3,0.7,0.6,1.2,0.9c-1.4,1.5-2.5,3.1-2.7,5.1c-0.2,2,0.6,3.9,0.9,5.9
	c-19.7-8.2-42.2-10.2-63.3-10.4c-25.7-0.2-51.7,2.8-76.4,9.8c-6.3,1.8-12.8,3.9-19.2,6.3c0.1-0.1,0.2-0.2,0.3-0.3
	c1.5-2.6,2.3-5.4,3.2-8.2c0.3-0.9-0.5-2.1-1.5-2c-2.4,0.2-4.7-0.4-7-0.5c0.4-1.3,0.9-2.7,1.6-3.9c0.6-1.1-0.2-2.4-1.4-2.4
	c-2,0-3.8-0.4-5.6-0.4c1.2-2.6,2.1-5.4,3.7-7.7c0.7-1-0.2-2.4-1.4-2.4c-2.1,0-4.2-0.5-6.3-0.7c1.2-2.5,2-5,4.3-7
	c1-0.8,0.4-2.4-0.7-2.7c-4.3-1.2-8.1-3.6-10.3-7.5c1.4-0.7,2.8-1.4,4.3-2c1.1-0.5,1-2.3,0-2.8c-0.9-0.5-1.8-0.8-2.8-1.2
	c3.6-3,6.7-6.5,8.6-10.9c1.9-4.3,2.4-8.9,2-13.6c-0.4-5.1-1.5-10.2-2.6-15.2c-1.3-6.3-2.2-12.6-2.3-19c-0.3-14.8,2.5-29.2,6.8-43.3
	c2-6.4,4.3-12.8,6.3-19.2c1.6-5,2.9-10.2,4.4-15.2c3-10.4,6.3-21.5,12.7-30.5c3.3-4.6,11.2-12.3,16.7-6.4c4.7,5.1,5.9,13.6,7.1,20.1
	c1.3,7,1.8,14.3,3.6,21.2c1.1,4.2,2.4,9.4,5.3,12.7c2.1,2.5,5.1,3.1,8.2,3c6.1-0.2,12.1-1.4,18.2-1.6c7.6-0.3,14.3,1.6,21,5.2
	c0.9,0.4,2.2,0.1,2.4-1c2-10.5,3.4-21,5.5-31.5c2-9.9,4.6-20.8,10.4-29.3c1.3-1.9,3.4-4.7,6-4c2.2,0.6,3.8,3,4.9,4.8
	c3.9,6.2,6.2,13.3,8.7,20c7.3,19.5,20.5,36.7,25.4,57.1c2.3,9.7,1.9,18.9,0.1,28.6c-1.5,7.6-3.3,15.1-3.9,22.9
	c-1,12-0.6,31.3,12.4,36.7c-1.4,1.6-2.6,3.4-4.3,4.8c-1,0.8-0.3,2.4,0.7,2.7c2.5,0.8,4.7,2.5,7,3.8c-5.5,5.5-9,12.8-12.4,19.6
	c-0.3,0.7-0.3,1.4,0.3,1.9c0.8,0.8,1.6,1.6,2.3,2.4C362.2,210.8,360.7,212.5,360.1,214.6z"/>
<path class="st1" d="M376.8,185.3c-6.1,5.2-9.7,12.5-13.2,19.5c1.3,1.2,2.8,2.5,2.5,4.3c-0.4,2-1.8,3.5-2.5,5.3c0.5,0.4,1,0.7,1.5,1
	c0.9,0.5,1.1,1.8,0.3,2.5c-1.6,1.4-3.3,3-3.2,5.2c0.1,1.4,0.7,2.8,0.9,4.2c0.1,0.8-0.3,1.4-0.8,1.7c-0.9,0.6-2.1,0.4-2.3-0.9
	c0,0,0-0.1,0-0.1c-0.3-2-1.1-3.9-0.9-5.9c0.2-2,1.3-3.7,2.7-5.1c-0.4-0.3-0.8-0.6-1.2-0.9c-0.4-0.4-0.6-1-0.4-1.6
	c0.6-2.1,2-3.8,2.8-5.9c-0.8-0.8-1.6-1.6-2.3-2.4c-0.5-0.5-0.6-1.3-0.3-1.9c3.4-6.9,6.9-14.1,12.4-19.6c-2.4-1.2-4.5-3-7-3.8
	c-1.1-0.3-1.7-1.9-0.7-2.7c1.7-1.4,2.9-3.2,4.3-4.8c-13-5.4-13.4-24.8-12.4-36.7c0.6-7.7,2.5-15.2,3.9-22.9
	c1.9-9.7,2.2-18.9-0.1-28.6c-4.9-20.4-18.1-37.6-25.4-57.1c-2.5-6.8-4.8-13.9-8.7-20c-1.1-1.8-2.7-4.2-4.9-4.8c-2.6-0.7-4.8,2.2-6,4
	c-5.8,8.5-8.4,19.3-10.4,29.3c-2.1,10.4-3.5,21-5.5,31.5c-0.2,1.1-1.5,1.4-2.4,1c-6.7-3.5-13.4-5.4-21-5.2
	c-6.1,0.2-12.1,1.5-18.2,1.6c-3.1,0.1-6.1-0.5-8.2-3c-2.9-3.4-4.2-8.5-5.3-12.7c-1.9-6.9-2.4-14.2-3.6-21.2
	c-1.2-6.5-2.4-15-7.1-20.1c-5.5-5.9-13.4,1.8-16.7,6.4c-6.4,9-9.7,20.1-12.7,30.5c-1.5,5.1-2.8,10.2-4.4,15.2
	c-2,6.4-4.3,12.7-6.3,19.2c-4.3,14.1-7.1,28.5-6.8,43.3c0.1,6.4,1.1,12.7,2.3,19c1,5,2.2,10.1,2.6,15.2c0.3,4.6-0.1,9.3-2,13.6
	c-1.9,4.4-5,7.9-8.6,10.9c0.9,0.4,1.9,0.8,2.8,1.2c1,0.5,1.1,2.3,0,2.8c-1.4,0.6-2.9,1.3-4.3,2c2.2,3.9,6,6.3,10.3,7.5
	c1.1,0.3,1.7,1.9,0.7,2.7c-2.4,1.9-3.1,4.5-4.3,7c2.1,0.2,4.2,0.7,6.3,0.7c1.2,0,2.1,1.4,1.4,2.4c-1.6,2.4-2.5,5.2-3.7,7.7
	c1.8,0,3.6,0.4,5.6,0.4c1.2,0,2,1.3,1.4,2.4c-0.7,1.2-1.2,2.6-1.6,3.9c2.4,0.1,4.7,0.7,7,0.5c1-0.1,1.9,1.1,1.5,2
	c-0.9,2.8-1.7,5.7-3.2,8.2c-0.1,0.1-0.2,0.3-0.3,0.3c0,0,0,0,0,0c-0.3,0.2-0.6,0.4-0.9,0.4c0,0,0,0-0.1,0c-1.1,0.1-2.3-1.1-1.5-2.4
	c1-1.7,1.6-3.6,2.2-5.4c-2.4-0.1-4.7-0.7-7.1-0.5c-1.4,0.1-1.8-1.5-1.4-2.4c0.6-1.4,0.9-2.8,1.5-4.1c-1.9-0.3-3.8-0.6-5.8,0.1
	c-1.7,0.5-2.5-1.5-1.6-2.7c1.8-2.3,2.6-5.3,3.9-8c-2.1-0.3-4.2-0.8-6.3-0.6c-1.2,0.1-2.1-1.4-1.4-2.4c1.8-2.7,2.5-5.6,4.4-8.1
	c-4.6-1.8-8.5-4.9-10.5-9.6c-0.3-0.8-0.2-1.7,0.6-2.2c0.8-0.5,1.7-0.9,2.5-1.3c-0.6-0.3-1.2-0.6-1.8-1c-1.1-0.7-1-2,0-2.8
	c5.3-4.1,9.7-9.4,10.9-16.2c1-5.6-0.2-11.4-1.3-16.9c-1.3-6.3-2.7-12.6-3.1-19c-0.6-8.3-0.3-16.7,0.9-24.9
	c2-14.5,6.8-28.1,11.3-41.9c3.4-10.4,5.8-21,9.5-31.2c3.4-9.2,7.8-19.7,16.4-25.2c5.5-3.5,11.4-3.1,15.3,2.4
	c4.3,6.1,5.6,14.4,6.8,21.6c1.2,7.1,1.8,14.5,3.9,21.5c1,3.2,2,8.2,5,10.3c2.5,1.8,6.5,0.9,9.3,0.6c6-0.7,12.1-1.6,18.2-1.3
	c5.7,0.3,11,2.1,16.2,4.6c2.2-11.6,3.6-23.3,6.3-34.8c1.4-5.8,3.1-11.4,5.4-16.9c1.8-4.1,3.9-8.7,7.4-11.6
	c10.9-9,18.4,15.2,20.8,21.7c3.4,9.1,7.4,17.9,12,26.5c5.2,9.8,10.7,19.6,13.7,30.4c2.7,9.5,3.6,19,2.1,28.7
	c-1.3,8.6-3.8,17.1-4.6,25.7c-1.1,11.4-1.9,32.8,12.6,36.2c1.4,0.3,1.5,2.2,0.4,3c-1.8,1.2-3,3-4.3,4.6c2.4,1.3,4.6,3.1,7.3,3.8
	C377.2,182.9,377.8,184.5,376.8,185.3z"/>
<path class="st1" d="M267,904.6c-7.4,5.6-15.7,9.7-24.6,12.4c-31.3,9.6-69,2.1-91.2-23v0c-0.3-0.3-0.6-0.6-0.9-1
	c-0.4-0.4-0.4-0.9-0.4-1.3v0c0.2-1.2,1.6-2.1,2.6-0.9c6,7,13.2,12.8,21.4,17.1c28.1,15,65.8,13.4,91.4-6.1
	C267,900.6,268.7,903.4,267,904.6z"/>
<path class="st1" d="M456.6,902.5L456.6,902.5c-0.1,0.1-0.1,0.2-0.2,0.2c-9.7,9.9-22,17.1-34.9,22.1c-12.9,5-27,7.8-40.8,5.8
	c-0.1,0-0.1,0-0.2,0c-0.9-0.1-1.3-0.9-1.2-1.5c0.1-0.9,0.9-1.7,2-1.6c13.3,2,27-1,39.3-5.8c12.3-4.8,24.2-11.8,33.5-21.3
	c0.7-0.7,1.6-0.5,2.1,0C456.8,900.9,457.1,901.8,456.6,902.5z"/>
<path class="st4" d="M527.1,1093.4c0,4.9-1.1,9.5-5.7,12c-6,3.3-13.8,3-20.4,3.4c-19.2,1.2-38.2,3.9-57.4,3
	c-7.4-0.3-14.9-0.9-22.3-2.4c-5.5-1.1-12.2-2.5-14.7-8.1c-3.1-7-1.6-15.9-0.4-23.1c1.2-7.5,2.8-14.8,3-22.4
	c0.7-22.2-2.7-44.1-5.9-65.9c-0.8-5.3-1.5-10.5-2.2-15.8c0.5-0.3,1-0.6,1.5-0.9c0,0,0,0,0,0c1.5-0.4,3-1,4.4-1.8
	c0.5-0.3,1.1-0.6,1.6-0.9c0,0,0,0,0.1,0c4.7-1.6,9.7-2.5,14.4-3.1c8.3-1,17.1-1.1,25.3,0.6c4.8,1,11.8,1.9,13.9,7
	c1.2,2.8,1.6,6,2.2,9c1.1,5.6,1.7,11.3,2.3,16.9c0.8,8.6,2.3,17.1,4.5,25.5c1.9,7.5,4,14.8,9.3,20.7c1.5,1.7,3.5,3.4,6,3.3
	c2-0.1,3.7-1.4,5.4-2.3c6.4-3.2,15.1-1.1,20.5,3.3c6,4.8,9,12.4,11,19.5C525.3,1078.1,527,1085.9,527.1,1093.4z"/>
<path class="st1" d="M529.4,1084.4c-1.2-8-2.9-16.1-6.2-23.5c-3.1-6.8-8-12.8-15.1-15.6c-6.6-2.6-13.3-2.3-19.5,1
	c-2.2,1.2-3.3,1.1-5.1-0.8c-2.9-2.9-4.9-6.4-6.2-10.3c-2.9-8-4.9-16.6-6.1-25c-1.6-10.6-2-21.2-4.4-31.8c-0.9-3.9-2.1-6.9-4.8-9.1
	c-1-0.8-2.2-1.5-3.6-2.1c-0.1,0-0.2-0.1-0.3-0.1c-7.3-2.8-15.3-3.7-23-3.7c-3.5,0-7.1,0.1-10.6,0.5c-0.1,0-0.1,0-0.3,0
	c-5.3,0.5-10.5,1.5-15.5,3.2c-0.4,0.1-0.8,0.3-1.1,0.4c0,0,0,0,0,0c-2.1,0.7-4.1,1.5-6,2.5c-1,0.5-1.9,1-2.8,1.7h0
	c-0.5,0.2-0.9,0.6-0.9,1.3v0.1c2.8,23.1,7.5,46,8.2,69.4c0.3,9.7-0.2,18.9-1.8,28.4c-1.4,8.2-3.1,16.7-2.2,25
	c0.8,6.3,3.5,11.3,9.4,13.9c6.6,2.8,14,3.6,21,4.3c18.5,1.8,36.8,0.5,55.3-1.2c9.5-0.9,19.3-0.6,28.6-2.6c4.9-1,9.9-3.2,12.2-8
	C531.2,1097,530.3,1090.2,529.4,1084.4z M521.4,1105.4c-6,3.3-13.8,3-20.4,3.4c-19.2,1.2-38.2,3.9-57.4,3
	c-7.4-0.3-14.9-0.9-22.3-2.4c-5.5-1.1-12.2-2.5-14.7-8.1c-3.1-7-1.6-15.9-0.4-23.1c1.2-7.5,2.8-14.8,3-22.4
	c0.7-22.2-2.7-44.1-5.9-65.9c-0.8-5.3-1.5-10.5-2.2-15.8c0.5-0.3,1-0.6,1.5-0.9c0,0,0,0,0,0c1.9-1.1,3.9-1.9,5.9-2.7c0,0,0,0,0.1,0
	c4.7-1.6,9.7-2.5,14.4-3.1c8.3-1,17.1-1.1,25.3,0.6c4.8,1,11.8,1.9,13.9,7c1.2,2.8,1.6,6,2.2,9c1.1,5.6,1.7,11.3,2.3,16.9
	c0.8,8.6,2.3,17.1,4.5,25.5c1.9,7.5,4,14.8,9.3,20.7c1.5,1.7,3.5,3.4,6,3.3c2-0.1,3.7-1.4,5.4-2.3c6.4-3.2,15.1-1.1,20.5,3.3
	c6,4.8,9,12.4,11,19.5c2,7.2,3.7,15,3.7,22.5C527.1,1098.3,525.9,1103,521.4,1105.4z"/>
<path class="st4" d="M244.2,1103.5c-7.3,1.8-14.8,1.4-22.3,0.7c-7.7-0.7-15.3-1.5-23.1-1.3c-8.5,0.2-16.9,0.8-25.4,1.2
	c-8.2,0.4-16.4,0.4-24.6,0.4c-17,0.2-33.9,0.9-50.9,0.8c-7.8,0-15.6-0.4-23.3-0.6c-5.8-0.1-12.1,0.3-17.7-1.8
	c-13-4.8-8.9-22.6-5.3-32.3c3.9-10.7,10.7-22.7,22.6-25.8c10.1-2.6,20.8,1.4,30.8,3c10.7,1.7,21.1,0.6,29.8-6.3
	c11.2-8.9,18.4-22.3,25.4-34.4c4-6.9,6.8-13.6,8.3-21.4c1.3-6.8,2-13.8,4.2-20.4c10.2,4.9,22.7,4,34,2.9c4,0.1,8-0.1,12-0.5
	c2.4-0.2,5-0.5,7.6-0.9c2.5,0,5,0.2,7.4,0.7c3.3,0.7,5.5,2.2,5.8,5.8c0.3,4.3-0.9,8.7-1.6,12.9c-1,6.5-1.5,13-1.9,19.6
	c-1.1,16.4-1.8,32.8-1.1,49.2C235.7,1071.3,237.6,1088.3,244.2,1103.5z"/>
<path class="st1" d="M247.8,1103.7c-6.8-14.4-8.7-30.9-9.5-46.7c-0.9-16.6-0.2-33.2,0.9-49.8c0.4-6.7,0.8-13.5,1.9-20.2
	c0.7-4.4,1.9-9,1.7-13.4c-0.2-5.1-3.3-7.6-7.2-8.8c-3.1-1-6.8-1.1-10.1-1.1c0,0-0.1,0-0.1,0c-0.8,0-1.6,0-2.3,0
	c-5.8,0.1-11.6,0.8-17.4,1.2h0c-2.8,0.2-5.6,0.4-8.4,0.5c-7.8,0.3-16.2,0.1-23.4-3.3c0.1-1.2-1.3-1.8-2.4-1.3c0,0-0.1,0-0.1-0.1
	c-0.3-0.2-0.6-0.3-0.9-0.2c-1.3,0.1-2.1,2.1-0.7,3c0,0,0.1,0,0.1,0.1c-2.1,6-2.9,12.3-4,18.5c-1.4,7.8-3.6,14.8-7.6,21.7
	c-6.7,11.5-13.2,23.8-23,33c-4.4,4.1-9.6,7.1-15.6,8.2c-5.6,0.9-11.3,0.2-16.8-0.8c-10-1.9-20.7-5.3-30.8-2.2
	c-11.3,3.5-18.2,14.4-22.5,24.8c-4.2,10-8.5,25.1-0.6,34.5c3.4,4.1,8.6,5.5,13.8,6.1c6.5,0.7,13.1,0.5,19.6,0.8
	c17.4,0.6,34.9,0.1,52.3-0.2c17.4-0.4,34.6-0.5,52-1.4c8.2-0.4,16.4-0.9,24.6-0.2c8.1,0.7,16.3,2,24.5,1.6c3.7-0.2,7.4-0.8,11-1.9
	C247.9,1105.7,248.3,1104.7,247.8,1103.7z M222,1104.2c-7.7-0.7-15.3-1.5-23.1-1.3c-8.5,0.2-16.9,0.8-25.4,1.2
	c-8.2,0.4-16.4,0.4-24.6,0.4c-17,0.2-33.9,0.9-50.9,0.8c-7.8,0-15.6-0.4-23.3-0.6c-5.8-0.1-12.1,0.3-17.7-1.8
	c-13-4.8-8.9-22.6-5.3-32.3c3.9-10.7,10.7-22.7,22.6-25.8c10.1-2.6,20.8,1.4,30.8,3c10.7,1.7,21.1,0.6,29.8-6.3
	c11.2-8.9,18.4-22.3,25.4-34.4c4-6.9,6.8-13.6,8.3-21.4c1.3-6.8,2-13.8,4.2-20.4c10.2,4.9,22.7,4,34,2.9c2.5-0.3,5-0.5,7.4-0.7
	c3.9-0.3,8.1-0.8,12.2-0.7c2.5,0,5,0.2,7.4,0.7c3.3,0.7,5.5,2.2,5.8,5.8c0.3,4.3-0.9,8.7-1.6,12.9c-1,6.5-1.5,13-1.9,19.6
	c-1.1,16.4-1.8,32.8-1.1,49.2c0.7,16.3,2.6,33.4,9.2,48.5C237,1105.3,229.4,1104.9,222,1104.2z"/>
<path class="st1" d="M190.2,621C190.2,621,190.2,621,190.2,621c-0.1,0.5-0.5,0.8-1.1,1c-5.5,1.3-10.1,6.4-14,10.2
	c-4.6,4.6-8.9,9.6-13.2,14.6c-4.8,5.6-10.4,10.4-15.8,15.3c-5.2,4.8-10.4,9.8-13.7,16.1c-0.2,0.4-0.4,0.8-0.6,1.2
	c-0.4,0.9-1.3,1-2.1,0.6c-0.3-0.1-0.5-0.4-0.7-0.7c0,0,0,0,0,0c-0.2-0.4-0.2-0.9,0-1.4c0.3-0.7,0.7-1.4,1-2.1
	c3.4-6.1,8.6-11.2,13.7-15.9c5.6-5.1,11.2-10.1,16.2-15.8c4.6-5.3,9.1-10.5,14.1-15.4c3.9-3.8,8.6-8.5,14.1-9.8c0.1,0,0.2,0,0.3,0
	C189.7,618.7,190.4,620,190.2,621z"/>
<path class="st1" d="M377.4,605.1C377.4,605.1,377.4,605.1,377.4,605.1C377.4,605,377.5,605.1,377.4,605.1
	C377.5,605.1,377.5,605.1,377.4,605.1z"/>
<path class="st1" d="M410.1,640.5c0,0.4,0,0.9-0.1,1.3c-0.3,1.3-1.6,1.4-2.5,0.8c-0.5-0.3-0.8-0.9-0.6-1.6c0.5-2.7-1.9-6-3.6-8.2
	c-5-6.6-11.6-12-18-17.2c-2.6-2.1-5.2-4.1-7.7-6.2c-0.4-0.4-1-0.8-1.6-1.3c-0.9-0.7-1.6-1.6-1.4-2.7c0.3-1.3,1.6-1.4,2.5-0.8
	c0.1,0.1,0.2,0.2,0.3,0.3c0,0,0,0,0.1,0.1c0,0,0,0,0,0.1c0,0,0.1,0.1,0.1,0.2c0,0,0-0.1,0-0.1c0.1,0,0.2,0.2,0.3,0.2
	c0.3,0.3,0.7,0.6,1,0.9c1.1,0.9,2.2,1.8,3.4,2.7c6.3,5,12.7,10.1,18.4,15.9c2.7,2.7,5.3,5.6,7.4,8.9
	C409.1,635.8,410.1,638.1,410.1,640.5z"/>
<path class="st1" d="M290.6,667.9c-8.1,16.6-25.5,24.8-42.2,30.3c-8.7,2.9-17.9,5.1-27.1,5.2c-7.3,0.1-15-1.3-20.3-6.5
	c-0.7-0.7,0.4-1.8,1.1-1.1c6.1,6,15.4,6.5,23.4,5.9c15.6-1.3,31.9-7.1,45.4-15.1c17.6-10.5,27.7-31.6,18.8-51.2
	c-0.4-0.9,1-1.8,1.4-0.8C296,645.4,295.8,657.3,290.6,667.9z"/>
<path class="st1" d="M265.2,730.9c-3.8,3-9.9,3.1-14.6,3.4c-6.5,0.4-13.1,0.2-19.6-0.2c-0.9-0.1-1.2-1.3-0.2-1.6c0.1,0,0.1,0,0.2,0
	c8.4-2,16.5-6.3,17.9-15.4c-20.3,5.5-40.5,12.8-61.9,12.5c-1,0-1-1.6,0-1.6c21.6,0.3,42-7.2,62.6-12.8c0.5-0.1,1.1,0.3,1,0.8
	c-0.9,9-7.2,14-15,16.7c4.3,0.2,8.5,0.2,12.8,0.1c3-0.1,6-0.3,9-0.8c2.2-0.4,4.8-0.8,6.5-2.2C264.8,729.1,266,730.2,265.2,730.9z"/>
<path class="st1" d="M364.6,802.2c-27.4-9.7-37.4-39.8-55.3-60c-0.7-0.8,0.4-1.9,1.1-1.1C328,761,338,791.1,365,800.6
	C366,801,365.5,802.5,364.6,802.2z"/>
<path class="st1" d="M409.4,904.3c-4.9,3.8-13.4,2.4-19,1.6c-6.6-1-13.6-2.4-19.6-5.2c-0.9-0.4-0.1-1.8,0.8-1.4
	c6.9,3.2,15.3,4.8,22.9,5.5c3.7,0.3,7.9,0.6,11.5-0.6c3.7-1.2,4.9-4.2,4.6-7.9c-0.6-8-5.2-15.6-8.7-22.6
	c-4.8-9.8-8.6-20.2-12.5-30.3c-9.3-23.7-17.8-47.8-26.4-71.7c-4.2-11.7-8.8-23.2-12.5-35c-3.5-11.4-6.1-23-8.4-34.7
	c-4.6-23-8.4-46.4-16.9-68.4c-0.4-1,1.2-1.4,1.5-0.4c10.1,25.9,13.5,53.7,19.5,80.7c5.6,25.2,15.4,49.3,24.1,73.6
	c9,25.1,18.1,50.2,28.3,74.9c3.4,8.2,7.8,16,11,24.3C411.6,891.6,414.7,900.3,409.4,904.3z"/>
<path class="st1" d="M212.3,774.5c-1.5,19.3-5.3,38.4-5.6,57.7c-0.4,21,2.7,41.9,2.2,62.9c0,1-1.6,1-1.6,0
	c0.3-11.9-0.5-23.7-1.2-35.5c-0.7-10.5-1.2-21-0.8-31.5c0.4-9.5,1.6-19,2.8-28.4c2.3-18.6,4.9-37.7,2.5-56.4c-0.1-1,1.5-1,1.6,0
	C213.4,753.6,213.1,764.1,212.3,774.5z"/>
<path class="st5" d="M462.1,943.1c-0.6-5-2-9.9-2.7-15c-1.2-8.5-1.8-17.1-2.9-25.6c-0.1,0.1-0.1,0.1-0.2,0.2
	c-9.7,9.9-22,17.1-34.9,22.1c-12.9,5-27,7.8-40.8,5.8c1.2,1.4,2.2,3,3,4.6c2,4.2,2.8,8.9,3.5,13.4c0.8,4.8,1.2,10,3.5,14.3
	c2,3.9,6.2,7.9,10.8,7.1c1.9-1,3.9-1.9,6-2.5c0,0,0,0,0,0c2.2-1.3,4.2-2.7,6.4-3.7c3.7-1.7,7.7-2.7,11.7-3.3
	c7.3-1,14.6-0.6,21.9-0.9c5-0.1,11.5-0.6,13.9-5.8C462.8,950.5,462.6,946.6,462.1,943.1z M455.5,936.3c-15.4,4.6-31.1,8-47.1,9.7
	c-1,0.1-1-1.5,0-1.6c15.9-1.7,31.4-5.1,46.6-9.7C456.1,934.5,456.5,936,455.5,936.3z"/>
<path class="st1" d="M455.5,936.3c-15.4,4.6-31.1,8-47.1,9.7c-1,0.1-1-1.5,0-1.6c15.9-1.7,31.4-5.1,46.6-9.7
	C456.1,934.5,456.5,936,455.5,936.3z"/>
<path class="st5" d="M455.3,894.3c-0.9-4.9-2.1-9.8-4.4-14.3c-2.4-4.8-6-8.7-9.5-12.7c-3.6-4.1-7.3-8.3-9.9-13.2
	c-3.3-6-5.5-12.7-8.1-19c-5-12.6-10.5-24.9-15.3-37.6c-9.5-25.2-17.2-51.2-23.8-77.3c-1.6-6.4-3.1-12.7-4.5-19.1
	c-1.3-5.7-2.9-11.5-3.6-17.3c-0.6-5-0.1-10.1,0-15.1c0.1-2.8,1.9-9.5,1.5-13.7c-2.8-2.3-5-5.6-7-8.6c-3.9-5.7-6.4-12.4-13.5-14.6
	c-12.3-3.9-26-3.4-38.6-2.1c-14,1.4-27.8,4.4-41.8,5.4c-12,0.8-23.9-1.8-35.8-3c-9.7-1-22.3-2.1-30.6,4.1c-6.6,4.8-10.5,12.8-14,20
	c-4,8.1-7.4,16.6-12,24.3c-2.1,3.5-4.5,6.9-7.4,9.9c-2.5,2.6-5.6,4.7-8.5,6.8c-3.6,2.6-7.2,5.2-10.8,7.8c-1.5,1.1-3.1,2.2-4.5,3.4
	c-0.1,0.1-0.2,0.2-0.4,0.3c-0.1,0.1-0.2,0.1-0.3,0.2c0,0-0.1,0-0.1,0.1c-0.2,0.1-0.4,0.3-0.6,0.5c-0.2,0.2-0.6,0.8-0.4,0.3
	c0,0.1-0.1,0.3-0.2,0.4c0.1,0.1,0.1,0.2,0.2,0.4c3.1,10,4.3,20.5,4.8,30.9c1,23.6-1.7,47.3-0.3,70.8c0.7,12.5,2.3,24.8,1,37.4
	c-0.6,6-1.8,12-3.6,17.8c-1.5,5-3.8,9.7-5.4,14.6c-1,3.1-0.1,5.5,1.4,8.3c0.2,0.4,0.4,0.9,0.7,1.3c0.2-1.2,1.6-2.1,2.6-0.9
	c6,7,13.2,12.8,21.4,17.1c28.1,15,65.8,13.4,91.4-6.1c1.6-1.2,3.3,1.5,1.6,2.8c-7.4,5.6-15.7,9.7-24.6,12.4
	c-31.3,9.6-69,2.1-91.2-23c2.1,3.7,4.3,7.4,6,11.3c4.5,9.8,5.2,20,6,30.6c0.5,5.9,0.7,12.9,4.4,17.9c4.4,5.8,12.7,7.6,19.4,9
	c6.1,1.3,12.3,1.9,18.6,2.1h0c5.8-0.5,11.6-1.1,17.4-1.2c0.7,0,1.5,0,2.3,0c0,0,0,0,0.1,0c7.6-1.2,15.9-3.3,21.2-8.4
	c5.8-5.5,9.9-13,13.4-20c3.8-7.6,7.1-15.6,8.8-23.9c0.6-2.9,1-6.1,0.3-8.9c-1.1-4.5-4.7-8-7.9-11.2c-3.1-3.2-6.4-6.5-8.4-10.5
	c-2.8-5.5-3.2-11.9-2.9-17.9c0.3-6.9,1.4-13.8,2.1-20.6c0.6-6.2,1.2-12.5,1.8-18.8c1.3-13.2,2.6-26.5,4.4-39.6
	c1.8-13,4.1-25.9,7.3-38.6c1.6-6.4,3.5-12.7,5.7-18.9c1.3-3.6,2.7-7.4,5.1-10.5c8.7-11.2,15.3,10,17,15.7c1.9,6.6,3.4,13.4,5.1,20.1
	c2.7,11.3,5.9,22.5,8.8,33.7c6.6,26.6,11.7,54.2,22.5,79.5c5.1,11.8,11.7,23.2,18.7,33.8c3.4,5,6.9,9.9,11.4,14
	c4.3,3.8,9,7.1,13.4,10.8c2,1.7,4.1,3.6,6,5.6c0.1-0.9,0.9-1.7,2-1.6c13.3,2,27-1,39.3-5.8c12.3-4.8,24.2-11.8,33.5-21.3
	c0.7-0.7,1.6-0.5,2.1,0C456,898.4,455.6,896.3,455.3,894.3z M247.4,931.2c-3.4,3.7-8.1,5.8-12.9,7.1c-10.6,2.8-22.1,2-32.8,0.1
	c-9.6-1.7-20-4.5-28-10.3c-0.8-0.6,0-2,0.8-1.4c10,7.3,23.9,10.1,36,11.3c11.4,1.1,27.3,1.3,35.8-7.9
	C247,929.4,248.1,930.5,247.4,931.2z M212.3,774.5c-1.5,19.3-5.3,38.4-5.6,57.7c-0.4,21,2.7,41.9,2.2,62.9c0,1-1.6,1-1.6,0
	c0.3-11.9-0.5-23.7-1.2-35.5c-0.7-10.5-1.2-21-0.8-31.5c0.4-9.5,1.6-19,2.8-28.4c2.3-18.6,4.9-37.7,2.5-56.4c-0.1-1,1.5-1,1.6,0
	C213.4,753.6,213.1,764.1,212.3,774.5z M265.2,730.9c-3.8,3-9.9,3.1-14.6,3.4c-6.5,0.4-13.1,0.2-19.6-0.2c-0.9-0.1-1.2-1.3-0.2-1.6
	c0.1,0,0.1,0,0.2,0c8.4-2,16.5-6.3,17.9-15.4c-20.3,5.5-40.5,12.8-61.9,12.5c-1,0-1-1.6,0-1.6c21.6,0.3,42-7.2,62.6-12.8
	c0.5-0.1,1.1,0.3,1,0.8c-0.9,9-7.2,14-15,16.7c4.3,0.2,8.5,0.2,12.8,0.1c3-0.1,6-0.3,9-0.8c2.2-0.4,4.8-0.8,6.5-2.2
	C264.8,729.1,266,730.2,265.2,730.9z M290.6,667.9c-8.1,16.6-25.5,24.8-42.2,30.3c-8.7,2.9-17.9,5.1-27.1,5.2
	c-7.3,0.1-15-1.3-20.3-6.5c-0.7-0.7,0.4-1.8,1.1-1.1c6.1,6,15.4,6.5,23.4,5.9c15.6-1.3,31.9-7.1,45.4-15.1
	c17.6-10.5,27.7-31.6,18.8-51.2c-0.4-0.9,1-1.8,1.4-0.8C296,645.4,295.8,657.3,290.6,667.9z M364.6,802.2
	c-27.4-9.7-37.4-39.8-55.3-60c-0.7-0.8,0.4-1.9,1.1-1.1C328,761,338,791.1,365,800.6C366,801,365.5,802.5,364.6,802.2z M409.4,904.3
	c-4.9,3.8-13.4,2.4-19,1.6c-6.6-1-13.6-2.4-19.6-5.2c-0.9-0.4-0.1-1.8,0.8-1.4c6.9,3.2,15.3,4.8,22.9,5.5c3.7,0.3,7.9,0.6,11.5-0.6
	c3.7-1.2,4.9-4.2,4.6-7.9c-0.6-8-5.2-15.6-8.7-22.6c-4.8-9.8-8.6-20.2-12.5-30.3c-9.3-23.7-17.8-47.8-26.4-71.7
	c-4.2-11.7-8.8-23.2-12.5-35c-3.5-11.4-6.1-23-8.4-34.7c-4.6-23-8.4-46.4-16.9-68.4c-0.4-1,1.2-1.4,1.5-0.4
	c10.1,25.9,13.5,53.7,19.5,80.7c5.6,25.2,15.4,49.3,24.1,73.6c9,25.1,18.1,50.2,28.3,74.9c3.4,8.2,7.8,16,11,24.3
	C411.6,891.6,414.7,900.3,409.4,904.3z"/>
<path class="st1" d="M247.4,931.2c-3.4,3.7-8.1,5.8-12.9,7.1c-10.6,2.8-22.1,2-32.8,0.1c-9.6-1.7-20-4.5-28-10.3
	c-0.8-0.6,0-2,0.8-1.4c10,7.3,23.9,10.1,36,11.3c11.4,1.1,27.3,1.3,35.8-7.9C247,929.4,248.1,930.5,247.4,931.2z"/>
<path class="st1" d="M157,520.7c-0.3,0.4-0.6,0.8-0.9,1.2c-7.2,9-19.4,13.9-29.9,17.6c-12.5,4.4-26,7.6-39.3,7.5c-1,0-1-1.6,0-1.6
	c12.7,0.1,25.5-2.9,37.5-6.9c10.9-3.7,24.2-8.8,31.3-18.5c0.1-0.2,0.3-0.3,0.5-0.3C156.8,519.4,157.5,520,157,520.7z"/>
<path class="st1" d="M155.1,503.2c-10.4,4.6-22.4,6.4-33.7,6.5c-10.3,0.1-23.3-1.2-30.3-9.9c-0.6-0.8,0.5-1.9,1.1-1.1
	c6.8,8.5,19.8,9.6,29.8,9.4c10.8-0.2,22.3-1.9,32.2-6.3C155.2,501.4,156.1,502.8,155.1,503.2z"/>
<path class="st1" d="M155.6,475.4c-5.3-7.2-9.3-15.2-14.7-22.3c-5-6.6-12.4-14.6-21.6-12.9c-1,0.2-1.5-1.4-0.4-1.5
	c3.6-0.7,7.1-0.1,10.4,1.6c6.7,3.3,11.5,9.8,15.7,15.8c4.2,6.1,7.6,12.6,12,18.5C157.6,475.4,156.3,476.3,155.6,475.4z"/>
<path class="st1" d="M156.9,580.6c-6.7,7.9-13.5,15.9-21.4,22.6c-7.7,6.5-16.3,11.5-25.8,14.8c-1,0.3-1.4-1.2-0.4-1.6
	c9.7-3.4,18.4-8.5,26.1-15.2c7.5-6.5,14-14.1,20.4-21.7C156.4,578.7,157.6,579.8,156.9,580.6z"/>
<path class="st1" d="M454.1,501.6c-11.9,9.1-29.1,13.7-43.8,9.9c-0.2,0-0.3-0.1-0.5-0.1c-1-0.3-0.6-1.8,0.4-1.6
	c0.3,0.1,0.5,0.1,0.7,0.2c14.3,3.6,30.8-1,42.3-9.8C454.1,499.6,454.9,500.9,454.1,501.6z"/>
<path class="st1" d="M449.6,447.5c-1.9,16.6-13.6,30-27.9,37.9c-0.3,0.1-0.5,0.1-0.7,0c-0.5-0.3-0.7-1.1,0-1.4
	c0.2-0.1,0.4-0.2,0.6-0.4c13.4-7.6,24.6-20.3,26.4-36.1C448.1,446.5,449.7,446.5,449.6,447.5z"/>
<path class="st1" d="M451.2,407.4c-2.2,12.2-11.6,20.8-17.9,30.9c-0.1,0.2-0.4,0.4-0.6,0.4c-0.6,0-1.2-0.6-0.8-1.2
	c0.5-0.9,1.1-1.7,1.7-2.5c6.1-8.9,14.1-17,16-28C449.8,405.9,451.4,406.3,451.2,407.4z"/>
<path class="st6" d="M482.6,493.6c-3.7-12.7-6.9-25.2-9.1-38.3c-2.3-14-3.9-28.1-6.2-42.2c-1.8-10.9-3.9-21.8-6-32.7
	c-2-10-4.4-20.2-9.3-29.3c-2.4-4.5-5.4-8.7-9.1-12.2c-3.8-3.6-8.4-6.6-12.7-9.6c-9.8-6.7-20-13-30.5-18.7c-0.9-0.5-1.8-0.9-2.6-1.4
	c0,0-0.1,0.1-0.1,0.1c-1.2,1.7-4,0.1-2.8-1.6c0,0,0,0,0,0c-8.8-4.6-17.9-8.7-27.4-11.4c-12.9-3.7-26.4-5-39.9-4.8
	c-14,0.2-27.9,1.7-41.9,1.9c-14,0.3-28,0.3-41.8,2.1c-13.6,1.7-26.8,5.6-39.8,9.9c-6.1,2-12.2,4.1-18.3,6.1
	c-5.6,1.8-11.3,3.2-16.8,5c-10.7,3.4-20.9,8.3-30.3,14.4c-9.2,6-18.2,13.5-23.8,23c-5.8,9.8-7.8,21.3-9.7,32.4
	c-1,5.7-1.9,11.3-3.1,16.9c-1.4,6.1-3.5,12-5.6,18c-4.5,12.7-9.5,25.1-13.8,37.9c-4.1,12.2-6.9,24.7-10.8,37
	c-3.7,11.7-7.8,23.3-10.2,35.3c-2.4,12.2-2.1,23.9,2,35.6c4.2,11.9,10.9,22.8,17.2,33.7c5.5,9.7,10.2,19.5,14.2,29.8
	c3.7,9.6,7.5,19.3,14.5,27.1c3.9,4.3,8.5,7.4,13.1,10.8c2.9,2.2,5.6,4.6,8.2,7.2c3.4-6.1,8.6-11.2,13.7-15.9
	c5.6-5.1,11.2-10.1,16.2-15.8c4.6-5.3,9.1-10.5,14.1-15.4c3.9-3.8,8.6-8.5,14.1-9.8c0.1,0,0.2,0,0.3,0c-4.9-6.3-9.3-13-13.2-20
	c-7.1-12.7-12.6-26.3-15.9-40.5c-2.8-12-3.5-24.3-3.3-36.6c-7.2,9-19.4,13.9-29.9,17.6c-12.5,4.4-26,7.6-39.3,7.5c-1,0-1-1.6,0-1.6
	c12.7,0.1,25.5-2.9,37.5-6.9c10.9-3.7,24.2-8.8,31.3-18.5c0.1-0.2,0.3-0.3,0.5-0.3c0-2.3,0.1-4.6,0.2-6.9c1.2-32,5.5-64.8-7.9-95
	c-0.8-1.9,1.9-3.5,2.8-1.6c7.1,16.1,9.8,33.3,10.1,50.8c0.4,31.1-5.8,62.6,1.8,93.3c7.1,28.3,22.9,54.3,43.7,74.7
	c5.8-4.8,13.1-6.3,20.8-6.5c12-0.4,23.9,2.2,35.9,3.3c13.1,1.2,25.8-1.1,38.7-3c13.2-1.9,26.5-3.7,39.9-2.6c5.3,0.4,10.9,1.2,16,2.9
	c1.4,0.4,2.7,1,3.9,1.7c0.4-0.3,1-0.4,1.5-0.2c0.2-0.7,0.6-1.5,0.8-2.1c0.6-1.6,1.1-3.2,1.6-4.8c1.6-4.4,3.9-8.6,5.7-13
	c4-10.1,5.1-20.9,7.6-31.4c8.1-35.1,29.7-65.1,40.3-99.4c2.8-9,4.5-18.3,6.7-27.5c2.3-9.8,4.7-19.6,6.8-29.4c4.3-20,7.4-40.3,6-60.7
	c-0.1-2.1,3.1-2.1,3.2,0c1.6,24-2.9,47.8-8.3,71.1c-0.1,0.6-0.3,1.3-0.4,1.9c6.1-8.9,14.1-17,16-28c0.2-1,1.7-0.6,1.5,0.4
	c-2.2,12.2-11.6,20.8-17.9,30.9c-0.1,0.2-0.4,0.4-0.6,0.4c-2,8.7-4.2,17.4-6.1,26.1c-1.4,6.4-3.1,12.7-5.1,18.9
	c13.4-7.6,24.6-20.3,26.4-36.1c0.1-1,1.7-1,1.6,0c-1.9,16.6-13.6,30-27.9,37.9c-0.3,0.1-0.5,0.1-0.7,0c-0.8,2.3-1.6,4.6-2.5,6.9
	c-2.3,5.9-4.8,11.8-7.5,17.6c14.3,3.6,30.8-1,42.3-9.8c0.8-0.6,1.6,0.8,0.8,1.4c-11.9,9.1-29.1,13.7-43.8,9.9
	c-5,10.9-10.4,21.7-15.3,32.6c-3.9,8.8-7.6,17.7-10.3,27c-2.9,9.7-4.2,19.8-6.5,29.6c-0.3,1.3-0.7,2.7-1.1,4
	c0.1,0.1,0.2,0.2,0.3,0.3c0,0,0,0,0.1,0.1c0,0,0.1,0,0.1,0.1c0.1,0,0.2,0.2,0.3,0.2c0.3,0.3,0.7,0.6,1,0.9c1.1,0.9,2.2,1.8,3.4,2.7
	c6.3,5,12.7,10.1,18.4,15.9c2.7,2.7,5.3,5.6,7.4,8.9c1.2,2,2.3,4.3,2.2,6.7c15.5-13.1,27.5-30.2,40.2-45.9
	c7.7-9.5,15.6-18.9,22.3-29.1c6.6-9.9,12.5-20.8,14.6-32.7C489.5,519.6,486.2,506.3,482.6,493.6z M109.3,616.4
	c9.7-3.4,18.4-8.5,26.1-15.2c7.5-6.5,14-14.1,20.4-21.7c0.7-0.8,1.8,0.4,1.1,1.1c-6.7,7.9-13.5,15.9-21.4,22.6
	c-7.7,6.5-16.3,11.5-25.8,14.8C108.7,618.3,108.3,616.8,109.3,616.4z M155.1,503.2c-10.4,4.6-22.4,6.4-33.7,6.5
	c-10.3,0.1-23.3-1.2-30.3-9.9c-0.6-0.8,0.5-1.9,1.1-1.1c6.8,8.5,19.8,9.6,29.8,9.4c10.8-0.2,22.3-1.9,32.2-6.3
	C155.2,501.4,156.1,502.8,155.1,503.2z M157,474.6c0.6,0.8-0.8,1.6-1.4,0.8c-5.3-7.2-9.3-15.2-14.7-22.3c-5-6.6-12.4-14.6-21.6-12.9
	c-1,0.2-1.5-1.4-0.4-1.5c3.6-0.7,7.1-0.1,10.4,1.6c6.7,3.3,11.5,9.8,15.7,15.8C149.2,462.2,152.7,468.7,157,474.6z M292.9,400.5
	c-0.2,16.2-0.7,32.2-2.3,48.4c-1.5,15.3-3.2,30.4-3.6,45.7c-0.3,13.1-0.5,26.9-5.7,39.1c-0.4,0.9-1.8,0.1-1.4-0.8
	c6-14.1,5.2-30.4,5.6-45.4c0.5-15.3,2.7-30.4,4-45.7c1.3-15.5,1.5-30.9,1.6-46.5c0.3-28.2,1.1-58.2-9.8-84.8
	c-0.4-0.9,1.2-1.4,1.5-0.4c6,14.7,8.3,30.6,9.3,46.3C293.3,371,293.1,385.8,292.9,400.5z"/>
<path class="st1" d="M292.9,400.5c-0.2,16.2-0.7,32.2-2.3,48.4c-1.5,15.3-3.2,30.4-3.6,45.7c-0.3,13.1-0.5,26.9-5.7,39.1
	c-0.4,0.9-1.8,0.1-1.4-0.8c6-14.1,5.2-30.4,5.6-45.4c0.5-15.3,2.7-30.4,4-45.7c1.3-15.5,1.5-30.9,1.6-46.5
	c0.3-28.2,1.1-58.2-9.8-84.8c-0.4-0.9,1.2-1.4,1.5-0.4c6,14.7,8.3,30.6,9.3,46.3C293.3,371,293.1,385.8,292.9,400.5z"/>
<path class="st1" d="M458,967.2c-7.3-2.8-15.3-3.7-23-3.7c-3.5,0-7.1,0.1-10.6,0.5c2.4-0.4,4.8-0.7,7.2-0.8c7-0.4,14.1,0.3,21-0.6
	c1.9-0.3,3.8-0.7,5.5-1.5c-0.1,0.8-0.2,1.7-0.2,2.5C457.8,964.7,457.8,966,458,967.2z"/>
<path class="st1" d="M462.4,958c0,0.3-0.1,0.5-0.2,0.7c-0.1,0.2-0.2,0.3-0.3,0.5v0c0,0,0,0,0,0c0,0,0,0,0,0c0,0.1-0.1,0.2-0.1,0.3
	c-0.1,0.4-0.3,0.9-0.4,1.3c-0.1,0.3-0.1,0.5-0.1,0.8c0,0.1,0,0.2,0,0.3c0,0,0,0.1,0,0.1c0,0.5-0.1,1-0.1,1.5c0,0.5,0,1,0,1.5
	c0,0.3,0,0.5,0,0.8c0,0.1,0,0.3,0,0.4c0,0,0,0.1,0,0.1c0,0.1,0,0.1,0,0.1c0.1,0.8,0.3,1.6,0.6,2.4c0.1,0.1,0.1,0.3,0.1,0.4
	c0,0.7-0.6,1.4-1.2,1.6c-0.9,0.3-1.6-0.3-2-1.1s-0.6-1.7-0.7-2.6c-0.2-1.2-0.2-2.5-0.1-3.7c0-0.8,0.1-1.6,0.2-2.5
	c0.2-1.4,0.6-2.7,1.3-3.9c0.4-0.7,1.4-1,2.2-0.6C462.1,956.8,462.4,957.4,462.4,958z"/>
<g>
	<circle class="st7" cx="291.4" cy="403.4" r="76.4"/>
	<path class="st8" d="M332.9,384c3.6,0.1,5.8,1.3,6.7,3.5c1,1.5,1.4,6.5,1.3,14.9c0,1,0,3.5,0.1,7.8c-0.1,5.8-0.1,9.2-0.1,10
		c0,1.8-0.9,2.6-2.6,2.5l-0.5,0c-2-0.1-3.2-0.5-3.6-1.4c-0.2,0-0.3-1.2-0.4-3.5c0.1-1.7,0.1-2.8,0.1-3.3c0-0.7-0.6-1.2-1.8-1.3
		l-0.1,0c-1.9-0.1-3,0.2-3.3,0.7c-0.2,0.3-0.3,0.7-0.3,1.2l-0.1,5.1c0,1.8-1,2.7-2.9,2.6c-0.7,0-1.3,0-1.8,0c-1.3-0.1-2-0.9-1.9-2.4
		v-0.6c-0.2-5.6-0.3-11.7-0.4-18.3c0,0-0.1-1.1-0.1-3.3c0.2-3.5,0.4-5.9,0.7-7.2c0.8-2.8,2-4.6,3.5-5.5
		C327.1,384.4,329.6,383.9,332.9,384z M328.6,396.9v0.3c0,0.5,0,2.8,0.2,6.7c-0.1,0.4-0.1,1-0.1,1.8c0,1.3,0.6,1.9,1.8,2h0.2
		c2.4,0.1,3.5-0.4,3.6-1.5v-0.3c0-1.4,0-2.8,0-4.3c0.1-1.1,0.1-2.7,0.2-4.6c0-2.4-0.4-4.1-1.2-5.3c-0.3-0.4-0.8-0.6-1.6-0.5
		C329.6,391.2,328.7,393.1,328.6,396.9z"/>
	<circle class="st8" cx="286.9" cy="341.6" r="0.9"/>
	<circle class="st8" cx="295.7" cy="342.8" r="0.9"/>
	<circle class="st8" cx="307.3" cy="358.3" r="0.9"/>
	<circle class="st8" cx="244" cy="438.3" r="0.9"/>
	<circle class="st8" cx="246.2" cy="445.1" r="0.9"/>
	<circle class="st8" cx="235.6" cy="439.3" r="0.6"/>
	<circle class="st8" cx="270.4" cy="452.7" r="0.6"/>
	<circle class="st8" cx="325.1" cy="441.4" r="0.6"/>
	<circle class="st8" cx="340.9" cy="424.2" r="0.6"/>
	<circle class="st8" cx="263.1" cy="363.3" r="0.6"/>
	<circle class="st8" cx="280.6" cy="350.5" r="0.6"/>
	<circle class="st8" cx="278.7" cy="349.2" r="0.6"/>
	<circle class="st8" cx="277" cy="348" r="0.6"/>
	<circle class="st8" cx="265.8" cy="366.6" r="0.6"/>
	<circle class="st8" cx="291.6" cy="333.2" r="0.6"/>
	<circle class="st8" cx="295.8" cy="351.7" r="0.6"/>
	<circle class="st8" cx="289.1" cy="348.1" r="0.6"/>
	<circle class="st8" cx="277.7" cy="353" r="0.6"/>
	<circle class="st8" cx="328.1" cy="458.3" r="0.6"/>
	<circle class="st8" cx="242.9" cy="442.6" r="0.6"/>
	<circle class="st8" cx="287.5" cy="450.9" r="0.6"/>
	<circle class="st8" cx="256.2" cy="442.1" r="0.6"/>
	<circle class="st8" cx="261.7" cy="451.1" r="0.6"/>
	<circle class="st8" cx="302.6" cy="445.4" r="0.6"/>
	<circle class="st8" cx="325.2" cy="432.7" r="0.6"/>
	<circle class="st8" cx="342.3" cy="440.5" r="0.6"/>
	<circle class="st8" cx="348.1" cy="444.3" r="0.6"/>
	<circle class="st8" cx="349" cy="434.1" r="0.6"/>
	<circle class="st8" cx="264.1" cy="419.7" r="0.6"/>
	<circle class="st8" cx="264.3" cy="434.4" r="0.9"/>
	<circle class="st8" cx="269.4" cy="445.3" r="0.9"/>
	<circle class="st8" cx="331" cy="434" r="0.9"/>
	<circle class="st8" cx="353.2" cy="432.7" r="0.9"/>
	<circle class="st8" cx="342.2" cy="428" r="0.9"/>
	<circle class="st8" cx="331" cy="428.5" r="0.9"/>
	<path class="st8" d="M307.9,341.1l2.1-0.2l-2.1-0.1c-0.1-0.4-0.4-0.7-0.8-0.8l-0.2-2.1l-0.1,2.1c-0.4,0.1-0.7,0.4-0.7,0.8l-2.2,0.2
		l2.2,0.1c0.1,0.4,0.4,0.7,0.8,0.7l0.2,2.2l0.1-2.2C307.5,341.8,307.8,341.5,307.9,341.1z"/>
	<path class="st8" d="M272,364.8l2.1-0.2l-2.1-0.1c-0.1-0.4-0.4-0.7-0.8-0.8l-0.2-2.1l-0.1,2.1c-0.4,0.1-0.7,0.4-0.7,0.8l-2.2,0.2
		l2.2,0.1c0.1,0.4,0.4,0.7,0.8,0.7l0.2,2.2l0.1-2.2C271.6,365.5,271.9,365.2,272,364.8z"/>
	<path class="st8" d="M351.6,427.5l2.1-0.2l-2.1-0.1c-0.1-0.4-0.4-0.7-0.8-0.8l-0.2-2.1l-0.1,2.1c-0.4,0.1-0.7,0.4-0.7,0.8l-2.2,0.2
		l2.2,0.1c0.1,0.4,0.4,0.7,0.8,0.7l0.2,2.2l0.1-2.2C351.2,428.2,351.5,427.9,351.6,427.5z"/>
	<path class="st8" d="M264.8,460.3l2.1-0.2l-2.1-0.1c-0.1-0.4-0.4-0.7-0.8-0.8l-0.2-2.1l-0.1,2.1c-0.4,0.1-0.7,0.4-0.7,0.8l-2.2,0.2
		l2.2,0.1c0.1,0.4,0.4,0.7,0.8,0.7l0.2,2.2l0.1-2.2C264.4,461,264.7,460.7,264.8,460.3z"/>
	<path class="st8" d="M344.8,444.3l2.1-0.2l-2.1-0.1c-0.1-0.4-0.4-0.7-0.8-0.8l-0.2-2.1l-0.1,2.1c-0.4,0.1-0.7,0.4-0.7,0.8l-2.2,0.2
		l2.2,0.1c0.1,0.4,0.4,0.7,0.8,0.7l0.2,2.2l0.1-2.2C344.5,445,344.8,444.7,344.8,444.3z"/>
	<path class="st9" d="M309.6,385.1c-8.9,3.5-17.5,6.5-24.9,8.8c-14.9,4.7-55.5,17.2-80.1,33.1l2.1,0.8c15-8.5,24.7-11.1,34-14
		c10.2-3.2,43-10.9,57.9-15.1c5-1.4,10.9-3.3,17.2-5.5c-1.5-2-3-4.1-4.6-6.1C310.6,386.4,310.1,385.7,309.6,385.1z"/>
	<path class="st8" d="M302.2,383.9c1.6,0,2.4,1,2.4,2.9c0.1,3.5,0.2,5.6,0.2,6.2v1.3c0,1.2,0.2,1.8,0.6,1.8c0.7-0.4,1.7-2.5,3-6.3
		c1.5-3.7,2.7-5.5,3.7-5.5c0.3-0.1,0.6-0.1,0.9-0.1h2.8c1.3,0,2,0.4,2,1.1v0.2c0,0.5-1.3,3.3-3.9,8.6c-1,1.5-2.1,3.9-3.4,7.1
		c-0.1,0.3-0.1,0.6-0.1,0.7c0,0.9,1.3,4.5,4,10.8c1.8,4.1,2.7,6.6,2.7,7.4c0,1.2-1.1,2-3.4,2.4h-0.5c-1.3,0-2.6-1.9-4-5.8
		c-1.3-3.2-2.3-5.4-3.1-6.6l-0.5-0.3h-0.2c-0.7,0-1.1,1.3-1.1,4c0,5.6-0.2,8.3-0.7,8.3c-0.4,0.5-2,0.7-4.8,0.7
		c-1.7,0-2.5-0.9-2.5-2.6v-0.7c0-5.1-0.1-8.7-0.4-10.8c0.1-4.1,0.2-7.2,0.3-9.3c0-2.2-0.1-6.6-0.3-13.3c0.3-1.2,0.9-1.8,1.8-1.8
		C298.7,384.1,300.2,384.1,302.2,383.9z"/>
	<path class="st9" d="M320.4,400c-2.2,1.5-4,2.6-5.2,3.3c-7.3,4.2-42.9,28.6-51.1,34.2c-8.1,5.6-30.6,26.8-37.2,33l-0.2,2.5
		c21.4-19.2,28.1-23.9,36.6-30.4c10.5-8,32.2-22.8,39.6-27.5c7.1-4.5,13.4-8.7,19.1-12.5c-0.1-0.2-0.2-0.3-0.3-0.5
		C321.3,401.4,320.9,400.7,320.4,400z"/>
	<path class="st8" d="M241.5,383.8h1.8c1.1,0,1.8,0.5,2.1,1.4l0.4,7.2c0,0.8-0.2,4.2-0.5,10.3c0.1,3.3,0.3,6.2,0.5,8.7
		c-0.1,1.3-0.1,2.3-0.1,3.1c0,0.7,0.5,1.1,1.4,1.3c1.5-0.1,2.3-0.1,2.4-0.2c0.9,0.1,1.7,0.1,2.3,0.1h2.7c1.3,0,2,0.5,2.3,1.4
		c0.1,0,0.2,1.1,0.4,3.4v0.2c0,1.3-0.8,1.9-2.4,1.9H253c-2.9,0-5.8,0-8.7,0.1c-1.1-0.1-2.8-0.1-5-0.1c-1.1,0-1.8-0.9-2-2.8v-0.5
		c0.1-9.4,0.3-17.5,0.5-24.2c-0.1-1.1-0.1-2.4-0.1-3.7c0-4.5,0.3-6.8,0.8-6.8C238.6,384.2,239.6,384,241.5,383.8z"/>
	<path class="st8" d="M289.2,384c2.2,0,3.3,0.7,3.3,2c-0.1,2.1-0.1,3.5-0.1,4.1c0,2.1,0,3.6,0,4.5v0.1c0,1.2-0.1,4.5-0.3,9.9
		c0.2,8.9,0.3,14.4,0.1,16.4c0,1-0.5,1.5-1.5,1.7H287c-2.1,0-3.1-0.9-3.1-2.7c-0.1-4-0.2-6.8-0.2-8.4c0-1.1,0.1-7.7,0.2-19.8
		c0.1-1.5,0.1-3.4,0-5.8c0-1.2,1.1-1.9,3.3-1.9C287.8,384,288.5,384,289.2,384z"/>
	<path class="st9" d="M353.8,364.8c-10.4,6.1-26.8,13.5-42.7,19.7c0.4,0.5,0.8,0.9,1.1,1.4c1.8,2.2,3.5,4.5,5,6.7
		c12.5-4.6,26.2-10.8,37.1-18.3c-5.2,4.9-22.3,17.7-32.8,24.9c0.5,0.9,1.1,1.8,1.6,2.6c15.8-10.6,26.5-18.4,32.7-23.6
		c8.6-7.2,28.1-23.3,35.5-44.9C378.4,349.9,363,359.4,353.8,364.8z"/>
	<path class="st8" d="M281.6,422.3c-1.7-2.1-4-5-5.8-7.2c-2.3-2.9-4.5-5.9-6.5-8.9c-0.6,0.2-1.3,0.3-1.9,0.5c2.4,3.7,5.1,7.5,8,11.1
		c2.1,2.7,4,4.8,5,6.1c0.2,0.3,0.6,0.9,1.1,1.7c0.6-0.4,1.2-0.8,1.9-1.3C282.8,423.7,282.2,423,281.6,422.3z M293.9,433.4
		c-1.4-1.3-4.7-3.5-8.2-6.8c-0.8,0.5-1.5,1.1-2.3,1.6c2.3,3.2,5.3,7.1,7.7,8.2C294.7,438.2,295.7,435.1,293.9,433.4z M312.2,385.9
		c-20-25.1-44.4-39-54.9-30.6c-8.2,6.5-4.8,25.5,6.4,45.4c0.6-0.2,1.2-0.4,1.7-0.6c-11.4-19.4-14.5-37.5-6.8-43.6
		c9.7-7.7,33.1,6.2,52.5,30.6c4,5.1,7.5,10.1,10.5,15.1c11.4,18.9,15,36.1,7,43.1c-2.4,2.1-9.8,3-19.5-1.4c-0.1,0.2,0.1,0.6,0.3,0.7
		c8.4,3.4,16.4,4.6,20.4,1.4C339.7,438.3,332.2,411,312.2,385.9z"/>
	<path class="st8" d="M272.1,384c3.6,0.1,5.8,1.3,6.7,3.5c1,1.5,1.4,6.5,1.3,14.9c0,1,0,3.5,0.1,7.8c-0.1,5.8-0.1,9.2-0.1,10
		c0,1.8-0.9,2.6-2.6,2.5l-0.5,0c-2-0.1-3.2-0.5-3.6-1.4c-0.2,0-0.3-1.2-0.4-3.5c0.1-1.7,0.1-2.8,0.1-3.3c0-0.7-0.6-1.2-1.8-1.3
		l-0.1,0c-1.9-0.1-3,0.2-3.3,0.7c-0.2,0.3-0.3,0.7-0.3,1.2l-0.1,5.1c0,1.8-1,2.7-2.9,2.6c-0.7,0-1.3,0-1.8,0c-1.3-0.1-2-0.9-1.9-2.4
		v-0.6c-0.2-5.6-0.3-11.7-0.4-18.3c0,0-0.1-1.1-0.1-3.3c0.2-3.5,0.4-5.9,0.7-7.2c0.8-2.8,2-4.6,3.5-5.5
		C266.4,384.4,268.9,383.9,272.1,384z M267.9,396.9v0.3c0,0.5,0,2.8,0.2,6.7c-0.1,0.4-0.1,1-0.1,1.8c0,1.3,0.6,1.9,1.8,2h0.2
		c2.4,0.1,3.5-0.4,3.6-1.5v-0.3c0-1.4,0-2.8,0-4.3c0.1-1.1,0.1-2.7,0.2-4.6c0-2.4-0.4-4.1-1.2-5.3c-0.3-0.4-0.8-0.6-1.6-0.5
		C268.9,391.2,267.9,393.1,267.9,396.9z"/>
</g>
<g class="st10">
	<path class="st8" d="M217.8,29.3c1.8-8.3,3.9-16.9,7-25c-0.8,0.3-1.6,0.8-2.4,1.3c-8.6,5.5-13,16-16.4,25.2
		c-3.7,10.2-6.1,20.9-9.5,31.2c-4.5,13.8-9.3,27.4-11.3,41.9c-1.2,8.2-1.5,16.6-0.9,24.9c0.5,6.4,1.9,12.7,3.1,19
		c1.1,5.5,2.2,11.3,1.3,16.9c-1.2,6.8-5.6,12-10.9,16.2c-1,0.7-1.1,2,0,2.8c0.6,0.4,1.2,0.7,1.8,1c-0.9,0.4-1.7,0.9-2.5,1.3
		c-0.8,0.5-0.9,1.4-0.6,2.2c2,4.6,5.9,7.8,10.5,9.6c-1.9,2.5-2.5,5.4-4.4,8.1c-0.7,1,0.2,2.5,1.4,2.4c2.1-0.1,4.2,0.4,6.3,0.6
		c-1.3,2.7-2.1,5.6-3.9,8c-0.9,1.2-0.1,3.2,1.6,2.7c2.1-0.7,3.9-0.3,5.8-0.1c-0.5,1.3-0.9,2.7-1.5,4.1c-0.4,1,0,2.5,1.4,2.4
		c2.4-0.3,4.7,0.3,7.1,0.5c-0.6,1.9-1.2,3.7-2.2,5.4c-0.7,1.3,0.4,2.4,1.5,2.4c-13.8,5.5-26.9,13-36.7,23.8
		c-5.9,6.5-10.4,14.5-11.8,23.2c-1.6,9.8,0.4,19.5,4.3,28.5c1,2.3,2.1,4.5,3.3,6.6c-9.2,3.6-18,8.2-26,13.9
		c-8.7,6.1-17,13.5-22.2,22.8c-5.7,10.1-7.8,21.6-9.7,32.8c-1,5.6-1.9,11.3-3.2,16.9c-1.5,6.3-3.6,12.4-5.8,18.5
		c-4.6,13-9.7,25.7-14.1,38.8c-4,12.1-6.8,24.6-10.7,36.8c-3.8,11.9-8,23.9-10.1,36.2c-2,11.7-1.5,23,2.4,34.3
		c4.1,11.9,10.7,22.8,17,33.7c5.9,10.2,10.8,20.6,15.1,31.7c3.6,9.2,7.4,18.4,13.8,26c3.4,4.1,7.5,7.3,11.9,10.4
		c4.2,2.9,8.1,6.3,11.6,10c0,0,0,0,0,0c0.2,0.3,0.4,0.6,0.7,0.7c0.4,0.4,0.7,0.8,1.1,1.2c7.1,8,12.5,17.2,18.4,26.1
		c-0.4,0.5-0.8,1-1,1.6c-0.2,0.5-0.1,0.9,0.1,1.2c-0.2,0.3-0.3,0.7-0.1,1.2c7.1,22.6,4.9,47.4,4.3,70.7c-0.3,11.4-0.6,23,0.4,34.4
		c1.2,13,2.1,26.1-0.2,39c-1.1,6.4-2.9,12.6-5.3,18.7c-1.3,3.3-3.3,6.8-3.4,10.4c-0.1,3.4,1.7,6.5,3.3,9.3c3,5.4,6.2,10.7,8.4,16.5
		c3.6,9.7,3.5,20,4.6,30.1c0.6,5.9,1.6,12,5.6,16.6c1.3,1.4,2.7,2.6,4.3,3.6c-1.3,0.1-2.1,2.1-0.7,3c0,0,0.1,0,0.1,0.1
		c-2.1,6-2.9,12.3-4,18.5c-1.4,7.8-3.6,14.8-7.6,21.7c-6.7,11.5-13.2,23.8-23,33c-4.4,4.1-9.6,7.1-15.6,8.2
		c-5.6,0.9-11.3,0.2-16.8-0.8c-10-1.9-20.7-5.3-30.8-2.2c-6.2,1.9-11,6-14.8,11c36.4,8.1,76.9,5.2,101.3-21.7
		c23.8-26.2,24-65.5,22.8-100.9c-2-60.2-4-120.4-6-180.6c-0.6-17.1-1.2-34.5-6.8-50.6c-12.9-37.5-49.6-61.6-68.8-96.3
		c-30.7-55.7-10.5-124.6,10.3-184.7c8.8-25.4,18.2-51.9,38.1-69.9c12-11,29-21.3,28.2-37.6c-0.3-7.1-4.3-13.7-4.5-20.9
		c-0.8-23.7,36.5-33.2,39-56.8c0.8-7.1-1.9-14-4-20.8c-8.3-27.5-7.1-56.9-4.3-85.4C206,93.9,211,61.4,217.8,29.3z"/>
</g>
<g class="st11">
	<path class="st1" d="M508.1,1045.3c-6.6-2.6-13.3-2.3-19.5,1c-2.2,1.2-3.3,1.1-5.1-0.8c-2.9-2.9-4.9-6.4-6.2-10.3
		c-2.9-8-4.9-16.6-6.1-25c-1.6-10.6-2-21.2-4.4-31.8c-0.9-3.9-2.1-6.9-4.8-9.1c0-0.1,0-0.3-0.1-0.4c-0.3-0.8-0.5-1.6-0.6-2.4
		c0,0,0-0.1,0-0.1c0,0,0-0.1,0-0.1c0-0.1,0-0.3,0-0.4c0-0.3,0-0.5,0-0.8c0-0.5,0-1,0-1.5c0-0.5,0.1-1,0.1-1.5c0-0.1,0-0.1,0-0.1
		c0-0.1,0-0.2,0-0.3c0-0.3,0.1-0.5,0.1-0.8c0.1-0.4,0.2-0.9,0.4-1.3c0-0.1,0.1-0.2,0.1-0.3c0,0,0,0,0,0c0,0,0,0,0,0v0
		c0.1-0.2,0.2-0.3,0.3-0.5c0.1-0.2,0.2-0.5,0.2-0.7c1-1.1,1.8-2.4,2.3-4c2.9-8.3-0.8-17.7-2-26c-1.6-11.2-2.1-22.6-4.2-33.8
		c-0.9-4.9-2.1-9.8-4.2-14.3c-2.1-4.6-5.3-8.6-8.6-12.5c-3.7-4.3-7.7-8.5-10.7-13.4c-3.6-6.1-5.9-13.1-8.6-19.7
		c-5.2-12.9-10.8-25.5-15.7-38.5c-4.8-12.8-9.1-25.7-13.1-38.8c-4-13.1-7.6-26.2-10.8-39.5c-1.6-6.5-3.1-13-4.6-19.5
		c-1.3-5.7-3-11.6-3.3-17.5c-0.2-4.9,0.3-9.8,0.3-14.7c0-1.9,0.8-5.6,1-8.9c2.1,1,4.5,1.5,7.3,0.8c4.6-1,9.1-3.8,13-6.3
		c4.8-3.1,9.3-6.6,13.5-10.4c9-8.1,16.8-17.3,24.4-26.7c7.4-9.2,14.8-18.4,22.2-27.6c7.7-9.5,15.2-19.4,21-30.2
		c5.8-10.7,9.6-22.3,9.3-34.6c-0.3-12.9-4.3-25.2-7.9-37.5c-7.8-26.9-9.4-55-14.7-82.4c-3.9-19.8-5.5-42.2-17.8-59
		c-6.2-8.4-15.3-14.1-23.9-19.7c-9.1-6-18.5-11.7-28.1-16.8c4.5-7.7,6.4-16.5,5.2-25.5c-1.4-10-6.2-19.3-12.2-27.3
		c-7.8-10.2-17.6-19.3-29.4-24.7c0.5-0.3,0.9-0.9,0.8-1.7c-0.2-1.4-0.8-2.8-0.9-4.2c-0.1-2.2,1.6-3.8,3.2-5.2c0.8-0.7,0.5-2-0.3-2.5
		c-0.5-0.3-1-0.6-1.5-1c0.7-1.8,2.1-3.4,2.5-5.3c0.3-1.8-1.2-3.1-2.5-4.3c3.5-7.1,7.1-14.4,13.2-19.5c0.9-0.8,0.4-2.4-0.7-2.7
		c-2.7-0.7-4.8-2.5-7.3-3.8c1.4-1.6,2.5-3.4,4.3-4.6c1.1-0.7,1-2.6-0.4-3c-14.5-3.4-13.7-24.8-12.6-36.2c0.9-8.7,3.3-17.1,4.6-25.7
		c1.5-9.8,0.6-19.2-2.1-28.7c-3.1-10.8-8.5-20.6-13.7-30.4c-4.6-8.6-8.6-17.4-12-26.5C335,18.1,329.2-0.3,320.8,0
		c-3.4,22.3,13.7,42.9,21.3,64.7c7.5,21.3,5.7,44.5,4.2,67.1c-1.7,25.5-3,51-3.8,76.5c-0.3,7.5-0.4,15.3,2.8,22.1
		c5.2,11.2,18.3,17,24.3,27.8c8.7,15.5,0.4,35.6,6.5,52.3c6,16.5,23.8,24.9,37.4,36c38.3,31.2,45.1,86.1,49.1,135.3
		c1.6,19.8,3.1,40.1-2.4,59.2c-8.3,28.6-31.4,50.4-55.7,67.5c-15.7,11-33.6,22.7-37.8,41.4c-1.5,6.6-1,13.5-0.5,20.3
		c3.1,42.1,6.3,84.8,20,124.8c19.9,58.2,61.6,110.6,62.5,172.1c0.3,25.9-5.7,55.5,11.6,74.8c13,14.5,34.7,17.1,54.2,16.1
		c2.4-0.1,4.8-0.3,7.2-0.5C518.5,1052.2,514.1,1047.6,508.1,1045.3z"/>
</g>
<ellipse class="st0" cx="298" cy="1094.6" rx="298" ry="34.9"/>
<path class="st1" d="M483.2,484.4c-7.8-26.9-9.4-55-14.7-82.4c-3.9-19.8-5.5-42.2-17.8-59c-6.2-8.4-15.3-14.1-23.9-19.7
	c-9.1-6-18.5-11.7-28.1-16.8c-0.9-0.5-1.9-1-2.8-1.5c-0.1-0.1-0.3-0.1-0.4-0.2c-10.7-5.5-21.8-10.3-33.6-13
	c-13.1-3-26.5-3.8-39.9-3.3c-7.1,0.3-14.2,1-21.3,1.3c-7.1,0.3-14.2,0.4-21.3,0.6c-14.2,0.3-28.5,0.6-42.6,2.9
	c-13.2,2.2-26,6.4-38.7,10.6c-6.1,2-12.1,4.1-18.2,5.9c-5.6,1.7-11.2,3.1-16.7,5.1c-0.3,0.1-0.5,0.2-0.7,0.3c-1,0.4-2,0.7-3,1.2
	c-9.2,3.6-18,8.2-26,13.9c-8.7,6.1-17,13.5-22.2,22.8c-5.7,10.1-7.8,21.6-9.7,32.8c-1,5.6-1.9,11.3-3.2,16.9
	c-1.5,6.3-3.6,12.4-5.8,18.5c-4.6,13-9.7,25.7-14.1,38.8c-4,12.1-6.8,24.6-10.7,36.8c-3.8,11.9-8,23.9-10.1,36.2
	c-2,11.7-1.5,23,2.4,34.3c4.1,11.9,10.7,22.8,17,33.7c5.9,10.2,10.8,20.6,15.1,31.7c3.6,9.2,7.4,18.4,13.8,26
	c3.4,4.1,7.5,7.3,11.9,10.4c4.2,2.9,8.1,6.3,11.6,10c0,0,0,0,0,0c0.2,0.2,0.5,0.5,0.7,0.7c0.4,0.4,0.7,0.8,1.1,1.2
	c7.1,8,12.5,17.2,18.4,26.1c-0.4,0.5-0.8,1-1,1.6c-0.2,0.5-0.1,0.9,0.1,1.2c0.6,0.9,2.1,1,2.8,0c0.1-0.1,0.1-0.2,0.2-0.4
	c-0.2,0.5,0.2-0.1,0.4-0.3c0.2-0.2,0.4-0.3,0.6-0.5c0,0,0.1-0.1,0.1-0.1c0.1-0.1,0.2-0.2,0.3-0.2c0.1-0.1,0.2-0.2,0.4-0.3
	c1.5-1.2,3-2.3,4.5-3.4c3.6-2.6,7.2-5.2,10.8-7.8c2.9-2.1,5.9-4.3,8.5-6.8c2.9-2.9,5.3-6.4,7.4-9.9c4.6-7.8,8.1-16.2,12-24.3
	c3.5-7.1,7.4-15.1,14-20c8.4-6.2,20.9-5.1,30.6-4.1c11.9,1.2,23.8,3.9,35.8,3c14-1,27.8-4,41.8-5.4c12.7-1.3,26.3-1.8,38.6,2.1
	c7.1,2.2,9.6,8.9,13.5,14.6c2,3,4.3,6.3,7,8.6c0.9,0.7,1.8,1.4,2.8,1.8c2.1,1,4.5,1.5,7.3,0.8c4.6-1,9.1-3.8,13-6.3
	c4.8-3.1,9.3-6.6,13.5-10.4c9-8.1,16.8-17.3,24.4-26.7c7.4-9.2,14.8-18.4,22.2-27.6c7.7-9.5,15.2-19.4,21-30.2
	c5.8-10.7,9.6-22.3,9.3-34.6C490.8,509.1,486.8,496.7,483.2,484.4z M472.6,565.6c-6.8,10.2-14.6,19.6-22.3,29.1
	c-12.7,15.7-24.7,32.8-40.2,45.9c-0.9,0.7-1.7,1.4-2.6,2.1c-1.5,1.2-3,2.4-4.5,3.4c-4.3,3.1-9.2,6.3-14.2,8c-3.1,1.1-5.8,1-8.3-0.8
	c-0.3-0.2-0.6-0.5-0.9-0.7c-0.7-0.7-1.5-1.4-2.1-2.2c-4.6-5.2-7.1-12-11.8-17.1c-0.6-0.7-1.3-1.2-2-1.8c-0.1-0.1-0.3-0.2-0.5-0.4
	c-0.3-0.2-0.7-0.4-1-0.6c-1.2-0.7-2.5-1.3-3.9-1.7c-5.1-1.7-10.7-2.4-16-2.9c-13.3-1.1-26.7,0.7-39.9,2.6c-12.9,1.9-25.7,4.2-38.7,3
	c-11.9-1.1-23.8-3.7-35.9-3.3c-7.7,0.3-15,1.7-20.8,6.5c-0.7,0.6-1.5,1.2-2.1,2c-0.1,0.1-0.1,0.1-0.2,0.2c-5.6,6-9.3,13.7-12.8,21.1
	c-3.7,7.9-7.1,16-11.9,23.3c-4.6,6.9-10.9,11.4-17.5,16.2c-3.1,2.2-6.3,4.5-9.4,6.8c-0.3,0.3-0.7,0.5-1.1,0.8
	c-5.8-8.8-11.2-17.8-18.1-25.7c-0.4-0.4-0.8-0.9-1.2-1.3c-0.7-0.9-1.5-1.7-2.3-2.5c-2.5-2.6-5.3-5-8.2-7.2
	c-4.6-3.5-9.2-6.5-13.1-10.8c-7-7.8-10.8-17.5-14.5-27.1c-4-10.4-8.6-20.2-14.2-29.8C73.9,589.8,67.2,579,63,567
	c-4.2-11.8-4.4-23.5-2-35.6c2.4-12,6.5-23.6,10.2-35.3c3.9-12.3,6.6-24.8,10.8-37c4.3-12.7,9.3-25.2,13.8-37.9
	c2.1-5.9,4.2-11.8,5.6-18c1.3-5.6,2.2-11.3,3.1-16.9c1.9-11.1,3.9-22.5,9.7-32.4c5.6-9.6,14.6-17.1,23.8-23
	c9.4-6.1,19.7-11,30.3-14.4c5.6-1.8,11.2-3.2,16.8-5c6.1-2,12.2-4.1,18.3-6.1c13-4.3,26.2-8.2,39.8-9.9c13.9-1.8,27.9-1.8,41.8-2.1
	c14-0.3,27.9-1.8,41.9-1.9c13.4-0.2,26.9,1.1,39.9,4.8c9.5,2.7,18.6,6.8,27.4,11.4c1,0.5,1.9,1,2.9,1.5c0.9,0.5,1.8,0.9,2.6,1.4
	c10.5,5.7,20.6,12,30.5,18.7c4.3,3,8.9,5.9,12.7,9.6c3.7,3.5,6.7,7.7,9.1,12.2c4.9,9.1,7.3,19.2,9.3,29.3c2.1,10.9,4.2,21.8,6,32.7
	c2.3,14,3.9,28.1,6.2,42.2c2.1,13.1,5.4,25.6,9.1,38.3c3.6,12.7,6.9,26.1,4.6,39.3C485.2,544.7,479.2,555.7,472.6,565.6z"/>
<path class="st2" d="M407.5,642.6c-1.5,1.2-3,2.4-4.5,3.4c-4.3,3.1-9.2,6.3-14.2,8c-3.5,1.2-6.4,1-9.2-1.6
	c-5.9-5.4-8.6-13.4-13.9-19.3c1.6-1.8,2.2-5.1,2.9-7.3c1.3-4,3.3-7.8,5-11.7c0.9-2,1.7-4.1,2.4-6.2c0.6,0.5,1.2,0.9,1.6,1.3
	c2.6,2.1,5.2,4.1,7.7,6.2c6.4,5.2,13,10.7,18,17.2c1.6,2.2,4.1,5.5,3.6,8.2C406.7,641.7,407,642.3,407.5,642.6z"/>
<path class="st2" d="M204.5,637c-5.6,6-9.3,13.7-12.8,21.1c-3.7,7.9-7.1,16-11.9,23.3c-4.6,6.9-10.9,11.4-17.5,16.2
	c-3.1,2.2-6.3,4.5-9.4,6.8c-0.3,0.3-0.7,0.5-1.1,0.8c-5.8-8.8-11.2-17.8-18.1-25.7c-0.4-0.4-0.8-0.9-1.2-1.3
	c3.3-6.3,8.5-11.3,13.7-16.1c5.4-5,11-9.8,15.8-15.3c4.3-5,8.6-9.9,13.2-14.6c3.8-3.8,8.5-8.9,14-10.2c0.6-0.1,0.9-0.5,1.1-1
	C194.6,626.6,199.4,632,204.5,637z"/>
<path class="st1" d="M205.3,637.7c-0.3-0.3-0.5-0.5-0.8-0.7c-5.1-5-9.9-10.4-14.4-16c0,0,0,0,0,0c-0.6-0.7-1.1-1.4-1.7-2.1
	c-4.9-6.3-9.3-13-13.2-20c-7.1-12.7-12.6-26.3-15.9-40.5c-2.8-12-3.5-24.3-3.3-36.6c0-0.8,0-1.5,0-2.3c0-2.3,0.1-4.6,0.2-6.9
	c1.2-32,5.5-64.8-7.9-95c-0.8-1.9,1.9-3.5,2.8-1.6c7.1,16.1,9.8,33.3,10.1,50.8c0.4,31.1-5.8,62.6,1.8,93.3
	c7.1,28.3,22.9,54.3,43.7,74.7c0.2,0.2,0.4,0.4,0.7,0.7C209,636.9,206.8,639.2,205.3,637.7z"/>
<path class="st1" d="M434.1,433c-0.1,0.6-0.3,1.3-0.4,1.9c-0.3,1.2-0.6,2.5-0.9,3.7c-2,8.7-4.2,17.4-6.1,26.1
	c-1.4,6.4-3.1,12.7-5.1,18.9c-0.2,0.6-0.4,1.2-0.6,1.8c-0.8,2.3-1.6,4.6-2.5,6.9c-2.3,5.9-4.8,11.8-7.5,17.6c-0.2,0.5-0.4,1-0.7,1.5
	c-5,10.9-10.4,21.7-15.3,32.6c-3.9,8.8-7.6,17.7-10.3,27c-2.9,9.7-4.2,19.8-6.5,29.6c-0.3,1.3-0.7,2.7-1.1,4
	c-0.3,1.2-0.7,2.3-1.1,3.4c-0.7,2.1-1.5,4.1-2.4,6.2c-1.7,3.9-3.7,7.7-5,11.7c-0.7,2.2-1.3,5.5-2.9,7.3c0,0.1-0.1,0.2-0.2,0.3
	c-1.6,1.6-3.2,0.5-3.8-1.3c-0.3-0.7,0-1.3,0.5-1.7c0.4-0.3,1-0.4,1.5-0.2c0.2-0.7,0.6-1.5,0.8-2.1c0.6-1.6,1.1-3.2,1.6-4.8
	c1.6-4.4,3.9-8.6,5.7-13c4-10.1,5.1-20.9,7.6-31.4c8.1-35.1,29.7-65.1,40.3-99.4c2.8-9,4.5-18.3,6.7-27.5c2.3-9.8,4.7-19.6,6.8-29.4
	c4.3-20,7.4-40.3,6-60.7c-0.1-2.1,3.1-2.1,3.2,0C444,385.9,439.5,409.7,434.1,433z"/>
<path class="st1" d="M464.7,954c-0.6,1.6-1.3,2.9-2.3,4c-1.2,1.3-2.7,2.3-4.3,3c-1.7,0.7-3.6,1.2-5.5,1.5c-6.9,0.9-14,0.2-21,0.6
	c-2.4,0.1-4.8,0.4-7.2,0.8c-0.1,0-0.1,0-0.3,0c-1.5,0.3-3,0.6-4.4,1c-4,1.2-7.4,3.4-11,5.4c0,0,0,0-0.1,0c-0.5,0.3-1,0.6-1.6,0.9
	c-1.4,0.7-2.9,1.4-4.4,1.8c0,0,0,0,0,0c-0.5,0.1-1.1,0.2-1.6,0.3c-1,0.1-2.1,0-3.2-0.2v0c0,0,0,0-0.1,0c-0.4-0.1-0.9-0.2-1.4-0.4
	c-4.1-1.7-7.4-5.6-9.1-9.6c-3.9-9.1-2-20.4-7.8-28.8c-6.6-9.5-17.7-14.7-25.4-23.1c-8.5-9.3-14.6-21-20.6-31.9
	c-6.4-11.6-11-24-14.8-36.6c-8.2-27.3-13.7-55.4-21.2-83c-1.8-6.6-3.3-13.3-5-20c-1.6-6.5-3.3-13.5-6.5-19.5c-0.7-1.4-2-3.9-3.7-4.3
	c-1.8-0.4-3.3,2-4.1,3.2c-2.7,4.3-4.1,9.4-5.7,14.2c-2,6.3-3.7,12.7-5.2,19.2c-6.1,26.4-8.4,53.5-10.9,80.3
	c-0.6,6.7-1.3,13.3-2.1,19.9c-0.9,7.1-1.8,14.5-0.1,21.6c2.4,10.2,12.2,14.7,16.8,23.5c3.2,6.2,1.6,13.3-0.2,19.7
	c-2.5,8.5-6.2,16.8-10.5,24.5c-3.5,6.2-7.6,13-13.4,17.4c-3.3,2.4-7.1,4.2-11.2,5.4c-3,0.9-6.1,1.5-9.2,2c-2.6,0.4-5.2,0.7-7.6,0.9
	c-4,0.4-8,0.5-12,0.5c-7.1-0.1-14.1-0.9-21-2.3c-3.9-0.8-8.2-1.8-12-3.5c-0.9-0.4-1.8-0.8-2.6-1.3c-0.3-0.1-0.5-0.3-0.8-0.5
	c-1.6-1-3.1-2.2-4.3-3.6c-4.1-4.6-5-10.7-5.6-16.6c-1.1-10.1-1-20.4-4.6-30.1c-2.2-5.8-5.4-11.1-8.4-16.5c-1.6-2.8-3.4-5.9-3.3-9.3
	c0.1-3.6,2.2-7.1,3.4-10.4c2.3-6.1,4.2-12.3,5.3-18.7c2.2-12.9,1.3-26,0.1-39c-1-11.4-0.7-22.9-0.4-34.4c0.6-23.3,2.8-48.1-4.3-70.7
	c-0.1-0.5-0.1-0.9,0.1-1.2c0.6-0.9,2.2-1.1,2.8,0c0.1,0.1,0.1,0.2,0.2,0.4c3.1,10,4.3,20.5,4.8,30.9c1,23.6-1.7,47.3-0.3,70.8
	c0.7,12.5,2.3,24.8,1,37.4c-0.6,6-1.8,12-3.6,17.8c-1.5,5-3.8,9.7-5.4,14.6c-1,3.1-0.1,5.5,1.4,8.3c0.2,0.4,0.4,0.9,0.7,1.3v0
	c0.4,0.8,0.8,1.5,1.2,2.3v0c2.1,3.7,4.3,7.4,6,11.3c4.5,9.8,5.2,20,6,30.6c0.5,5.9,0.7,12.9,4.4,17.9c4.4,5.8,12.7,7.6,19.4,9
	c6.1,1.3,12.3,1.9,18.6,2.1h0c4.9,0.1,9.9-0.1,14.7-0.6c1.6-0.2,3.3-0.4,5-0.6c0,0,0,0,0.1,0c7.6-1.2,15.9-3.3,21.2-8.4
	c5.8-5.5,9.9-13,13.4-20c3.8-7.6,7.1-15.6,8.8-23.9c0.6-2.9,1-6.1,0.3-8.9c-1.1-4.5-4.7-8-7.9-11.2c-3.1-3.2-6.4-6.5-8.4-10.5
	c-2.8-5.5-3.2-11.9-2.9-17.9c0.3-6.9,1.4-13.8,2.1-20.6c0.6-6.2,1.2-12.5,1.8-18.8c1.3-13.2,2.6-26.5,4.4-39.6
	c1.8-13,4.1-25.9,7.3-38.6c1.6-6.4,3.5-12.7,5.7-18.9c1.3-3.6,2.7-7.4,5.1-10.5c8.7-11.2,15.3,10,17,15.7c1.9,6.6,3.4,13.4,5.1,20.1
	c2.7,11.3,5.9,22.5,8.8,33.7c6.6,26.6,11.7,54.2,22.5,79.5c5.1,11.8,11.7,23.2,18.7,33.8c3.4,5,6.9,9.9,11.4,14
	c4.3,3.8,9,7.1,13.4,10.8c2,1.7,4.1,3.6,6,5.6c0.5,0.5,0.9,1,1.3,1.6c1.2,1.4,2.2,3,3,4.6c2,4.2,2.8,8.9,3.5,13.4
	c0.8,4.8,1.2,10,3.5,14.3c2,3.9,6.2,7.9,10.8,7.1c0.2,0,0.4-0.1,0.7-0.1c1.9-0.5,3.6-1.4,5.3-2.4c0,0,0,0,0,0
	c2.2-1.3,4.2-2.7,6.4-3.7c3.7-1.7,7.7-2.7,11.7-3.3c7.3-1,14.6-0.6,21.9-0.9c5-0.1,11.5-0.6,13.9-5.8c1.5-3.3,1.2-7.3,0.8-10.8
	c-0.6-5-2-9.9-2.7-15c-1.2-8.5-1.8-17.1-2.9-25.6v0c-0.1-0.7-0.2-1.4-0.3-2.1c-0.3-2.1-0.6-4.1-1-6.1c-0.9-4.9-2.1-9.8-4.4-14.3
	c-2.4-4.8-6-8.7-9.5-12.7c-3.6-4.1-7.3-8.3-9.9-13.2c-3.3-6-5.5-12.7-8.1-19c-5-12.6-10.5-24.9-15.3-37.6
	c-9.5-25.2-17.2-51.2-23.8-77.3c-1.6-6.4-3.1-12.7-4.5-19.1c-1.3-5.7-2.9-11.5-3.6-17.3c-0.6-5-0.1-10.1,0-15.1
	c0.1-2.8,1.9-9.5,1.5-13.7c-0.1-1.1-0.4-1.9-0.8-2.6c-0.7-0.9-0.2-1.8,0.6-2.1c0.7-0.3,1.6-0.3,2.2,0.5c0.4,0.6,0.7,1.4,0.9,2.4
	c0.1,1.1,0.1,2.3,0,3.6c-0.3,3.3-1,7-1,8.9c0,4.9-0.5,9.8-0.3,14.7c0.2,5.9,2,11.8,3.3,17.5c1.5,6.5,3,13,4.6,19.5
	c3.3,13.3,6.9,26.4,10.8,39.5c4,13.1,8.3,26,13.1,38.8c4.9,13,10.5,25.6,15.7,38.5c2.6,6.6,4.9,13.6,8.6,19.7
	c3,4.9,6.9,9.1,10.7,13.4c3.3,3.8,6.5,7.8,8.6,12.5c2,4.6,3.3,9.4,4.2,14.3c2.1,11.2,2.6,22.6,4.2,33.8
	C463.9,936.3,467.6,945.7,464.7,954z"/>
<path class="st2" d="M400.4,293.5c-0.8,4.1-2.4,8-4.6,11.5c-0.1-0.1-0.3-0.1-0.4-0.2c-10.7-5.5-21.8-10.3-33.6-13
	c-13.1-3-26.5-3.8-39.9-3.3c-7.1,0.3-14.2,1-21.3,1.3c-7.1,0.3-14.2,0.4-21.3,0.6c-14.2,0.3-28.5,0.6-42.6,2.9
	c-13.2,2.2-26,6.4-38.7,10.6c-6.1,2-12.1,4.1-18.2,5.9c-5.6,1.7-11.2,3.1-16.7,5.1c-0.3,0.1-0.5,0.2-0.7,0.3
	c-4.8-8.5-8.2-17.9-8-27.8c0.2-8.4,3.2-16.4,8.2-23.2c11.9-16.3,32.4-25.4,51-31.4c23.4-7.6,48.1-11.2,72.6-11.9
	c21.9-0.7,44.7,0.6,65.7,7.4c9.2,3,17.3,7.3,24.6,13.7C390.5,254.4,404.4,273.6,400.4,293.5z"/>
<path class="st1" d="M398.7,306.5c-0.5,0.9-1.1,1.8-1.7,2.7c0,0-0.1,0.1-0.1,0.1c-1.2,1.7-4,0.1-2.8-1.6c0,0,0,0,0,0
	c0.6-0.9,1.2-1.8,1.7-2.7c2.2-3.6,3.7-7.4,4.6-11.5c4-19.9-9.9-39.1-24.1-51.4c-7.3-6.4-15.4-10.7-24.6-13.7
	c-21-6.8-43.8-8.1-65.7-7.4c-24.5,0.7-49.2,4.3-72.6,11.9c-18.6,6-39.1,15.1-51,31.4c-5,6.8-8,14.7-8.2,23.2
	c-0.2,9.8,3.3,19.3,8,27.8c0.1,0.2,0.2,0.4,0.4,0.6c1,1.8-1.7,3.4-2.8,1.6c-0.2-0.4-0.4-0.7-0.6-1.1c-1.2-2.2-2.3-4.4-3.3-6.6
	c-3.9-9-5.9-18.7-4.3-28.5c1.5-8.8,5.9-16.7,11.8-23.2c9.8-10.9,22.9-18.4,36.7-23.8c0,0,0,0,0.1,0c0.3-0.1,0.6-0.2,0.9-0.4
	c0,0,0,0,0,0c6.4-2.5,12.8-4.6,19.2-6.3c24.7-7,50.7-10,76.4-9.8c21.2,0.2,43.6,2.2,63.3,10.4c0.5,0.2,0.9,0.4,1.4,0.6
	c0.3,0.1,0.6,0.3,0.9,0.4c11.8,5.3,21.6,14.4,29.4,24.7c6,8,10.8,17.3,12.2,27.3C405.1,290,403.2,298.8,398.7,306.5z"/>
<path class="st3" d="M360.1,214.6c-0.1,0.5,0,1.2,0.4,1.6c0.4,0.3,0.7,0.6,1.2,0.9c-1.4,1.5-2.5,3.1-2.7,5.1c-0.2,2,0.6,3.9,0.9,5.9
	c-19.7-8.2-42.2-10.2-63.3-10.4c-25.7-0.2-51.7,2.8-76.4,9.8c-6.3,1.8-12.8,3.9-19.2,6.3c0.1-0.1,0.2-0.2,0.3-0.3
	c1.5-2.6,2.3-5.4,3.2-8.2c0.3-0.9-0.5-2.1-1.5-2c-2.4,0.2-4.7-0.4-7-0.5c0.4-1.3,0.9-2.7,1.6-3.9c0.6-1.1-0.2-2.4-1.4-2.4
	c-2,0-3.8-0.4-5.6-0.4c1.2-2.6,2.1-5.4,3.7-7.7c0.7-1-0.2-2.4-1.4-2.4c-2.1,0-4.2-0.5-6.3-0.7c1.2-2.5,2-5,4.3-7
	c1-0.8,0.4-2.4-0.7-2.7c-4.3-1.2-8.1-3.6-10.3-7.5c1.4-0.7,2.8-1.4,4.3-2c1.1-0.5,1-2.3,0-2.8c-0.9-0.5-1.8-0.8-2.8-1.2
	c3.6-3,6.7-6.5,8.6-10.9c1.9-4.3,2.4-8.9,2-13.6c-0.4-5.1-1.5-10.2-2.6-15.2c-1.3-6.3-2.2-12.6-2.3-19c-0.3-14.8,2.5-29.2,6.8-43.3
	c2-6.4,4.3-12.8,6.3-19.2c1.6-5,2.9-10.2,4.4-15.2c3-10.4,6.3-21.5,12.7-30.5c3.3-4.6,11.2-12.3,16.7-6.4c4.7,5.1,5.9,13.6,7.1,20.1
	c1.3,7,1.8,14.3,3.6,21.2c1.1,4.2,2.4,9.4,5.3,12.7c2.1,2.5,5.1,3.1,8.2,3c6.1-0.2,12.1-1.4,18.2-1.6c7.6-0.3,14.3,1.6,21,5.2
	c0.9,0.4,2.2,0.1,2.4-1c2-10.5,3.4-21,5.5-31.5c2-9.9,4.6-20.8,10.4-29.3c1.3-1.9,3.4-4.7,6-4c2.2,0.6,3.8,3,4.9,4.8
	c3.9,6.2,6.2,13.3,8.7,20c7.3,19.5,20.5,36.7,25.4,57.1c2.3,9.7,1.9,18.9,0.1,28.6c-1.5,7.6-3.3,15.1-3.9,22.9
	c-1,12-0.6,31.3,12.4,36.7c-1.4,1.6-2.6,3.4-4.3,4.8c-1,0.8-0.3,2.4,0.7,2.7c2.5,0.8,4.7,2.5,7,3.8c-5.5,5.5-9,12.8-12.4,19.6
	c-0.3,0.7-0.3,1.4,0.3,1.9c0.8,0.8,1.6,1.6,2.3,2.4C362.2,210.8,360.7,212.5,360.1,214.6z"/>
<path class="st1" d="M376.8,185.3c-6.1,5.2-9.7,12.5-13.2,19.5c1.3,1.2,2.8,2.5,2.5,4.3c-0.4,2-1.8,3.5-2.5,5.3c0.5,0.4,1,0.7,1.5,1
	c0.9,0.5,1.1,1.8,0.3,2.5c-1.6,1.4-3.3,3-3.2,5.2c0.1,1.4,0.7,2.8,0.9,4.2c0.1,0.8-0.3,1.4-0.8,1.7c-0.9,0.6-2.1,0.4-2.3-0.9
	c0,0,0-0.1,0-0.1c-0.3-2-1.1-3.9-0.9-5.9c0.2-2,1.3-3.7,2.7-5.1c-0.4-0.3-0.8-0.6-1.2-0.9c-0.4-0.4-0.6-1-0.4-1.6
	c0.6-2.1,2-3.8,2.8-5.9c-0.8-0.8-1.6-1.6-2.3-2.4c-0.5-0.5-0.6-1.3-0.3-1.9c3.4-6.9,6.9-14.1,12.4-19.6c-2.4-1.2-4.5-3-7-3.8
	c-1.1-0.3-1.7-1.9-0.7-2.7c1.7-1.4,2.9-3.2,4.3-4.8c-13-5.4-13.4-24.8-12.4-36.7c0.6-7.7,2.5-15.2,3.9-22.9
	c1.9-9.7,2.2-18.9-0.1-28.6c-4.9-20.4-18.1-37.6-25.4-57.1c-2.5-6.8-4.8-13.9-8.7-20c-1.1-1.8-2.7-4.2-4.9-4.8c-2.6-0.7-4.8,2.2-6,4
	c-5.8,8.5-8.4,19.3-10.4,29.3c-2.1,10.4-3.5,21-5.5,31.5c-0.2,1.1-1.5,1.4-2.4,1c-6.7-3.5-13.4-5.4-21-5.2
	c-6.1,0.2-12.1,1.5-18.2,1.6c-3.1,0.1-6.1-0.5-8.2-3c-2.9-3.4-4.2-8.5-5.3-12.7c-1.9-6.9-2.4-14.2-3.6-21.2
	c-1.2-6.5-2.4-15-7.1-20.1c-5.5-5.9-13.4,1.8-16.7,6.4c-6.4,9-9.7,20.1-12.7,30.5c-1.5,5.1-2.8,10.2-4.4,15.2
	c-2,6.4-4.3,12.7-6.3,19.2c-4.3,14.1-7.1,28.5-6.8,43.3c0.1,6.4,1.1,12.7,2.3,19c1,5,2.2,10.1,2.6,15.2c0.3,4.6-0.1,9.3-2,13.6
	c-1.9,4.4-5,7.9-8.6,10.9c0.9,0.4,1.9,0.8,2.8,1.2c1,0.5,1.1,2.3,0,2.8c-1.4,0.6-2.9,1.3-4.3,2c2.2,3.9,6,6.3,10.3,7.5
	c1.1,0.3,1.7,1.9,0.7,2.7c-2.4,1.9-3.1,4.5-4.3,7c2.1,0.2,4.2,0.7,6.3,0.7c1.2,0,2.1,1.4,1.4,2.4c-1.6,2.4-2.5,5.2-3.7,7.7
	c1.8,0,3.6,0.4,5.6,0.4c1.2,0,2,1.3,1.4,2.4c-0.7,1.2-1.2,2.6-1.6,3.9c2.4,0.1,4.7,0.7,7,0.5c1-0.1,1.9,1.1,1.5,2
	c-0.9,2.8-1.7,5.7-3.2,8.2c-0.1,0.1-0.2,0.3-0.3,0.3c0,0,0,0,0,0c-0.3,0.2-0.6,0.4-0.9,0.4c0,0,0,0-0.1,0c-1.1,0.1-2.3-1.1-1.5-2.4
	c1-1.7,1.6-3.6,2.2-5.4c-2.4-0.1-4.7-0.7-7.1-0.5c-1.4,0.1-1.8-1.5-1.4-2.4c0.6-1.4,0.9-2.8,1.5-4.1c-1.9-0.3-3.8-0.6-5.8,0.1
	c-1.7,0.5-2.5-1.5-1.6-2.7c1.8-2.3,2.6-5.3,3.9-8c-2.1-0.3-4.2-0.8-6.3-0.6c-1.2,0.1-2.1-1.4-1.4-2.4c1.8-2.7,2.5-5.6,4.4-8.1
	c-4.6-1.8-8.5-4.9-10.5-9.6c-0.3-0.8-0.2-1.7,0.6-2.2c0.8-0.5,1.7-0.9,2.5-1.3c-0.6-0.3-1.2-0.6-1.8-1c-1.1-0.7-1-2,0-2.8
	c5.3-4.1,9.7-9.4,10.9-16.2c1-5.6-0.2-11.4-1.3-16.9c-1.3-6.3-2.7-12.6-3.1-19c-0.6-8.3-0.3-16.7,0.9-24.9
	c2-14.5,6.8-28.1,11.3-41.9c3.4-10.4,5.8-21,9.5-31.2c3.4-9.2,7.8-19.7,16.4-25.2c5.5-3.5,11.4-3.1,15.3,2.4
	c4.3,6.1,5.6,14.4,6.8,21.6c1.2,7.1,1.8,14.5,3.9,21.5c1,3.2,2,8.2,5,10.3c2.5,1.8,6.5,0.9,9.3,0.6c6-0.7,12.1-1.6,18.2-1.3
	c5.7,0.3,11,2.1,16.2,4.6c2.2-11.6,3.6-23.3,6.3-34.8c1.4-5.8,3.1-11.4,5.4-16.9c1.8-4.1,3.9-8.7,7.4-11.6
	c10.9-9,18.4,15.2,20.8,21.7c3.4,9.1,7.4,17.9,12,26.5c5.2,9.8,10.7,19.6,13.7,30.4c2.7,9.5,3.6,19,2.1,28.7
	c-1.3,8.6-3.8,17.1-4.6,25.7c-1.1,11.4-1.9,32.8,12.6,36.2c1.4,0.3,1.5,2.2,0.4,3c-1.8,1.2-3,3-4.3,4.6c2.4,1.3,4.6,3.1,7.3,3.8
	C377.2,182.9,377.8,184.5,376.8,185.3z"/>
<path class="st1" d="M267,904.6c-7.4,5.6-15.7,9.7-24.6,12.4c-31.3,9.6-69,2.1-91.2-23v0c-0.3-0.3-0.6-0.6-0.9-1
	c-0.4-0.4-0.4-0.9-0.4-1.3v0c0.2-1.2,1.6-2.1,2.6-0.9c6,7,13.2,12.8,21.4,17.1c28.1,15,65.8,13.4,91.4-6.1
	C267,900.6,268.7,903.4,267,904.6z"/>
<path class="st1" d="M456.6,902.5L456.6,902.5c-0.1,0.1-0.1,0.2-0.2,0.2c-9.7,9.9-22,17.1-34.9,22.1c-12.9,5-27,7.8-40.8,5.8
	c-0.1,0-0.1,0-0.2,0c-0.9-0.1-1.3-0.9-1.2-1.5c0.1-0.9,0.9-1.7,2-1.6c13.3,2,27-1,39.3-5.8c12.3-4.8,24.2-11.8,33.5-21.3
	c0.7-0.7,1.6-0.5,2.1,0C456.8,900.9,457.1,901.8,456.6,902.5z"/>
<path class="st4" d="M527.1,1093.4c0,4.9-1.1,9.5-5.7,12c-6,3.3-13.8,3-20.4,3.4c-19.2,1.2-38.2,3.9-57.4,3
	c-7.4-0.3-14.9-0.9-22.3-2.4c-5.5-1.1-12.2-2.5-14.7-8.1c-3.1-7-1.6-15.9-0.4-23.1c1.2-7.5,2.8-14.8,3-22.4
	c0.7-22.2-2.7-44.1-5.9-65.9c-0.8-5.3-1.5-10.5-2.2-15.8c0.5-0.3,1-0.6,1.5-0.9c0,0,0,0,0,0c1.5-0.4,3-1,4.4-1.8
	c0.5-0.3,1.1-0.6,1.6-0.9c0,0,0,0,0.1,0c4.7-1.6,9.7-2.5,14.4-3.1c8.3-1,17.1-1.1,25.3,0.6c4.8,1,11.8,1.9,13.9,7
	c1.2,2.8,1.6,6,2.2,9c1.1,5.6,1.7,11.3,2.3,16.9c0.8,8.6,2.3,17.1,4.5,25.5c1.9,7.5,4,14.8,9.3,20.7c1.5,1.7,3.5,3.4,6,3.3
	c2-0.1,3.7-1.4,5.4-2.3c6.4-3.2,15.1-1.1,20.5,3.3c6,4.8,9,12.4,11,19.5C525.3,1078.1,527,1085.9,527.1,1093.4z"/>
<path class="st1" d="M529.4,1084.4c-1.2-8-2.9-16.1-6.2-23.5c-3.1-6.8-8-12.8-15.1-15.6c-6.6-2.6-13.3-2.3-19.5,1
	c-2.2,1.2-3.3,1.1-5.1-0.8c-2.9-2.9-4.9-6.4-6.2-10.3c-2.9-8-4.9-16.6-6.1-25c-1.6-10.6-2-21.2-4.4-31.8c-0.9-3.9-2.1-6.9-4.8-9.1
	c-1-0.8-2.2-1.5-3.6-2.1c-0.1,0-0.2-0.1-0.3-0.1c-7.3-2.8-15.3-3.7-23-3.7c-3.5,0-7.1,0.1-10.6,0.5c-0.1,0-0.1,0-0.3,0
	c-5.3,0.5-10.5,1.5-15.5,3.2c-0.4,0.1-0.8,0.3-1.1,0.4c0,0,0,0,0,0c-2.1,0.7-4.1,1.5-6,2.5c-1,0.5-1.9,1-2.8,1.7h0
	c-0.5,0.2-0.9,0.6-0.9,1.3v0.1c2.8,23.1,7.5,46,8.2,69.4c0.3,9.7-0.2,18.9-1.8,28.4c-1.4,8.2-3.1,16.7-2.2,25
	c0.8,6.3,3.5,11.3,9.4,13.9c6.6,2.8,14,3.6,21,4.3c18.5,1.8,36.8,0.5,55.3-1.2c9.5-0.9,19.3-0.6,28.6-2.6c4.9-1,9.9-3.2,12.2-8
	C531.2,1097,530.3,1090.2,529.4,1084.4z M521.4,1105.4c-6,3.3-13.8,3-20.4,3.4c-19.2,1.2-38.2,3.9-57.4,3
	c-7.4-0.3-14.9-0.9-22.3-2.4c-5.5-1.1-12.2-2.5-14.7-8.1c-3.1-7-1.6-15.9-0.4-23.1c1.2-7.5,2.8-14.8,3-22.4
	c0.7-22.2-2.7-44.1-5.9-65.9c-0.8-5.3-1.5-10.5-2.2-15.8c0.5-0.3,1-0.6,1.5-0.9c0,0,0,0,0,0c1.9-1.1,3.9-1.9,5.9-2.7c0,0,0,0,0.1,0
	c4.7-1.6,9.7-2.5,14.4-3.1c8.3-1,17.1-1.1,25.3,0.6c4.8,1,11.8,1.9,13.9,7c1.2,2.8,1.6,6,2.2,9c1.1,5.6,1.7,11.3,2.3,16.9
	c0.8,8.6,2.3,17.1,4.5,25.5c1.9,7.5,4,14.8,9.3,20.7c1.5,1.7,3.5,3.4,6,3.3c2-0.1,3.7-1.4,5.4-2.3c6.4-3.2,15.1-1.1,20.5,3.3
	c6,4.8,9,12.4,11,19.5c2,7.2,3.7,15,3.7,22.5C527.1,1098.3,525.9,1103,521.4,1105.4z"/>
<path class="st4" d="M244.2,1103.5c-7.3,1.8-14.8,1.4-22.3,0.7c-7.7-0.7-15.3-1.5-23.1-1.3c-8.5,0.2-16.9,0.8-25.4,1.2
	c-8.2,0.4-16.4,0.4-24.6,0.4c-17,0.2-33.9,0.9-50.9,0.8c-7.8,0-15.6-0.4-23.3-0.6c-5.8-0.1-12.1,0.3-17.7-1.8
	c-13-4.8-8.9-22.6-5.3-32.3c3.9-10.7,10.7-22.7,22.6-25.8c10.1-2.6,20.8,1.4,30.8,3c10.7,1.7,21.1,0.6,29.8-6.3
	c11.2-8.9,18.4-22.3,25.4-34.4c4-6.9,6.8-13.6,8.3-21.4c1.3-6.8,2-13.8,4.2-20.4c10.2,4.9,22.7,4,34,2.9c4,0.1,8-0.1,12-0.5
	c2.4-0.2,5-0.5,7.6-0.9c2.5,0,5,0.2,7.4,0.7c3.3,0.7,5.5,2.2,5.8,5.8c0.3,4.3-0.9,8.7-1.6,12.9c-1,6.5-1.5,13-1.9,19.6
	c-1.1,16.4-1.8,32.8-1.1,49.2C235.7,1071.3,237.6,1088.3,244.2,1103.5z"/>
<path class="st1" d="M247.8,1103.7c-6.8-14.4-8.7-30.9-9.5-46.7c-0.9-16.6-0.2-33.2,0.9-49.8c0.4-6.7,0.8-13.5,1.9-20.2
	c0.7-4.4,1.9-9,1.7-13.4c-0.2-5.1-3.3-7.6-7.2-8.8c-3.1-1-6.8-1.1-10.1-1.1c0,0-0.1,0-0.1,0c-0.8,0-1.6,0-2.3,0
	c-5.8,0.1-11.6,0.8-17.4,1.2h0c-2.8,0.2-5.6,0.4-8.4,0.5c-7.8,0.3-16.2,0.1-23.4-3.3c0.1-1.2-1.3-1.8-2.4-1.3c0,0-0.1,0-0.1-0.1
	c-0.3-0.2-0.6-0.3-0.9-0.2c-1.3,0.1-2.1,2.1-0.7,3c0,0,0.1,0,0.1,0.1c-2.1,6-2.9,12.3-4,18.5c-1.4,7.8-3.6,14.8-7.6,21.7
	c-6.7,11.5-13.2,23.8-23,33c-4.4,4.1-9.6,7.1-15.6,8.2c-5.6,0.9-11.3,0.2-16.8-0.8c-10-1.9-20.7-5.3-30.8-2.2
	c-11.3,3.5-18.2,14.4-22.5,24.8c-4.2,10-8.5,25.1-0.6,34.5c3.4,4.1,8.6,5.5,13.8,6.1c6.5,0.7,13.1,0.5,19.6,0.8
	c17.4,0.6,34.9,0.1,52.3-0.2c17.4-0.4,34.6-0.5,52-1.4c8.2-0.4,16.4-0.9,24.6-0.2c8.1,0.7,16.3,2,24.5,1.6c3.7-0.2,7.4-0.8,11-1.9
	C247.9,1105.7,248.3,1104.7,247.8,1103.7z M222,1104.2c-7.7-0.7-15.3-1.5-23.1-1.3c-8.5,0.2-16.9,0.8-25.4,1.2
	c-8.2,0.4-16.4,0.4-24.6,0.4c-17,0.2-33.9,0.9-50.9,0.8c-7.8,0-15.6-0.4-23.3-0.6c-5.8-0.1-12.1,0.3-17.7-1.8
	c-13-4.8-8.9-22.6-5.3-32.3c3.9-10.7,10.7-22.7,22.6-25.8c10.1-2.6,20.8,1.4,30.8,3c10.7,1.7,21.1,0.6,29.8-6.3
	c11.2-8.9,18.4-22.3,25.4-34.4c4-6.9,6.8-13.6,8.3-21.4c1.3-6.8,2-13.8,4.2-20.4c10.2,4.9,22.7,4,34,2.9c2.5-0.3,5-0.5,7.4-0.7
	c3.9-0.3,8.1-0.8,12.2-0.7c2.5,0,5,0.2,7.4,0.7c3.3,0.7,5.5,2.2,5.8,5.8c0.3,4.3-0.9,8.7-1.6,12.9c-1,6.5-1.5,13-1.9,19.6
	c-1.1,16.4-1.8,32.8-1.1,49.2c0.7,16.3,2.6,33.4,9.2,48.5C237,1105.3,229.4,1104.9,222,1104.2z"/>
<path class="st1" d="M190.2,621C190.2,621,190.2,621,190.2,621c-0.1,0.5-0.5,0.8-1.1,1c-5.5,1.3-10.1,6.4-14,10.2
	c-4.6,4.6-8.9,9.6-13.2,14.6c-4.8,5.6-10.4,10.4-15.8,15.3c-5.2,4.8-10.4,9.8-13.7,16.1c-0.2,0.4-0.4,0.8-0.6,1.2
	c-0.4,0.9-1.3,1-2.1,0.6c-0.3-0.1-0.5-0.4-0.7-0.7c0,0,0,0,0,0c-0.2-0.4-0.2-0.9,0-1.4c0.3-0.7,0.7-1.4,1-2.1
	c3.4-6.1,8.6-11.2,13.7-15.9c5.6-5.1,11.2-10.1,16.2-15.8c4.6-5.3,9.1-10.5,14.1-15.4c3.9-3.8,8.6-8.5,14.1-9.8c0.1,0,0.2,0,0.3,0
	C189.7,618.7,190.4,620,190.2,621z"/>
<path class="st1" d="M377.4,605.1C377.4,605.1,377.4,605.1,377.4,605.1C377.4,605,377.5,605.1,377.4,605.1
	C377.5,605.1,377.5,605.1,377.4,605.1z"/>
<path class="st1" d="M410.1,640.5c0,0.4,0,0.9-0.1,1.3c-0.3,1.3-1.6,1.4-2.5,0.8c-0.5-0.3-0.8-0.9-0.6-1.6c0.5-2.7-1.9-6-3.6-8.2
	c-5-6.6-11.6-12-18-17.2c-2.6-2.1-5.2-4.1-7.7-6.2c-0.4-0.4-1-0.8-1.6-1.3c-0.9-0.7-1.6-1.6-1.4-2.7c0.3-1.3,1.6-1.4,2.5-0.8
	c0.1,0.1,0.2,0.2,0.3,0.3c0,0,0,0,0.1,0.1c0,0,0,0,0,0.1c0,0,0.1,0.1,0.1,0.2c0,0,0-0.1,0-0.1c0.1,0,0.2,0.2,0.3,0.2
	c0.3,0.3,0.7,0.6,1,0.9c1.1,0.9,2.2,1.8,3.4,2.7c6.3,5,12.7,10.1,18.4,15.9c2.7,2.7,5.3,5.6,7.4,8.9
	C409.1,635.8,410.1,638.1,410.1,640.5z"/>
<path class="st1" d="M290.6,667.9c-8.1,16.6-25.5,24.8-42.2,30.3c-8.7,2.9-17.9,5.1-27.1,5.2c-7.3,0.1-15-1.3-20.3-6.5
	c-0.7-0.7,0.4-1.8,1.1-1.1c6.1,6,15.4,6.5,23.4,5.9c15.6-1.3,31.9-7.1,45.4-15.1c17.6-10.5,27.7-31.6,18.8-51.2
	c-0.4-0.9,1-1.8,1.4-0.8C296,645.4,295.8,657.3,290.6,667.9z"/>
<path class="st1" d="M265.2,730.9c-3.8,3-9.9,3.1-14.6,3.4c-6.5,0.4-13.1,0.2-19.6-0.2c-0.9-0.1-1.2-1.3-0.2-1.6c0.1,0,0.1,0,0.2,0
	c8.4-2,16.5-6.3,17.9-15.4c-20.3,5.5-40.5,12.8-61.9,12.5c-1,0-1-1.6,0-1.6c21.6,0.3,42-7.2,62.6-12.8c0.5-0.1,1.1,0.3,1,0.8
	c-0.9,9-7.2,14-15,16.7c4.3,0.2,8.5,0.2,12.8,0.1c3-0.1,6-0.3,9-0.8c2.2-0.4,4.8-0.8,6.5-2.2C264.8,729.1,266,730.2,265.2,730.9z"/>
<path class="st1" d="M364.6,802.2c-27.4-9.7-37.4-39.8-55.3-60c-0.7-0.8,0.4-1.9,1.1-1.1C328,761,338,791.1,365,800.6
	C366,801,365.5,802.5,364.6,802.2z"/>
<path class="st1" d="M409.4,904.3c-4.9,3.8-13.4,2.4-19,1.6c-6.6-1-13.6-2.4-19.6-5.2c-0.9-0.4-0.1-1.8,0.8-1.4
	c6.9,3.2,15.3,4.8,22.9,5.5c3.7,0.3,7.9,0.6,11.5-0.6c3.7-1.2,4.9-4.2,4.6-7.9c-0.6-8-5.2-15.6-8.7-22.6
	c-4.8-9.8-8.6-20.2-12.5-30.3c-9.3-23.7-17.8-47.8-26.4-71.7c-4.2-11.7-8.8-23.2-12.5-35c-3.5-11.4-6.1-23-8.4-34.7
	c-4.6-23-8.4-46.4-16.9-68.4c-0.4-1,1.2-1.4,1.5-0.4c10.1,25.9,13.5,53.7,19.5,80.7c5.6,25.2,15.4,49.3,24.1,73.6
	c9,25.1,18.1,50.2,28.3,74.9c3.4,8.2,7.8,16,11,24.3C411.6,891.6,414.7,900.3,409.4,904.3z"/>
<path class="st1" d="M212.3,774.5c-1.5,19.3-5.3,38.4-5.6,57.7c-0.4,21,2.7,41.9,2.2,62.9c0,1-1.6,1-1.6,0
	c0.3-11.9-0.5-23.7-1.2-35.5c-0.7-10.5-1.2-21-0.8-31.5c0.4-9.5,1.6-19,2.8-28.4c2.3-18.6,4.9-37.7,2.5-56.4c-0.1-1,1.5-1,1.6,0
	C213.4,753.6,213.1,764.1,212.3,774.5z"/>
<path class="st5" d="M462.1,943.1c-0.6-5-2-9.9-2.7-15c-1.2-8.5-1.8-17.1-2.9-25.6c-0.1,0.1-0.1,0.1-0.2,0.2
	c-9.7,9.9-22,17.1-34.9,22.1c-12.9,5-27,7.8-40.8,5.8c1.2,1.4,2.2,3,3,4.6c2,4.2,2.8,8.9,3.5,13.4c0.8,4.8,1.2,10,3.5,14.3
	c2,3.9,6.2,7.9,10.8,7.1c1.9-1,3.9-1.9,6-2.5c0,0,0,0,0,0c2.2-1.3,4.2-2.7,6.4-3.7c3.7-1.7,7.7-2.7,11.7-3.3
	c7.3-1,14.6-0.6,21.9-0.9c5-0.1,11.5-0.6,13.9-5.8C462.8,950.5,462.6,946.6,462.1,943.1z M455.5,936.3c-15.4,4.6-31.1,8-47.1,9.7
	c-1,0.1-1-1.5,0-1.6c15.9-1.7,31.4-5.1,46.6-9.7C456.1,934.5,456.5,936,455.5,936.3z"/>
<path class="st1" d="M455.5,936.3c-15.4,4.6-31.1,8-47.1,9.7c-1,0.1-1-1.5,0-1.6c15.9-1.7,31.4-5.1,46.6-9.7
	C456.1,934.5,456.5,936,455.5,936.3z"/>
<path class="st5" d="M455.3,894.3c-0.9-4.9-2.1-9.8-4.4-14.3c-2.4-4.8-6-8.7-9.5-12.7c-3.6-4.1-7.3-8.3-9.9-13.2
	c-3.3-6-5.5-12.7-8.1-19c-5-12.6-10.5-24.9-15.3-37.6c-9.5-25.2-17.2-51.2-23.8-77.3c-1.6-6.4-3.1-12.7-4.5-19.1
	c-1.3-5.7-2.9-11.5-3.6-17.3c-0.6-5-0.1-10.1,0-15.1c0.1-2.8,1.9-9.5,1.5-13.7c-2.8-2.3-5-5.6-7-8.6c-3.9-5.7-6.4-12.4-13.5-14.6
	c-12.3-3.9-26-3.4-38.6-2.1c-14,1.4-27.8,4.4-41.8,5.4c-12,0.8-23.9-1.8-35.8-3c-9.7-1-22.3-2.1-30.6,4.1c-6.6,4.8-10.5,12.8-14,20
	c-4,8.1-7.4,16.6-12,24.3c-2.1,3.5-4.5,6.9-7.4,9.9c-2.5,2.6-5.6,4.7-8.5,6.8c-3.6,2.6-7.2,5.2-10.8,7.8c-1.5,1.1-3.1,2.2-4.5,3.4
	c-0.1,0.1-0.2,0.2-0.4,0.3c-0.1,0.1-0.2,0.1-0.3,0.2c0,0-0.1,0-0.1,0.1c-0.2,0.1-0.4,0.3-0.6,0.5c-0.2,0.2-0.6,0.8-0.4,0.3
	c0,0.1-0.1,0.3-0.2,0.4c0.1,0.1,0.1,0.2,0.2,0.4c3.1,10,4.3,20.5,4.8,30.9c1,23.6-1.7,47.3-0.3,70.8c0.7,12.5,2.3,24.8,1,37.4
	c-0.6,6-1.8,12-3.6,17.8c-1.5,5-3.8,9.7-5.4,14.6c-1,3.1-0.1,5.5,1.4,8.3c0.2,0.4,0.4,0.9,0.7,1.3c0.2-1.2,1.6-2.1,2.6-0.9
	c6,7,13.2,12.8,21.4,17.1c28.1,15,65.8,13.4,91.4-6.1c1.6-1.2,3.3,1.5,1.6,2.8c-7.4,5.6-15.7,9.7-24.6,12.4
	c-31.3,9.6-69,2.1-91.2-23c2.1,3.7,4.3,7.4,6,11.3c4.5,9.8,5.2,20,6,30.6c0.5,5.9,0.7,12.9,4.4,17.9c4.4,5.8,12.7,7.6,19.4,9
	c6.1,1.3,12.3,1.9,18.6,2.1h0c5.8-0.5,11.6-1.1,17.4-1.2c0.7,0,1.5,0,2.3,0c0,0,0,0,0.1,0c7.6-1.2,15.9-3.3,21.2-8.4
	c5.8-5.5,9.9-13,13.4-20c3.8-7.6,7.1-15.6,8.8-23.9c0.6-2.9,1-6.1,0.3-8.9c-1.1-4.5-4.7-8-7.9-11.2c-3.1-3.2-6.4-6.5-8.4-10.5
	c-2.8-5.5-3.2-11.9-2.9-17.9c0.3-6.9,1.4-13.8,2.1-20.6c0.6-6.2,1.2-12.5,1.8-18.8c1.3-13.2,2.6-26.5,4.4-39.6
	c1.8-13,4.1-25.9,7.3-38.6c1.6-6.4,3.5-12.7,5.7-18.9c1.3-3.6,2.7-7.4,5.1-10.5c8.7-11.2,15.3,10,17,15.7c1.9,6.6,3.4,13.4,5.1,20.1
	c2.7,11.3,5.9,22.5,8.8,33.7c6.6,26.6,11.7,54.2,22.5,79.5c5.1,11.8,11.7,23.2,18.7,33.8c3.4,5,6.9,9.9,11.4,14
	c4.3,3.8,9,7.1,13.4,10.8c2,1.7,4.1,3.6,6,5.6c0.1-0.9,0.9-1.7,2-1.6c13.3,2,27-1,39.3-5.8c12.3-4.8,24.2-11.8,33.5-21.3
	c0.7-0.7,1.6-0.5,2.1,0C456,898.4,455.6,896.3,455.3,894.3z M247.4,931.2c-3.4,3.7-8.1,5.8-12.9,7.1c-10.6,2.8-22.1,2-32.8,0.1
	c-9.6-1.7-20-4.5-28-10.3c-0.8-0.6,0-2,0.8-1.4c10,7.3,23.9,10.1,36,11.3c11.4,1.1,27.3,1.3,35.8-7.9
	C247,929.4,248.1,930.5,247.4,931.2z M212.3,774.5c-1.5,19.3-5.3,38.4-5.6,57.7c-0.4,21,2.7,41.9,2.2,62.9c0,1-1.6,1-1.6,0
	c0.3-11.9-0.5-23.7-1.2-35.5c-0.7-10.5-1.2-21-0.8-31.5c0.4-9.5,1.6-19,2.8-28.4c2.3-18.6,4.9-37.7,2.5-56.4c-0.1-1,1.5-1,1.6,0
	C213.4,753.6,213.1,764.1,212.3,774.5z M265.2,730.9c-3.8,3-9.9,3.1-14.6,3.4c-6.5,0.4-13.1,0.2-19.6-0.2c-0.9-0.1-1.2-1.3-0.2-1.6
	c0.1,0,0.1,0,0.2,0c8.4-2,16.5-6.3,17.9-15.4c-20.3,5.5-40.5,12.8-61.9,12.5c-1,0-1-1.6,0-1.6c21.6,0.3,42-7.2,62.6-12.8
	c0.5-0.1,1.1,0.3,1,0.8c-0.9,9-7.2,14-15,16.7c4.3,0.2,8.5,0.2,12.8,0.1c3-0.1,6-0.3,9-0.8c2.2-0.4,4.8-0.8,6.5-2.2
	C264.8,729.1,266,730.2,265.2,730.9z M290.6,667.9c-8.1,16.6-25.5,24.8-42.2,30.3c-8.7,2.9-17.9,5.1-27.1,5.2
	c-7.3,0.1-15-1.3-20.3-6.5c-0.7-0.7,0.4-1.8,1.1-1.1c6.1,6,15.4,6.5,23.4,5.9c15.6-1.3,31.9-7.1,45.4-15.1
	c17.6-10.5,27.7-31.6,18.8-51.2c-0.4-0.9,1-1.8,1.4-0.8C296,645.4,295.8,657.3,290.6,667.9z M364.6,802.2
	c-27.4-9.7-37.4-39.8-55.3-60c-0.7-0.8,0.4-1.9,1.1-1.1C328,761,338,791.1,365,800.6C366,801,365.5,802.5,364.6,802.2z M409.4,904.3
	c-4.9,3.8-13.4,2.4-19,1.6c-6.6-1-13.6-2.4-19.6-5.2c-0.9-0.4-0.1-1.8,0.8-1.4c6.9,3.2,15.3,4.8,22.9,5.5c3.7,0.3,7.9,0.6,11.5-0.6
	c3.7-1.2,4.9-4.2,4.6-7.9c-0.6-8-5.2-15.6-8.7-22.6c-4.8-9.8-8.6-20.2-12.5-30.3c-9.3-23.7-17.8-47.8-26.4-71.7
	c-4.2-11.7-8.8-23.2-12.5-35c-3.5-11.4-6.1-23-8.4-34.7c-4.6-23-8.4-46.4-16.9-68.4c-0.4-1,1.2-1.4,1.5-0.4
	c10.1,25.9,13.5,53.7,19.5,80.7c5.6,25.2,15.4,49.3,24.1,73.6c9,25.1,18.1,50.2,28.3,74.9c3.4,8.2,7.8,16,11,24.3
	C411.6,891.6,414.7,900.3,409.4,904.3z"/>
<path class="st1" d="M247.4,931.2c-3.4,3.7-8.1,5.8-12.9,7.1c-10.6,2.8-22.1,2-32.8,0.1c-9.6-1.7-20-4.5-28-10.3
	c-0.8-0.6,0-2,0.8-1.4c10,7.3,23.9,10.1,36,11.3c11.4,1.1,27.3,1.3,35.8-7.9C247,929.4,248.1,930.5,247.4,931.2z"/>
<path class="st1" d="M157,520.7c-0.3,0.4-0.6,0.8-0.9,1.2c-7.2,9-19.4,13.9-29.9,17.6c-12.5,4.4-26,7.6-39.3,7.5c-1,0-1-1.6,0-1.6
	c12.7,0.1,25.5-2.9,37.5-6.9c10.9-3.7,24.2-8.8,31.3-18.5c0.1-0.2,0.3-0.3,0.5-0.3C156.8,519.4,157.5,520,157,520.7z"/>
<path class="st1" d="M155.1,503.2c-10.4,4.6-22.4,6.4-33.7,6.5c-10.3,0.1-23.3-1.2-30.3-9.9c-0.6-0.8,0.5-1.9,1.1-1.1
	c6.8,8.5,19.8,9.6,29.8,9.4c10.8-0.2,22.3-1.9,32.2-6.3C155.2,501.4,156.1,502.8,155.1,503.2z"/>
<path class="st1" d="M155.6,475.4c-5.3-7.2-9.3-15.2-14.7-22.3c-5-6.6-12.4-14.6-21.6-12.9c-1,0.2-1.5-1.4-0.4-1.5
	c3.6-0.7,7.1-0.1,10.4,1.6c6.7,3.3,11.5,9.8,15.7,15.8c4.2,6.1,7.6,12.6,12,18.5C157.6,475.4,156.3,476.3,155.6,475.4z"/>
<path class="st1" d="M156.9,580.6c-6.7,7.9-13.5,15.9-21.4,22.6c-7.7,6.5-16.3,11.5-25.8,14.8c-1,0.3-1.4-1.2-0.4-1.6
	c9.7-3.4,18.4-8.5,26.1-15.2c7.5-6.5,14-14.1,20.4-21.7C156.4,578.7,157.6,579.8,156.9,580.6z"/>
<path class="st1" d="M454.1,501.6c-11.9,9.1-29.1,13.7-43.8,9.9c-0.2,0-0.3-0.1-0.5-0.1c-1-0.3-0.6-1.8,0.4-1.6
	c0.3,0.1,0.5,0.1,0.7,0.2c14.3,3.6,30.8-1,42.3-9.8C454.1,499.6,454.9,500.9,454.1,501.6z"/>
<path class="st1" d="M449.6,447.5c-1.9,16.6-13.6,30-27.9,37.9c-0.3,0.1-0.5,0.1-0.7,0c-0.5-0.3-0.7-1.1,0-1.4
	c0.2-0.1,0.4-0.2,0.6-0.4c13.4-7.6,24.6-20.3,26.4-36.1C448.1,446.5,449.7,446.5,449.6,447.5z"/>
<path class="st1" d="M451.2,407.4c-2.2,12.2-11.6,20.8-17.9,30.9c-0.1,0.2-0.4,0.4-0.6,0.4c-0.6,0-1.2-0.6-0.8-1.2
	c0.5-0.9,1.1-1.7,1.7-2.5c6.1-8.9,14.1-17,16-28C449.8,405.9,451.4,406.3,451.2,407.4z"/>
<path class="st6" d="M482.6,493.6c-3.7-12.7-6.9-25.2-9.1-38.3c-2.3-14-3.9-28.1-6.2-42.2c-1.8-10.9-3.9-21.8-6-32.7
	c-2-10-4.4-20.2-9.3-29.3c-2.4-4.5-5.4-8.7-9.1-12.2c-3.8-3.6-8.4-6.6-12.7-9.6c-9.8-6.7-20-13-30.5-18.7c-0.9-0.5-1.8-0.9-2.6-1.4
	c0,0-0.1,0.1-0.1,0.1c-1.2,1.7-4,0.1-2.8-1.6c0,0,0,0,0,0c-8.8-4.6-17.9-8.7-27.4-11.4c-12.9-3.7-26.4-5-39.9-4.8
	c-14,0.2-27.9,1.7-41.9,1.9c-14,0.3-28,0.3-41.8,2.1c-13.6,1.7-26.8,5.6-39.8,9.9c-6.1,2-12.2,4.1-18.3,6.1
	c-5.6,1.8-11.3,3.2-16.8,5c-10.7,3.4-20.9,8.3-30.3,14.4c-9.2,6-18.2,13.5-23.8,23c-5.8,9.8-7.8,21.3-9.7,32.4
	c-1,5.7-1.9,11.3-3.1,16.9c-1.4,6.1-3.5,12-5.6,18c-4.5,12.7-9.5,25.1-13.8,37.9c-4.1,12.2-6.9,24.7-10.8,37
	c-3.7,11.7-7.8,23.3-10.2,35.3c-2.4,12.2-2.1,23.9,2,35.6c4.2,11.9,10.9,22.8,17.2,33.7c5.5,9.7,10.2,19.5,14.2,29.8
	c3.7,9.6,7.5,19.3,14.5,27.1c3.9,4.3,8.5,7.4,13.1,10.8c2.9,2.2,5.6,4.6,8.2,7.2c3.4-6.1,8.6-11.2,13.7-15.9
	c5.6-5.1,11.2-10.1,16.2-15.8c4.6-5.3,9.1-10.5,14.1-15.4c3.9-3.8,8.6-8.5,14.1-9.8c0.1,0,0.2,0,0.3,0c-4.9-6.3-9.3-13-13.2-20
	c-7.1-12.7-12.6-26.3-15.9-40.5c-2.8-12-3.5-24.3-3.3-36.6c-7.2,9-19.4,13.9-29.9,17.6c-12.5,4.4-26,7.6-39.3,7.5c-1,0-1-1.6,0-1.6
	c12.7,0.1,25.5-2.9,37.5-6.9c10.9-3.7,24.2-8.8,31.3-18.5c0.1-0.2,0.3-0.3,0.5-0.3c0-2.3,0.1-4.6,0.2-6.9c1.2-32,5.5-64.8-7.9-95
	c-0.8-1.9,1.9-3.5,2.8-1.6c7.1,16.1,9.8,33.3,10.1,50.8c0.4,31.1-5.8,62.6,1.8,93.3c7.1,28.3,22.9,54.3,43.7,74.7
	c5.8-4.8,13.1-6.3,20.8-6.5c12-0.4,23.9,2.2,35.9,3.3c13.1,1.2,25.8-1.1,38.7-3c13.2-1.9,26.5-3.7,39.9-2.6c5.3,0.4,10.9,1.2,16,2.9
	c1.4,0.4,2.7,1,3.9,1.7c0.4-0.3,1-0.4,1.5-0.2c0.2-0.7,0.6-1.5,0.8-2.1c0.6-1.6,1.1-3.2,1.6-4.8c1.6-4.4,3.9-8.6,5.7-13
	c4-10.1,5.1-20.9,7.6-31.4c8.1-35.1,29.7-65.1,40.3-99.4c2.8-9,4.5-18.3,6.7-27.5c2.3-9.8,4.7-19.6,6.8-29.4c4.3-20,7.4-40.3,6-60.7
	c-0.1-2.1,3.1-2.1,3.2,0c1.6,24-2.9,47.8-8.3,71.1c-0.1,0.6-0.3,1.3-0.4,1.9c6.1-8.9,14.1-17,16-28c0.2-1,1.7-0.6,1.5,0.4
	c-2.2,12.2-11.6,20.8-17.9,30.9c-0.1,0.2-0.4,0.4-0.6,0.4c-2,8.7-4.2,17.4-6.1,26.1c-1.4,6.4-3.1,12.7-5.1,18.9
	c13.4-7.6,24.6-20.3,26.4-36.1c0.1-1,1.7-1,1.6,0c-1.9,16.6-13.6,30-27.9,37.9c-0.3,0.1-0.5,0.1-0.7,0c-0.8,2.3-1.6,4.6-2.5,6.9
	c-2.3,5.9-4.8,11.8-7.5,17.6c14.3,3.6,30.8-1,42.3-9.8c0.8-0.6,1.6,0.8,0.8,1.4c-11.9,9.1-29.1,13.7-43.8,9.9
	c-5,10.9-10.4,21.7-15.3,32.6c-3.9,8.8-7.6,17.7-10.3,27c-2.9,9.7-4.2,19.8-6.5,29.6c-0.3,1.3-0.7,2.7-1.1,4
	c0.1,0.1,0.2,0.2,0.3,0.3c0,0,0,0,0.1,0.1c0,0,0.1,0,0.1,0.1c0.1,0,0.2,0.2,0.3,0.2c0.3,0.3,0.7,0.6,1,0.9c1.1,0.9,2.2,1.8,3.4,2.7
	c6.3,5,12.7,10.1,18.4,15.9c2.7,2.7,5.3,5.6,7.4,8.9c1.2,2,2.3,4.3,2.2,6.7c15.5-13.1,27.5-30.2,40.2-45.9
	c7.7-9.5,15.6-18.9,22.3-29.1c6.6-9.9,12.5-20.8,14.6-32.7C489.5,519.6,486.2,506.3,482.6,493.6z M109.3,616.4
	c9.7-3.4,18.4-8.5,26.1-15.2c7.5-6.5,14-14.1,20.4-21.7c0.7-0.8,1.8,0.4,1.1,1.1c-6.7,7.9-13.5,15.9-21.4,22.6
	c-7.7,6.5-16.3,11.5-25.8,14.8C108.7,618.3,108.3,616.8,109.3,616.4z M155.1,503.2c-10.4,4.6-22.4,6.4-33.7,6.5
	c-10.3,0.1-23.3-1.2-30.3-9.9c-0.6-0.8,0.5-1.9,1.1-1.1c6.8,8.5,19.8,9.6,29.8,9.4c10.8-0.2,22.3-1.9,32.2-6.3
	C155.2,501.4,156.1,502.8,155.1,503.2z M157,474.6c0.6,0.8-0.8,1.6-1.4,0.8c-5.3-7.2-9.3-15.2-14.7-22.3c-5-6.6-12.4-14.6-21.6-12.9
	c-1,0.2-1.5-1.4-0.4-1.5c3.6-0.7,7.1-0.1,10.4,1.6c6.7,3.3,11.5,9.8,15.7,15.8C149.2,462.2,152.7,468.7,157,474.6z M292.9,400.5
	c-0.2,16.2-0.7,32.2-2.3,48.4c-1.5,15.3-3.2,30.4-3.6,45.7c-0.3,13.1-0.5,26.9-5.7,39.1c-0.4,0.9-1.8,0.1-1.4-0.8
	c6-14.1,5.2-30.4,5.6-45.4c0.5-15.3,2.7-30.4,4-45.7c1.3-15.5,1.5-30.9,1.6-46.5c0.3-28.2,1.1-58.2-9.8-84.8
	c-0.4-0.9,1.2-1.4,1.5-0.4c6,14.7,8.3,30.6,9.3,46.3C293.3,371,293.1,385.8,292.9,400.5z"/>
<path class="st1" d="M292.9,400.5c-0.2,16.2-0.7,32.2-2.3,48.4c-1.5,15.3-3.2,30.4-3.6,45.7c-0.3,13.1-0.5,26.9-5.7,39.1
	c-0.4,0.9-1.8,0.1-1.4-0.8c6-14.1,5.2-30.4,5.6-45.4c0.5-15.3,2.7-30.4,4-45.7c1.3-15.5,1.5-30.9,1.6-46.5
	c0.3-28.2,1.1-58.2-9.8-84.8c-0.4-0.9,1.2-1.4,1.5-0.4c6,14.7,8.3,30.6,9.3,46.3C293.3,371,293.1,385.8,292.9,400.5z"/>
<path class="st1" d="M458,967.2c-7.3-2.8-15.3-3.7-23-3.7c-3.5,0-7.1,0.1-10.6,0.5c2.4-0.4,4.8-0.7,7.2-0.8c7-0.4,14.1,0.3,21-0.6
	c1.9-0.3,3.8-0.7,5.5-1.5c-0.1,0.8-0.2,1.7-0.2,2.5C457.8,964.7,457.8,966,458,967.2z"/>
<path class="st1" d="M462.4,958c0,0.3-0.1,0.5-0.2,0.7c-0.1,0.2-0.2,0.3-0.3,0.5v0c0,0,0,0,0,0c0,0,0,0,0,0c0,0.1-0.1,0.2-0.1,0.3
	c-0.1,0.4-0.3,0.9-0.4,1.3c-0.1,0.3-0.1,0.5-0.1,0.8c0,0.1,0,0.2,0,0.3c0,0,0,0.1,0,0.1c0,0.5-0.1,1-0.1,1.5c0,0.5,0,1,0,1.5
	c0,0.3,0,0.5,0,0.8c0,0.1,0,0.3,0,0.4c0,0,0,0.1,0,0.1c0,0.1,0,0.1,0,0.1c0.1,0.8,0.3,1.6,0.6,2.4c0.1,0.1,0.1,0.3,0.1,0.4
	c0,0.7-0.6,1.4-1.2,1.6c-0.9,0.3-1.6-0.3-2-1.1s-0.6-1.7-0.7-2.6c-0.2-1.2-0.2-2.5-0.1-3.7c0-0.8,0.1-1.6,0.2-2.5
	c0.2-1.4,0.6-2.7,1.3-3.9c0.4-0.7,1.4-1,2.2-0.6C462.1,956.8,462.4,957.4,462.4,958z"/>
<g>
	<circle class="st7" cx="291.4" cy="403.4" r="76.4"/>
	<path class="st8" d="M332.9,384c3.6,0.1,5.8,1.3,6.7,3.5c1,1.5,1.4,6.5,1.3,14.9c0,1,0,3.5,0.1,7.8c-0.1,5.8-0.1,9.2-0.1,10
		c0,1.8-0.9,2.6-2.6,2.5l-0.5,0c-2-0.1-3.2-0.5-3.6-1.4c-0.2,0-0.3-1.2-0.4-3.5c0.1-1.7,0.1-2.8,0.1-3.3c0-0.7-0.6-1.2-1.8-1.3
		l-0.1,0c-1.9-0.1-3,0.2-3.3,0.7c-0.2,0.3-0.3,0.7-0.3,1.2l-0.1,5.1c0,1.8-1,2.7-2.9,2.6c-0.7,0-1.3,0-1.8,0c-1.3-0.1-2-0.9-1.9-2.4
		v-0.6c-0.2-5.6-0.3-11.7-0.4-18.3c0,0-0.1-1.1-0.1-3.3c0.2-3.5,0.4-5.9,0.7-7.2c0.8-2.8,2-4.6,3.5-5.5
		C327.1,384.4,329.6,383.9,332.9,384z M328.6,396.9v0.3c0,0.5,0,2.8,0.2,6.7c-0.1,0.4-0.1,1-0.1,1.8c0,1.3,0.6,1.9,1.8,2h0.2
		c2.4,0.1,3.5-0.4,3.6-1.5v-0.3c0-1.4,0-2.8,0-4.3c0.1-1.1,0.1-2.7,0.2-4.6c0-2.4-0.4-4.1-1.2-5.3c-0.3-0.4-0.8-0.6-1.6-0.5
		C329.6,391.2,328.7,393.1,328.6,396.9z"/>
	<circle class="st8" cx="286.9" cy="341.6" r="0.9"/>
	<circle class="st8" cx="295.7" cy="342.8" r="0.9"/>
	<circle class="st8" cx="307.3" cy="358.3" r="0.9"/>
	<circle class="st8" cx="244" cy="438.3" r="0.9"/>
	<circle class="st8" cx="246.2" cy="445.1" r="0.9"/>
	<circle class="st8" cx="235.6" cy="439.3" r="0.6"/>
	<circle class="st8" cx="270.4" cy="452.7" r="0.6"/>
	<circle class="st8" cx="325.1" cy="441.4" r="0.6"/>
	<circle class="st8" cx="340.9" cy="424.2" r="0.6"/>
	<circle class="st8" cx="263.1" cy="363.3" r="0.6"/>
	<circle class="st8" cx="280.6" cy="350.5" r="0.6"/>
	<circle class="st8" cx="278.7" cy="349.2" r="0.6"/>
	<circle class="st8" cx="277" cy="348" r="0.6"/>
	<circle class="st8" cx="265.8" cy="366.6" r="0.6"/>
	<circle class="st8" cx="291.6" cy="333.2" r="0.6"/>
	<circle class="st8" cx="295.8" cy="351.7" r="0.6"/>
	<circle class="st8" cx="289.1" cy="348.1" r="0.6"/>
	<circle class="st8" cx="277.7" cy="353" r="0.6"/>
	<circle class="st8" cx="328.1" cy="458.3" r="0.6"/>
	<circle class="st8" cx="242.9" cy="442.6" r="0.6"/>
	<circle class="st8" cx="287.5" cy="450.9" r="0.6"/>
	<circle class="st8" cx="256.2" cy="442.1" r="0.6"/>
	<circle class="st8" cx="261.7" cy="451.1" r="0.6"/>
	<circle class="st8" cx="302.6" cy="445.4" r="0.6"/>
	<circle class="st8" cx="325.2" cy="432.7" r="0.6"/>
	<circle class="st8" cx="342.3" cy="440.5" r="0.6"/>
	<circle class="st8" cx="348.1" cy="444.3" r="0.6"/>
	<circle class="st8" cx="349" cy="434.1" r="0.6"/>
	<circle class="st8" cx="264.1" cy="419.7" r="0.6"/>
	<circle class="st8" cx="264.3" cy="434.4" r="0.9"/>
	<circle class="st8" cx="269.4" cy="445.3" r="0.9"/>
	<circle class="st8" cx="331" cy="434" r="0.9"/>
	<circle class="st8" cx="353.2" cy="432.7" r="0.9"/>
	<circle class="st8" cx="342.2" cy="428" r="0.9"/>
	<circle class="st8" cx="331" cy="428.5" r="0.9"/>
	<path class="st8" d="M307.9,341.1l2.1-0.2l-2.1-0.1c-0.1-0.4-0.4-0.7-0.8-0.8l-0.2-2.1l-0.1,2.1c-0.4,0.1-0.7,0.4-0.7,0.8l-2.2,0.2
		l2.2,0.1c0.1,0.4,0.4,0.7,0.8,0.7l0.2,2.2l0.1-2.2C307.5,341.8,307.8,341.5,307.9,341.1z"/>
	<path class="st8" d="M272,364.8l2.1-0.2l-2.1-0.1c-0.1-0.4-0.4-0.7-0.8-0.8l-0.2-2.1l-0.1,2.1c-0.4,0.1-0.7,0.4-0.7,0.8l-2.2,0.2
		l2.2,0.1c0.1,0.4,0.4,0.7,0.8,0.7l0.2,2.2l0.1-2.2C271.6,365.5,271.9,365.2,272,364.8z"/>
	<path class="st8" d="M351.6,427.5l2.1-0.2l-2.1-0.1c-0.1-0.4-0.4-0.7-0.8-0.8l-0.2-2.1l-0.1,2.1c-0.4,0.1-0.7,0.4-0.7,0.8l-2.2,0.2
		l2.2,0.1c0.1,0.4,0.4,0.7,0.8,0.7l0.2,2.2l0.1-2.2C351.2,428.2,351.5,427.9,351.6,427.5z"/>
	<path class="st8" d="M264.8,460.3l2.1-0.2l-2.1-0.1c-0.1-0.4-0.4-0.7-0.8-0.8l-0.2-2.1l-0.1,2.1c-0.4,0.1-0.7,0.4-0.7,0.8l-2.2,0.2
		l2.2,0.1c0.1,0.4,0.4,0.7,0.8,0.7l0.2,2.2l0.1-2.2C264.4,461,264.7,460.7,264.8,460.3z"/>
	<path class="st8" d="M344.8,444.3l2.1-0.2l-2.1-0.1c-0.1-0.4-0.4-0.7-0.8-0.8l-0.2-2.1l-0.1,2.1c-0.4,0.1-0.7,0.4-0.7,0.8l-2.2,0.2
		l2.2,0.1c0.1,0.4,0.4,0.7,0.8,0.7l0.2,2.2l0.1-2.2C344.5,445,344.8,444.7,344.8,444.3z"/>
	<path class="st9" d="M309.6,385.1c-8.9,3.5-17.5,6.5-24.9,8.8c-14.9,4.7-55.5,17.2-80.1,33.1l2.1,0.8c15-8.5,24.7-11.1,34-14
		c10.2-3.2,43-10.9,57.9-15.1c5-1.4,10.9-3.3,17.2-5.5c-1.5-2-3-4.1-4.6-6.1C310.6,386.4,310.1,385.7,309.6,385.1z"/>
	<path class="st8" d="M302.2,383.9c1.6,0,2.4,1,2.4,2.9c0.1,3.5,0.2,5.6,0.2,6.2v1.3c0,1.2,0.2,1.8,0.6,1.8c0.7-0.4,1.7-2.5,3-6.3
		c1.5-3.7,2.7-5.5,3.7-5.5c0.3-0.1,0.6-0.1,0.9-0.1h2.8c1.3,0,2,0.4,2,1.1v0.2c0,0.5-1.3,3.3-3.9,8.6c-1,1.5-2.1,3.9-3.4,7.1
		c-0.1,0.3-0.1,0.6-0.1,0.7c0,0.9,1.3,4.5,4,10.8c1.8,4.1,2.7,6.6,2.7,7.4c0,1.2-1.1,2-3.4,2.4h-0.5c-1.3,0-2.6-1.9-4-5.8
		c-1.3-3.2-2.3-5.4-3.1-6.6l-0.5-0.3h-0.2c-0.7,0-1.1,1.3-1.1,4c0,5.6-0.2,8.3-0.7,8.3c-0.4,0.5-2,0.7-4.8,0.7
		c-1.7,0-2.5-0.9-2.5-2.6v-0.7c0-5.1-0.1-8.7-0.4-10.8c0.1-4.1,0.2-7.2,0.3-9.3c0-2.2-0.1-6.6-0.3-13.3c0.3-1.2,0.9-1.8,1.8-1.8
		C298.7,384.1,300.2,384.1,302.2,383.9z"/>
	<path class="st9" d="M320.4,400c-2.2,1.5-4,2.6-5.2,3.3c-7.3,4.2-42.9,28.6-51.1,34.2c-8.1,5.6-30.6,26.8-37.2,33l-0.2,2.5
		c21.4-19.2,28.1-23.9,36.6-30.4c10.5-8,32.2-22.8,39.6-27.5c7.1-4.5,13.4-8.7,19.1-12.5c-0.1-0.2-0.2-0.3-0.3-0.5
		C321.3,401.4,320.9,400.7,320.4,400z"/>
	<path class="st8" d="M241.5,383.8h1.8c1.1,0,1.8,0.5,2.1,1.4l0.4,7.2c0,0.8-0.2,4.2-0.5,10.3c0.1,3.3,0.3,6.2,0.5,8.7
		c-0.1,1.3-0.1,2.3-0.1,3.1c0,0.7,0.5,1.1,1.4,1.3c1.5-0.1,2.3-0.1,2.4-0.2c0.9,0.1,1.7,0.1,2.3,0.1h2.7c1.3,0,2,0.5,2.3,1.4
		c0.1,0,0.2,1.1,0.4,3.4v0.2c0,1.3-0.8,1.9-2.4,1.9H253c-2.9,0-5.8,0-8.7,0.1c-1.1-0.1-2.8-0.1-5-0.1c-1.1,0-1.8-0.9-2-2.8v-0.5
		c0.1-9.4,0.3-17.5,0.5-24.2c-0.1-1.1-0.1-2.4-0.1-3.7c0-4.5,0.3-6.8,0.8-6.8C238.6,384.2,239.6,384,241.5,383.8z"/>
	<path class="st8" d="M289.2,384c2.2,0,3.3,0.7,3.3,2c-0.1,2.1-0.1,3.5-0.1,4.1c0,2.1,0,3.6,0,4.5v0.1c0,1.2-0.1,4.5-0.3,9.9
		c0.2,8.9,0.3,14.4,0.1,16.4c0,1-0.5,1.5-1.5,1.7H287c-2.1,0-3.1-0.9-3.1-2.7c-0.1-4-0.2-6.8-0.2-8.4c0-1.1,0.1-7.7,0.2-19.8
		c0.1-1.5,0.1-3.4,0-5.8c0-1.2,1.1-1.9,3.3-1.9C287.8,384,288.5,384,289.2,384z"/>
	<path class="st9" d="M353.8,364.8c-10.4,6.1-26.8,13.5-42.7,19.7c0.4,0.5,0.8,0.9,1.1,1.4c1.8,2.2,3.5,4.5,5,6.7
		c12.5-4.6,26.2-10.8,37.1-18.3c-5.2,4.9-22.3,17.7-32.8,24.9c0.5,0.9,1.1,1.8,1.6,2.6c15.8-10.6,26.5-18.4,32.7-23.6
		c8.6-7.2,28.1-23.3,35.5-44.9C378.4,349.9,363,359.4,353.8,364.8z"/>
	<path class="st8" d="M281.6,422.3c-1.7-2.1-4-5-5.8-7.2c-2.3-2.9-4.5-5.9-6.5-8.9c-0.6,0.2-1.3,0.3-1.9,0.5c2.4,3.7,5.1,7.5,8,11.1
		c2.1,2.7,4,4.8,5,6.1c0.2,0.3,0.6,0.9,1.1,1.7c0.6-0.4,1.2-0.8,1.9-1.3C282.8,423.7,282.2,423,281.6,422.3z M293.9,433.4
		c-1.4-1.3-4.7-3.5-8.2-6.8c-0.8,0.5-1.5,1.1-2.3,1.6c2.3,3.2,5.3,7.1,7.7,8.2C294.7,438.2,295.7,435.1,293.9,433.4z M312.2,385.9
		c-20-25.1-44.4-39-54.9-30.6c-8.2,6.5-4.8,25.5,6.4,45.4c0.6-0.2,1.2-0.4,1.7-0.6c-11.4-19.4-14.5-37.5-6.8-43.6
		c9.7-7.7,33.1,6.2,52.5,30.6c4,5.1,7.5,10.1,10.5,15.1c11.4,18.9,15,36.1,7,43.1c-2.4,2.1-9.8,3-19.5-1.4c-0.1,0.2,0.1,0.6,0.3,0.7
		c8.4,3.4,16.4,4.6,20.4,1.4C339.7,438.3,332.2,411,312.2,385.9z"/>
	<path class="st8" d="M272.1,384c3.6,0.1,5.8,1.3,6.7,3.5c1,1.5,1.4,6.5,1.3,14.9c0,1,0,3.5,0.1,7.8c-0.1,5.8-0.1,9.2-0.1,10
		c0,1.8-0.9,2.6-2.6,2.5l-0.5,0c-2-0.1-3.2-0.5-3.6-1.4c-0.2,0-0.3-1.2-0.4-3.5c0.1-1.7,0.1-2.8,0.1-3.3c0-0.7-0.6-1.2-1.8-1.3
		l-0.1,0c-1.9-0.1-3,0.2-3.3,0.7c-0.2,0.3-0.3,0.7-0.3,1.2l-0.1,5.1c0,1.8-1,2.7-2.9,2.6c-0.7,0-1.3,0-1.8,0c-1.3-0.1-2-0.9-1.9-2.4
		v-0.6c-0.2-5.6-0.3-11.7-0.4-18.3c0,0-0.1-1.1-0.1-3.3c0.2-3.5,0.4-5.9,0.7-7.2c0.8-2.8,2-4.6,3.5-5.5
		C266.4,384.4,268.9,383.9,272.1,384z M267.9,396.9v0.3c0,0.5,0,2.8,0.2,6.7c-0.1,0.4-0.1,1-0.1,1.8c0,1.3,0.6,1.9,1.8,2h0.2
		c2.4,0.1,3.5-0.4,3.6-1.5v-0.3c0-1.4,0-2.8,0-4.3c0.1-1.1,0.1-2.7,0.2-4.6c0-2.4-0.4-4.1-1.2-5.3c-0.3-0.4-0.8-0.6-1.6-0.5
		C268.9,391.2,267.9,393.1,267.9,396.9z"/>
</g>
<g class="st10">
	<path class="st8" d="M217.8,29.3c1.8-8.3,3.9-16.9,7-25c-0.8,0.3-1.6,0.8-2.4,1.3c-8.6,5.5-13,16-16.4,25.2
		c-3.7,10.2-6.1,20.9-9.5,31.2c-4.5,13.8-9.3,27.4-11.3,41.9c-1.2,8.2-1.5,16.6-0.9,24.9c0.5,6.4,1.9,12.7,3.1,19
		c1.1,5.5,2.2,11.3,1.3,16.9c-1.2,6.8-5.6,12-10.9,16.2c-1,0.7-1.1,2,0,2.8c0.6,0.4,1.2,0.7,1.8,1c-0.9,0.4-1.7,0.9-2.5,1.3
		c-0.8,0.5-0.9,1.4-0.6,2.2c2,4.6,5.9,7.8,10.5,9.6c-1.9,2.5-2.5,5.4-4.4,8.1c-0.7,1,0.2,2.5,1.4,2.4c2.1-0.1,4.2,0.4,6.3,0.6
		c-1.3,2.7-2.1,5.6-3.9,8c-0.9,1.2-0.1,3.2,1.6,2.7c2.1-0.7,3.9-0.3,5.8-0.1c-0.5,1.3-0.9,2.7-1.5,4.1c-0.4,1,0,2.5,1.4,2.4
		c2.4-0.3,4.7,0.3,7.1,0.5c-0.6,1.9-1.2,3.7-2.2,5.4c-0.7,1.3,0.4,2.4,1.5,2.4c-13.8,5.5-26.9,13-36.7,23.8
		c-5.9,6.5-10.4,14.5-11.8,23.2c-1.6,9.8,0.4,19.5,4.3,28.5c1,2.3,2.1,4.5,3.3,6.6c-9.2,3.6-18,8.2-26,13.9
		c-8.7,6.1-17,13.5-22.2,22.8c-5.7,10.1-7.8,21.6-9.7,32.8c-1,5.6-1.9,11.3-3.2,16.9c-1.5,6.3-3.6,12.4-5.8,18.5
		c-4.6,13-9.7,25.7-14.1,38.8c-4,12.1-6.8,24.6-10.7,36.8c-3.8,11.9-8,23.9-10.1,36.2c-2,11.7-1.5,23,2.4,34.3
		c4.1,11.9,10.7,22.8,17,33.7c5.9,10.2,10.8,20.6,15.1,31.7c3.6,9.2,7.4,18.4,13.8,26c3.4,4.1,7.5,7.3,11.9,10.4
		c4.2,2.9,8.1,6.3,11.6,10c0,0,0,0,0,0c0.2,0.3,0.4,0.6,0.7,0.7c0.4,0.4,0.7,0.8,1.1,1.2c7.1,8,12.5,17.2,18.4,26.1
		c-0.4,0.5-0.8,1-1,1.6c-0.2,0.5-0.1,0.9,0.1,1.2c-0.2,0.3-0.3,0.7-0.1,1.2c7.1,22.6,4.9,47.4,4.3,70.7c-0.3,11.4-0.6,23,0.4,34.4
		c1.2,13,2.1,26.1-0.2,39c-1.1,6.4-2.9,12.6-5.3,18.7c-1.3,3.3-3.3,6.8-3.4,10.4c-0.1,3.4,1.7,6.5,3.3,9.3c3,5.4,6.2,10.7,8.4,16.5
		c3.6,9.7,3.5,20,4.6,30.1c0.6,5.9,1.6,12,5.6,16.6c1.3,1.4,2.7,2.6,4.3,3.6c-1.3,0.1-2.1,2.1-0.7,3c0,0,0.1,0,0.1,0.1
		c-2.1,6-2.9,12.3-4,18.5c-1.4,7.8-3.6,14.8-7.6,21.7c-6.7,11.5-13.2,23.8-23,33c-4.4,4.1-9.6,7.1-15.6,8.2
		c-5.6,0.9-11.3,0.2-16.8-0.8c-10-1.9-20.7-5.3-30.8-2.2c-6.2,1.9-11,6-14.8,11c36.4,8.1,76.9,5.2,101.3-21.7
		c23.8-26.2,24-65.5,22.8-100.9c-2-60.2-4-120.4-6-180.6c-0.6-17.1-1.2-34.5-6.8-50.6c-12.9-37.5-49.6-61.6-68.8-96.3
		c-30.7-55.7-10.5-124.6,10.3-184.7c8.8-25.4,18.2-51.9,38.1-69.9c12-11,29-21.3,28.2-37.6c-0.3-7.1-4.3-13.7-4.5-20.9
		c-0.8-23.7,36.5-33.2,39-56.8c0.8-7.1-1.9-14-4-20.8c-8.3-27.5-7.1-56.9-4.3-85.4C206,93.9,211,61.4,217.8,29.3z"/>
</g>
<g class="st11">
	<path class="st1" d="M508.1,1045.3c-6.6-2.6-13.3-2.3-19.5,1c-2.2,1.2-3.3,1.1-5.1-0.8c-2.9-2.9-4.9-6.4-6.2-10.3
		c-2.9-8-4.9-16.6-6.1-25c-1.6-10.6-2-21.2-4.4-31.8c-0.9-3.9-2.1-6.9-4.8-9.1c0-0.1,0-0.3-0.1-0.4c-0.3-0.8-0.5-1.6-0.6-2.4
		c0,0,0-0.1,0-0.1c0,0,0-0.1,0-0.1c0-0.1,0-0.3,0-0.4c0-0.3,0-0.5,0-0.8c0-0.5,0-1,0-1.5c0-0.5,0.1-1,0.1-1.5c0-0.1,0-0.1,0-0.1
		c0-0.1,0-0.2,0-0.3c0-0.3,0.1-0.5,0.1-0.8c0.1-0.4,0.2-0.9,0.4-1.3c0-0.1,0.1-0.2,0.1-0.3c0,0,0,0,0,0c0,0,0,0,0,0v0
		c0.1-0.2,0.2-0.3,0.3-0.5c0.1-0.2,0.2-0.5,0.2-0.7c1-1.1,1.8-2.4,2.3-4c2.9-8.3-0.8-17.7-2-26c-1.6-11.2-2.1-22.6-4.2-33.8
		c-0.9-4.9-2.1-9.8-4.2-14.3c-2.1-4.6-5.3-8.6-8.6-12.5c-3.7-4.3-7.7-8.5-10.7-13.4c-3.6-6.1-5.9-13.1-8.6-19.7
		c-5.2-12.9-10.8-25.5-15.7-38.5c-4.8-12.8-9.1-25.7-13.1-38.8c-4-13.1-7.6-26.2-10.8-39.5c-1.6-6.5-3.1-13-4.6-19.5
		c-1.3-5.7-3-11.6-3.3-17.5c-0.2-4.9,0.3-9.8,0.3-14.7c0-1.9,0.8-5.6,1-8.9c2.1,1,4.5,1.5,7.3,0.8c4.6-1,9.1-3.8,13-6.3
		c4.8-3.1,9.3-6.6,13.5-10.4c9-8.1,16.8-17.3,24.4-26.7c7.4-9.2,14.8-18.4,22.2-27.6c7.7-9.5,15.2-19.4,21-30.2
		c5.8-10.7,9.6-22.3,9.3-34.6c-0.3-12.9-4.3-25.2-7.9-37.5c-7.8-26.9-9.4-55-14.7-82.4c-3.9-19.8-5.5-42.2-17.8-59
		c-6.2-8.4-15.3-14.1-23.9-19.7c-9.1-6-18.5-11.7-28.1-16.8c4.5-7.7,6.4-16.5,5.2-25.5c-1.4-10-6.2-19.3-12.2-27.3
		c-7.8-10.2-17.6-19.3-29.4-24.7c0.5-0.3,0.9-0.9,0.8-1.7c-0.2-1.4-0.8-2.8-0.9-4.2c-0.1-2.2,1.6-3.8,3.2-5.2c0.8-0.7,0.5-2-0.3-2.5
		c-0.5-0.3-1-0.6-1.5-1c0.7-1.8,2.1-3.4,2.5-5.3c0.3-1.8-1.2-3.1-2.5-4.3c3.5-7.1,7.1-14.4,13.2-19.5c0.9-0.8,0.4-2.4-0.7-2.7
		c-2.7-0.7-4.8-2.5-7.3-3.8c1.4-1.6,2.5-3.4,4.3-4.6c1.1-0.7,1-2.6-0.4-3c-14.5-3.4-13.7-24.8-12.6-36.2c0.9-8.7,3.3-17.1,4.6-25.7
		c1.5-9.8,0.6-19.2-2.1-28.7c-3.1-10.8-8.5-20.6-13.7-30.4c-4.6-8.6-8.6-17.4-12-26.5C335,18.1,329.2-0.3,320.8,0
		c-3.4,22.3,13.7,42.9,21.3,64.7c7.5,21.3,5.7,44.5,4.2,67.1c-1.7,25.5-3,51-3.8,76.5c-0.3,7.5-0.4,15.3,2.8,22.1
		c5.2,11.2,18.3,17,24.3,27.8c8.7,15.5,0.4,35.6,6.5,52.3c6,16.5,23.8,24.9,37.4,36c38.3,31.2,45.1,86.1,49.1,135.3
		c1.6,19.8,3.1,40.1-2.4,59.2c-8.3,28.6-31.4,50.4-55.7,67.5c-15.7,11-33.6,22.7-37.8,41.4c-1.5,6.6-1,13.5-0.5,20.3
		c3.1,42.1,6.3,84.8,20,124.8c19.9,58.2,61.6,110.6,62.5,172.1c0.3,25.9-5.7,55.5,11.6,74.8c13,14.5,34.7,17.1,54.2,16.1
		c2.4-0.1,4.8-0.3,7.2-0.5C518.5,1052.2,514.1,1047.6,508.1,1045.3z"/>
</g>
</svg>
