<?xml version="1.0" encoding="utf-8"?>
<!-- Generator: Adobe Illustrator 27.9.2, SVG Export Plug-In . SVG Version: 6.00 Build 0)  -->
<svg version="1.1" id="Calque_1" xmlns="http://www.w3.org/2000/svg" xmlns:xlink="http://www.w3.org/1999/xlink" x="0px" y="0px"
	 viewBox="0 0 1925 356.3" style="enable-background:new 0 0 1925 356.3;" xml:space="preserve">
<style type="text/css">
	.st0{fill:#9E9E9E;}
	.st1{fill:#878787;}
	.st2{fill:#757575;}
</style>
<path class="st0" d="M1925,59.7c-24.3-5.5-48.3-15.1-72.1-22.9c-39.4-13-85.5-20.4-120.3,2.2c-20.1,13-45,15.5-68.9,16.5
	c-82.2,3.2-165-8.2-243.3-33.3c-29-9.3-57.9-20.6-88.3-22c-62.2-2.8-119.7,35.9-181.9,38.8c-59.3,2.7-118-27.3-176.3-16.4
	c-52.8,9.9-97.2,52.4-151,53.2c-25.2,0.3-49.5-8.7-74.6-10.3c-39.5-2.5-78.6,13.4-118,9.7c-60.2-5.7-119.7-56-174.7-30.7
	c-15,6.9-27.6,19.1-43.5,23.4c-19.7,5.3-40.4-2.3-60.7-1.8c-35.8,0.7-67.6,26-103.4,27.2c-22,0.7-43.2-7.7-65-10.3
	c-46.9-5.7-92.3,15.4-137.2,30.3c-14.7,4.9-30.2,9-45.8,11.3v232h1925V59.7z"/>
<path class="st1" d="M1925,110.5c-14.2-2.1-28.7-2.9-43.1-2.3c-26.3,1.1-63.1-0.9-65.7-27.2c-18.8,2.6-38.8-6-49.7-21.4
	c-20.6,0.3-18.3,37.8-37.6,45.2c-10.9,4.2-22.3-3.8-33.2-8c-37-14.2-80.5,14.9-117.2,0c-12.3-5-23.5-14.9-36.8-14.5
	c-19.1,0.6-37.6,22.2-53.9,12.2c-6.6-4.1-9.6-12.1-15.5-17.2c-24.8-21.3-63.9,27.5-92.2,11.1c-7-4.1-11.3-11.4-17.3-16.9
	c-26.1-24.4-67.4-6.4-102.1,2.4c-87.2,22.1-179.4-25.5-268.1-10.1c-35.9,6.2-69.2,22.5-104.2,32.6s-74.7,13.3-106.1-5.2
	c-13.2-7.8-24.3-19.2-38.4-25.4c-15-6.7-31.9-6.9-48.2-6.4c-65.7,2-131,15-192.5,38.1c-13.8,5.2-28.3,11.6-36.2,24
	c-6,9.3-7.7,21.1-14.9,29.4c-15.8,18-45.5,8.6-65.4-4.6s-42.8-30-65.5-22.2c-10.8,3.7-19.6,12.6-30.9,14.1
	c-16.2,2.1-29.9-11.7-45.8-15.7c-42.8-10.7-78.9,51.4-121.7,40.4c-15.5-4-27.6-17.2-43.2-20.6c-28.9-6.2-52.9,22.5-79.8,34.8v179.5
	h1925V110.5z"/>
<path class="st2" d="M1013.1,230.8c12.4-14.2,31.4-21.7,50.2-19.7c10.8,1.1,21.1,4.7,31.9,5.8c9.6,1,19.2-0.6,28.4-3.4
	c18.1-5.5,35.1-15.4,54.2-17.1c18-1.7,34.9,5.1,50.7,13c16.1,8,31.8,17.4,49.3,21.8c2.1,0.5,4.3,1,6.4,1.4c1.9,0.3,2.7-2.6,0.8-2.9
	c-18.1-3.1-34.2-12.2-50.4-20.5c-15.7-8.1-32.4-15.9-50.5-16c-19.5-0.2-37.1,9.1-55.1,15.5c-9,3.2-18.3,5.7-27.9,5.7
	c-11,0-21.6-3.5-32.3-5.3c-9.6-1.6-19.3-1.4-28.7,1.3c-9,2.6-17.5,7.3-24.4,13.6c-1.7,1.5-3.3,3.2-4.8,4.9
	C1009.7,230.2,1011.8,232.3,1013.1,230.8L1013.1,230.8z"/>
<path class="st2" d="M1499.8,161.7c12.7,4,26.6,4,39.3-0.1c6.3-2,12.4-5,17.8-8.9c5.4-3.9,10.2-8.4,15.4-12.4
	c5.4-4.1,11.5-7.6,18.4-8.3c7.1-0.8,14.1,0.8,20.9,2.5c7,1.8,14,3.8,21.3,4.3c7.2,0.5,14.5-0.9,21.4-2.8c7.4-2,14.7-4.6,22.2-6.3
	c7.8-1.8,15.8-2.3,23.8-1.9c8.4,0.4,16.7,1.6,25,3.1c7.1,1.2,14.2,2.4,21.1,4.2c6.8,1.7,13.5,4.1,19.3,8.2
	c5.5,3.8,9.5,9.1,13.9,14.1c4.4,4.9,9.3,9.1,15.5,11.5c6.1,2.3,12.8,2.8,19.3,3c6.8,0.1,13.7-0.1,20.5,0.6
	c6.7,0.7,13.1,2.9,19.3,5.6c11.7,5.2,23,12.4,35.9,14.4c3,0.5,6.1,0.7,9.2,0.5c1.9-0.1,1.9-3.1,0-3c-13.3,0.7-25.3-5.8-36.9-11.5
	c-5.8-2.8-11.8-5.5-18-7.3c-6.4-1.8-13.1-2.2-19.8-2.3c-13.4-0.1-27.7,0.7-38.2-9c-4.9-4.5-8.7-9.9-13.4-14.5
	c-4.8-4.6-10.5-8-16.7-10.3c-6.5-2.5-13.3-3.9-20.1-5.2c-7.6-1.4-15.2-2.8-22.8-3.8c-8.2-1.1-16.4-1.7-24.6-1.1
	c-7.6,0.5-14.9,2.2-22.1,4.3c-7.2,2.1-14.4,4.6-21.8,5.9c-7.6,1.3-14.9,0.7-22.4-1c-13.4-3-27.4-8.5-40.9-2.9
	c-12.1,5-20.4,15.9-31.6,22.4c-11.9,6.8-26.2,9.5-39.8,7.4c-3.3-0.5-6.5-1.3-9.7-2.3C1498.7,158.2,1497.9,161.1,1499.8,161.7
	L1499.8,161.7z"/>
<path class="st2" d="M410,184.6c-13.7-0.1-27.4-2.6-40.3-7.3c-6.4-2.4-12.6-5.3-18.5-8.8c-5.4-3.2-10.8-7.1-17.1-8.4
	c-12.7-2.6-22.7,6.8-33.8,10.9c-12.3,4.6-25.7,3-38.5,2.8c-6.3-0.1-12.6,0.1-18.7,1.5c-5.9,1.3-11.4,3.8-16.5,7.1
	c-10.3,6.7-19.3,15.6-31.9,17.9c-7.1,1.3-14.4,0.7-21.6,0.3c-6.5-0.4-12.9-0.5-19.4-0.1c-12.4,0.8-24.7,3.5-36.4,7.7
	c-11.7,4.2-22.8,10.1-32.9,17.4c-5,3.6-9.6,7.6-14.1,11.8c-4,3.8-8.8,7.9-14.4,9c-2.6,0.5-5.1,0-7.1-1.9c-1.4-1.3-3.5,0.8-2.1,2.1
	c9,8.4,21-2.9,27.6-9c9.3-8.6,19.9-15.8,31.3-21.3c11.4-5.5,23.6-9.4,36.1-11.5c6.3-1,12.6-1.6,19-1.7c6.9-0.1,13.8,0.6,20.7,0.8
	c6.9,0.2,14-0.1,20.5-2.5c5.6-2.1,10.6-5.4,15.4-8.8c4.9-3.5,9.7-7.3,15-10.2c5.7-3.1,11.9-4.7,18.4-5.2c13-1.1,26.1,1.1,39-0.5
	c6.2-0.8,12-2.7,17.6-5.6c5.5-2.8,10.9-6.3,17-7.7c6.6-1.6,12.6,0.4,18.4,3.7c5.9,3.4,11.5,6.9,17.7,9.8
	c12.4,5.6,25.6,9.2,39.2,10.4c3.4,0.3,6.9,0.5,10.3,0.5C411.9,187.6,411.9,184.6,410,184.6L410,184.6z"/>
<path class="st2" d="M769.8,303.8c16.5-0.6,27.5-15,39.5-24.4c7.1-5.5,14.9-9.4,24.1-9.3c11.6,0.2,22.6,5.3,33.5,9
	c22.5,7.6,45.8,12.6,69.4,15c5.9,0.6,11.8,1,17.7,1.3c5.3,0.2,10.7,0.2,15.9,1.4c5,1.2,8.9,3.8,12.1,7.7c3.1,3.8,5.6,8.1,9.2,11.4
	c14.3,13.1,35.5,3.4,52.5,6.3c2.2,0.4,4.3,1,6.4,1.8c1.8,0.7,2.6-2.2,0.8-2.9c-8.7-3.4-18.3-2.5-27.5-1.8
	c-8.6,0.7-18.3,1.7-26.2-2.7c-8.6-4.8-11.4-15.5-20-20.3c-4.4-2.4-9.5-3.2-14.5-3.6c-5.7-0.4-11.4-0.5-17-0.9
	c-23.7-1.7-47.3-6.1-70-13.1c-5.7-1.8-11.3-3.8-16.9-5.8c-5.5-2-11-3.8-16.7-4.9c-5.6-1.1-11.3-1.3-16.9-0.1
	c-3.9,0.9-7.7,2.5-11.1,4.6c-7,4.2-12.9,10-19,15.3c-5.7,5-12,10.1-19.5,12.1c-1.9,0.5-3.8,0.8-5.7,0.8
	C767.9,300.9,767.9,303.9,769.8,303.8L769.8,303.8z"/>
<path class="st2" d="M1689.8,261.4c-17-2.7-34-5.5-51-8c-7.9-1.2-15.9-1.7-23.5,1c-6.4,2.3-12,6.3-17.4,10.3
	c-5.6,4.2-11.2,8.6-17.5,11.7c-6.8,3.3-14.3,5.3-21.9,5.9c-6.4,0.4-12.7-0.7-19.1-0.5c-5,0.1-10.8,1.1-13.9,5.6
	c-2,2.9-1.8,6.2-2.4,9.5c-0.4,2.7-1.7,5.2-3.4,7.2c-3.6,4.1-9,6.7-14.5,6.3c-1.4-0.1-2.7-0.4-3.9-0.9c-1.8-0.7-2.6,2.2-0.8,2.9
	c10.6,3.9,23.9-3.8,25.6-15.1c0.5-3.1,0.2-6.5,2.5-9c1.6-1.8,3.9-2.6,6.2-3.1c5.7-1.1,11.5-0.1,17.2,0.1c7.5,0.3,15.2-0.8,22.3-3.2
	c7-2.3,13.2-5.9,19.1-10.3c5.5-4,10.8-8.5,16.8-11.8c2.9-1.6,6-3,9.3-3.8c4-1,8.1-1,12.2-0.7c4.2,0.3,8.4,1.1,12.6,1.7
	c4.3,0.7,8.5,1.3,12.8,2c8.5,1.3,17,2.7,25.5,4c2.1,0.3,4.3,0.7,6.4,1C1690.9,264.6,1691.7,261.7,1689.8,261.4L1689.8,261.4z"/>
</svg>
