<?xml version="1.0" encoding="utf-8"?>
<!-- Generator: Adobe Illustrator 27.9.2, SVG Export Plug-In . SVG Version: 6.00 Build 0)  -->
<svg version="1.1" id="Calque_1" xmlns="http://www.w3.org/2000/svg" xmlns:xlink="http://www.w3.org/1999/xlink" x="0px" y="0px"
	 viewBox="0 0 1925 82" style="enable-background:new 0 0 1925 82;" xml:space="preserve">
<style type="text/css">
	.st0{fill:#04080C;}
	.st1{fill:#0F1821;}
</style>
<g>
	<path class="st0" d="M1925,82h-797.4c-6.3,0-12.6-1.4-18.3-4.1l-82.1-38.8c-5.7-2.7-12-4.1-18.3-4.1h-97.8
		c-6.3,0-12.6,1.4-18.3,4.1l-82.1,38.8c-5.7,2.7-12,4.1-18.3,4.1H0V10h1925V82z"/>
	<path class="st1" d="M1925,72h-797.4c-6.3,0-12.6-1.4-18.3-4.1l-82.1-38.8c-5.7-2.7-12-4.1-18.3-4.1h-97.8
		c-6.3,0-12.6,1.4-18.3,4.1l-82.1,38.8c-5.7,2.7-12,4.1-18.3,4.1H0V0h1925V72z"/>
</g>
</svg>
